<svg width="440" height="466" viewBox="0 0 440 466" fill="none" xmlns="http://www.w3.org/2000/svg">
<g opacity="0.3">
<path d="M426.973 29.0816C424.386 28.9613 421.825 29.6392 419.637 31.0235C417.448 32.4077 415.738 34.4313 414.738 36.82C413.445 41.6875 411.662 46.4114 409.416 50.9192C406.34 54.8485 401.727 51.3563 398.637 49.2491C394.792 45.9632 390.198 43.672 385.26 42.5769C382.324 42.372 379.399 43.1118 376.913 44.688C374.428 46.2643 372.511 48.5944 371.444 51.3377C369.843 54.6761 369.257 58.3081 367.92 61.7397C367.282 63.3762 366.335 65.5925 364.533 66.2514C363.928 66.4733 361.948 66.7948 361.672 65.8553C360.16 60.7079 351.97 62.462 353.493 67.6429C354.205 70.0935 355.823 72.181 358.019 73.4808C360.215 74.7807 362.823 75.1953 365.314 74.6403C368.179 73.8222 370.758 72.2157 372.755 70.0037C374.752 67.7917 376.088 65.0633 376.61 62.1292C378.049 57.5009 379.602 48.8054 386.294 51.4169C390.371 53.6461 394.315 56.1088 398.108 58.7927C400.021 59.9744 402.19 60.6779 404.432 60.8434C406.675 61.0089 408.924 60.6317 410.989 59.7437C413.055 58.8556 414.876 57.4829 416.299 55.7418C417.721 54.0006 418.703 51.9423 419.162 49.7412C420.332 46.3953 420.948 39.2096 424.728 37.6625C429.033 35.8973 435.171 43.2274 438.579 45.1585L439.995 45.8771V36.0986C436.419 32.5572 431.898 30.1211 426.973 29.0816Z" fill="#BABABA"/>
<path d="M391.188 31.3679C392.938 32.4071 395.024 32.7258 397.005 32.2569C398.986 31.788 400.708 30.5681 401.807 28.8545C402.906 27.1408 403.297 25.0673 402.897 23.0711C402.497 21.0749 401.338 19.312 399.663 18.1541C397.912 17.115 395.826 16.7962 393.845 17.2651C391.864 17.734 390.143 18.9539 389.043 20.6676C387.944 22.3812 387.553 24.4548 387.953 26.451C388.353 28.4472 389.513 30.2101 391.188 31.3679Z" fill="#BABABA"/>
<path d="M420.268 73.6582C424.57 80.1094 432.663 92.3064 439.994 103.34V88.2308L426.97 68.6384C423.974 64.1462 417.285 69.1846 420.268 73.6582Z" fill="#BABABA"/>
<path d="M391.16 85.759C392.884 85.5734 394.625 85.8811 396.181 86.6461C397.737 87.4112 399.043 88.6022 399.949 90.0807C402.731 94.6866 410.077 90.6678 407.284 86.0433C405.663 83.2719 403.312 80.9989 400.487 79.4721C397.663 77.9453 394.473 77.2234 391.267 77.385C385.929 77.7243 385.759 86.102 391.16 85.759Z" fill="#BABABA"/>
<path d="M439.193 0.523781L438.3 0H435.537C434.846 0.325542 434.25 0.822071 433.806 1.44249C433.361 2.06292 433.082 2.78667 432.995 3.54509C432.909 4.30352 433.018 5.07149 433.311 5.77615C433.605 6.48081 434.073 7.09881 434.673 7.57153C436.316 8.80371 438.106 9.82623 440.002 10.6154V1.09882L439.193 0.523781Z" fill="#BABABA"/>
<path d="M399.217 0.152847C400.074 2.06563 401.33 3.77264 402.902 5.15887C404.474 6.5451 406.324 7.57833 408.329 8.18896C410.334 8.79959 412.447 8.97342 414.524 8.69875C416.602 8.42408 418.597 7.70728 420.374 6.59666C420.884 6.23856 421.316 5.78166 421.646 5.2531C421.976 4.72454 422.196 4.13509 422.294 3.51977C422.391 2.90444 422.364 2.27579 422.214 1.67115C422.064 1.06651 421.794 0.498209 421.419 0L414.951 0C414.252 0.314967 413.493 0.477831 412.725 0.477831C411.958 0.477831 411.199 0.314967 410.499 0L399.143 0L399.217 0.152847Z" fill="#BABABA"/>
<path d="M362.588 3.78458L356.307 22.2297C356.08 23.3141 356.29 24.4443 356.89 25.3756C357.49 26.307 358.432 26.9647 359.513 27.2065C360.596 27.4146 361.717 27.1975 362.644 26.6005C363.571 26.0034 364.232 25.0723 364.49 24.0005L370.771 5.55444C370.998 4.46999 370.789 3.33973 370.189 2.4083C369.589 1.47686 368.646 0.81918 367.565 0.577591C366.482 0.369605 365.361 0.586791 364.434 1.18402C363.507 1.78125 362.846 2.71261 362.588 3.78458Z" fill="#BABABA"/>
<path d="M426.973 262.08C424.386 261.96 421.825 262.637 419.636 264.021C417.447 265.404 415.737 267.428 414.737 269.816C413.444 274.684 411.66 279.408 409.414 283.916C406.338 287.845 401.725 284.352 398.635 282.246C394.79 278.96 390.198 276.669 385.26 275.573C382.324 275.368 379.399 276.108 376.913 277.684C374.428 279.26 372.511 281.59 371.444 284.334C369.843 287.677 369.256 291.308 367.92 294.74C367.282 296.377 366.335 298.592 364.533 299.252C363.928 299.474 361.948 299.795 361.672 298.856C360.16 293.709 351.97 295.462 353.493 300.643C354.205 303.093 355.823 305.181 358.019 306.481C360.215 307.781 362.823 308.195 365.314 307.64C368.179 306.822 370.758 305.216 372.755 303.004C374.752 300.792 376.088 298.064 376.61 295.13C378.049 290.502 379.605 281.802 386.294 284.418C390.371 286.646 394.315 289.109 398.108 291.793C400.021 292.975 402.19 293.679 404.432 293.844C406.675 294.01 408.924 293.632 410.989 292.744C413.055 291.856 414.876 290.484 416.299 288.742C417.721 287.001 418.703 284.943 419.162 282.742C420.332 279.396 420.948 272.21 424.728 270.663C429.033 268.898 435.171 276.227 438.579 278.159L439.995 278.876V269.096C436.418 265.556 431.897 263.12 426.973 262.08Z" fill="#BABABA"/>
<path d="M391.188 264.367C392.938 265.406 395.024 265.724 397.005 265.256C398.986 264.787 400.708 263.567 401.807 261.853C402.906 260.139 403.297 258.066 402.897 256.07C402.497 254.074 401.338 252.311 399.663 251.153C397.912 250.114 395.826 249.795 393.845 250.264C391.864 250.733 390.143 251.953 389.043 253.666C387.944 255.38 387.553 257.453 387.953 259.45C388.353 261.446 389.513 263.209 391.188 264.367Z" fill="#BABABA"/>
<path d="M397.654 138.791C397.407 140.811 397.953 142.848 399.178 144.473C400.403 146.098 402.21 147.185 404.22 147.503C406.231 147.822 408.286 147.347 409.953 146.18C411.62 145.014 412.77 143.245 413.159 141.247C413.406 139.227 412.86 137.19 411.635 135.565C410.41 133.94 408.602 132.854 406.592 132.535C404.582 132.217 402.527 132.691 400.86 133.858C399.192 135.025 398.043 136.793 397.654 138.791Z" fill="#BABABA"/>
<path d="M420.268 306.656C424.57 313.108 432.663 325.304 439.994 336.339V321.229L426.97 301.637C423.974 297.145 417.285 302.182 420.268 306.656Z" fill="#BABABA"/>
<path d="M391.16 318.758C392.884 318.571 394.626 318.878 396.183 319.643C397.74 320.408 399.047 321.599 399.953 323.079C402.735 327.685 410.081 323.667 407.288 319.042C405.667 316.271 403.316 313.998 400.491 312.471C397.667 310.944 394.477 310.222 391.271 310.384C385.928 310.723 385.759 319.101 391.16 318.758Z" fill="#BABABA"/>
<path d="M393.261 170.836L401.782 191.279L402.11 191.916C402.23 192.475 402.481 192.999 402.844 193.441C403.207 193.884 403.67 194.234 404.195 194.462C404.72 194.69 405.292 194.789 405.864 194.752C406.435 194.714 406.989 194.54 407.48 194.246C415.286 190.052 421.149 182.98 423.825 174.533C424.036 173.932 424.109 173.291 424.04 172.658C423.97 172.025 423.76 171.415 423.423 170.874C423.087 170.333 422.634 169.874 422.096 169.532C421.559 169.189 420.952 168.971 420.32 168.894L397.509 164.991C396.785 164.93 396.058 165.057 395.397 165.359C394.737 165.661 394.165 166.129 393.738 166.716C393.311 167.304 393.043 167.992 392.959 168.714C392.876 169.435 392.98 170.166 393.261 170.836ZM414.045 176.291C412.512 179.26 410.398 181.891 407.828 184.026L403.878 174.551L414.045 176.291Z" fill="#BABABA"/>
<path d="M439.185 233.522C434.877 230.283 430.377 237.343 434.665 240.57C436.308 241.801 438.098 242.824 439.994 243.614V234.096L439.185 233.522Z" fill="#BABABA"/>
<path d="M377.158 210.921C375.214 215.942 383.216 218.421 385.155 213.407C385.959 211.329 388.803 211.681 390.303 212.595C392.461 214.234 394.003 216.551 394.684 219.174C395.787 223.955 397.3 228.633 399.208 233.154C400.064 235.066 401.321 236.773 402.892 238.159C404.464 239.545 406.315 240.579 408.32 241.189C410.324 241.8 412.437 241.974 414.514 241.699C416.592 241.425 418.587 240.708 420.364 239.597C424.77 236.602 421.007 229.114 416.561 232.141C411.024 235.904 406.938 231.197 405.202 225.941C404.073 220.302 402.066 214.875 399.254 209.858C398.112 207.878 396.447 206.252 394.44 205.156C392.434 204.061 390.165 203.539 387.882 203.649C385.599 203.759 383.39 204.496 381.498 205.779C379.606 207.061 378.105 208.841 377.158 210.921Z" fill="#BABABA"/>
<path d="M437.352 191.072L420.285 209.091C416.598 212.982 422.172 219.236 425.876 215.323L439.994 200.42V189.835C439.492 189.845 438.997 189.96 438.542 190.173C438.087 190.386 437.681 190.693 437.352 191.072Z" fill="#BABABA"/>
<path d="M362.588 236.784L356.307 255.229C356.08 256.314 356.29 257.444 356.89 258.375C357.49 259.306 358.432 259.964 359.513 260.206C360.596 260.414 361.717 260.197 362.644 259.6C363.571 259.002 364.232 258.071 364.49 256.999L370.775 238.554C371.002 237.469 370.793 236.339 370.193 235.408C369.593 234.476 368.65 233.819 367.569 233.577C366.485 233.368 365.363 233.585 364.435 234.182C363.508 234.779 362.846 235.711 362.588 236.784Z" fill="#BABABA"/>
<path d="M431.673 133.34C429.748 130.433 432.874 126.857 433.948 124.145C434.665 122.844 435.087 121.403 435.185 119.921C435.284 118.44 435.056 116.955 434.518 115.571C433.98 114.187 433.146 112.938 432.072 111.912C430.999 110.886 429.714 110.108 428.308 109.633C423.1 108.393 420.562 116.378 425.822 117.63C428.536 118.277 424.316 124.794 423.683 126.413C422.401 129.372 422.334 132.717 423.497 135.725C426.267 142.342 433.245 144.005 439.55 145.439L439.992 145.539V137.012C437.152 136.441 433.341 135.857 431.673 133.34Z" fill="#BABABA"/>
<path d="M397.654 371.79C397.407 373.81 397.953 375.847 399.178 377.472C400.403 379.097 402.21 380.183 404.22 380.502C406.231 380.82 408.286 380.346 409.953 379.179C411.62 378.012 412.77 376.244 413.159 374.246C413.406 372.226 412.86 370.189 411.635 368.564C410.41 366.939 408.602 365.852 406.592 365.534C404.582 365.215 402.527 365.69 400.86 366.857C399.192 368.023 398.043 369.792 397.654 371.79Z" fill="#BABABA"/>
<path d="M393.262 403.835L401.782 424.278L402.11 424.914C402.23 425.474 402.481 425.997 402.844 426.44C403.207 426.883 403.67 427.233 404.195 427.461C404.721 427.689 405.293 427.788 405.864 427.751C406.435 427.713 406.989 427.539 407.48 427.244C415.286 423.05 421.149 415.979 423.825 407.532C424.036 406.931 424.11 406.29 424.04 405.657C423.971 405.023 423.76 404.414 423.424 403.873C423.087 403.332 422.634 402.873 422.097 402.53C421.56 402.188 420.953 401.97 420.32 401.893L397.51 397.99C396.786 397.929 396.058 398.055 395.397 398.358C394.737 398.66 394.165 399.128 393.738 399.715C393.311 400.303 393.043 400.991 392.959 401.713C392.876 402.435 392.98 403.166 393.262 403.835ZM414.045 409.29C412.512 412.259 410.398 414.89 407.829 417.026L403.879 407.551L414.045 409.29Z" fill="#BABABA"/>
<path d="M435.538 465.992H438.301C437.867 465.793 437.396 465.69 436.919 465.69C436.442 465.69 435.971 465.793 435.538 465.992Z" fill="#BABABA"/>
<path d="M405.2 458.936C404.071 453.298 402.064 447.871 399.252 442.854C398.11 440.874 396.444 439.248 394.438 438.153C392.431 437.059 390.162 436.538 387.879 436.648C385.596 436.758 383.388 437.496 381.497 438.779C379.605 440.062 378.104 441.842 377.158 443.922C375.214 448.943 383.216 451.422 385.155 446.408C385.959 444.33 388.803 444.682 390.303 445.596C392.46 447.235 394.003 449.552 394.684 452.174C395.787 456.896 397.275 461.52 399.133 466H410.49C407.862 464.437 405.961 461.897 405.2 458.936Z" fill="#BABABA"/>
<path d="M416.562 465.134L414.945 465.997H421.413C421.169 465.601 420.844 465.261 420.46 464.999C420.075 464.737 419.639 464.56 419.181 464.479C418.723 464.397 418.253 464.413 417.802 464.526C417.35 464.639 416.928 464.846 416.562 465.134Z" fill="#BABABA"/>
<path d="M437.352 424.07L420.285 442.088C416.598 445.98 422.172 452.234 425.876 448.321L439.994 433.419V422.833C439.492 422.843 438.997 422.958 438.542 423.171C438.087 423.384 437.681 423.69 437.352 424.07Z" fill="#BABABA"/>
<path d="M431.673 366.339C429.748 363.431 432.874 359.856 433.948 357.144C434.665 355.843 435.087 354.402 435.185 352.92C435.284 351.439 435.056 349.954 434.518 348.57C433.98 347.186 433.146 345.937 432.072 344.911C430.999 343.885 429.714 343.107 428.308 342.632C423.1 341.391 420.562 349.377 425.822 350.629C428.536 351.275 424.316 357.793 423.683 359.412C422.401 362.371 422.334 365.716 423.497 368.724C426.267 375.341 433.245 377.004 439.55 378.438L439.992 378.538V370.011C437.152 369.44 433.341 368.855 431.673 366.339Z" fill="#BABABA"/>
<path d="M335.727 5.24433C338.722 9.73748 345.41 4.69912 342.428 0.225543L342.278 0H332.235L335.727 5.24433Z" fill="#BABABA"/>
<path d="M338.56 145.914C338.924 147.501 338.799 149.16 338.201 150.674C337.603 152.188 336.561 153.485 335.211 154.395C333.862 155.305 332.268 155.785 330.641 155.771C329.013 155.758 327.428 155.251 326.094 154.319C320.957 151.344 316.805 146.024 310.473 145.579C307.887 145.458 305.325 146.135 303.137 147.519C300.948 148.903 299.238 150.926 298.237 153.314C296.944 158.182 295.161 162.906 292.915 167.414C289.839 171.343 285.226 167.85 282.136 165.744C278.291 162.458 273.698 160.166 268.761 159.07C265.825 158.866 262.9 159.605 260.414 161.182C257.928 162.758 256.012 165.088 254.945 167.831C253.345 171.173 252.757 174.805 251.42 178.237C250.783 179.874 249.836 182.09 248.034 182.749C247.429 182.971 245.449 183.291 245.173 182.353C243.661 177.205 235.471 178.959 236.994 184.14C237.705 186.591 239.324 188.678 241.52 189.978C243.715 191.278 246.324 191.693 248.815 191.138C251.68 190.32 254.259 188.713 256.256 186.501C258.253 184.289 259.588 181.561 260.11 178.627C261.55 173.998 263.106 165.299 269.795 167.914C273.871 170.143 277.816 172.606 281.609 175.29C283.521 176.472 285.691 177.175 287.933 177.341C290.175 177.506 292.424 177.129 294.49 176.241C296.556 175.353 298.377 173.98 299.799 172.239C301.222 170.498 302.204 168.44 302.662 166.238C303.833 162.893 304.45 155.707 308.229 154.16C312.534 152.395 318.668 159.725 322.08 161.656C324.83 163.323 328.009 164.149 331.223 164.031C334.438 163.914 337.547 162.858 340.169 160.995C342.791 159.131 344.81 156.541 345.978 153.544C347.145 150.547 347.41 147.274 346.74 144.128C346.47 143.078 345.803 142.173 344.88 141.605C343.956 141.036 342.848 140.848 341.789 141.079C340.73 141.31 339.801 141.943 339.199 142.845C338.597 143.747 338.368 144.847 338.56 145.914Z" fill="#BABABA"/>
<path d="M274.688 147.867C276.439 148.906 278.524 149.225 280.506 148.756C282.487 148.287 284.208 147.067 285.308 145.354C286.407 143.64 286.798 141.567 286.398 139.57C285.998 137.574 284.838 135.811 283.164 134.653C281.413 133.614 279.327 133.295 277.346 133.764C275.365 134.233 273.643 135.453 272.544 137.167C271.445 138.881 271.054 140.954 271.454 142.95C271.854 144.946 273.013 146.709 274.688 147.867Z" fill="#BABABA"/>
<path d="M281.155 22.2915C280.907 24.3115 281.453 26.3487 282.678 27.9738C283.903 29.599 285.711 30.6853 287.721 31.0038C289.731 31.3223 291.786 30.8481 293.454 29.6812C295.121 28.5143 296.27 26.7458 296.659 24.7482C296.907 22.7282 296.361 20.691 295.136 19.0658C293.911 17.4407 292.103 16.3544 290.093 16.0359C288.083 15.7174 286.028 16.1916 284.36 17.3585C282.693 18.5254 281.544 20.2939 281.155 22.2915Z" fill="#BABABA"/>
<path d="M342.868 96.8373C344.619 97.88 346.707 98.2013 348.69 97.7333C350.674 97.2654 352.397 96.0448 353.498 94.3294C354.598 92.614 354.988 90.5382 354.586 88.5403C354.184 86.5424 353.022 84.779 351.344 83.6225C349.593 82.5798 347.505 82.2585 345.522 82.7265C343.538 83.1945 341.814 84.415 340.714 86.1304C339.614 87.8458 339.224 89.9217 339.625 91.9195C340.027 93.9174 341.19 95.6808 342.868 96.8373Z" fill="#BABABA"/>
<path d="M303.769 190.158C310.922 200.886 328.573 227.509 335.726 238.238C338.721 242.73 345.409 237.693 342.427 233.219C335.274 222.49 317.623 195.867 310.47 185.138C307.474 180.646 300.786 185.684 303.769 190.158Z" fill="#BABABA"/>
<path d="M274.66 202.258C276.384 202.072 278.126 202.379 279.683 203.144C281.24 203.909 282.547 205.101 283.453 206.58C286.235 211.186 293.581 207.167 290.788 202.543C289.167 199.771 286.816 197.498 283.991 195.971C281.167 194.445 277.977 193.723 274.771 193.884C269.429 194.224 269.26 202.601 274.66 202.258Z" fill="#BABABA"/>
<path d="M341.635 179.127L339.063 202.121C339.044 202.848 339.212 203.568 339.552 204.21C339.892 204.853 340.393 205.397 341.005 205.79C341.617 206.183 342.32 206.41 343.046 206.451C343.772 206.492 344.497 206.345 345.149 206.024L365.064 196.331L365.68 195.966C366.232 195.814 366.74 195.532 367.161 195.144C367.582 194.756 367.905 194.272 368.101 193.735C368.298 193.197 368.363 192.62 368.292 192.051C368.221 191.483 368.015 190.94 367.691 190.467C363.052 182.917 355.653 177.473 347.064 175.291C346.451 175.114 345.806 175.078 345.176 175.184C344.547 175.29 343.95 175.537 343.428 175.905C342.907 176.273 342.475 176.754 342.165 177.312C341.854 177.869 341.673 178.49 341.635 179.127ZM357.47 190.72L348.243 195.212L349.391 184.96C352.442 186.318 355.19 188.279 357.47 190.72Z" fill="#BABABA"/>
<path d="M276.764 54.3405L285.284 74.7838L285.612 75.4204C285.732 75.9801 285.984 76.5032 286.347 76.9461C286.71 77.389 287.173 77.7389 287.698 77.9668C288.223 78.1946 288.795 78.2939 289.367 78.2562C289.938 78.2186 290.492 78.0452 290.983 77.7504C298.79 73.5562 304.654 66.4827 307.329 58.0331C307.54 57.432 307.613 56.7913 307.544 56.158C307.474 55.5248 307.264 54.9153 306.927 54.3743C306.591 53.8333 306.137 53.3747 305.6 53.0322C305.063 52.6897 304.456 52.4721 303.824 52.3954L281.013 48.4922C280.289 48.4304 279.56 48.5567 278.899 48.8589C278.238 49.1611 277.666 49.629 277.238 50.2173C276.811 50.8056 276.543 51.4942 276.46 52.2166C276.376 52.939 276.481 53.6706 276.764 54.3405ZM297.548 59.7964C296.015 62.7657 293.901 65.3963 291.331 67.532L287.383 58.0564L297.548 59.7964Z" fill="#BABABA"/>
<path d="M318.165 124.07C321.31 126.426 324.966 128.006 328.836 128.684C332.707 129.361 336.682 129.115 340.44 127.967C345.558 126.382 343.81 118.192 338.653 119.787C335.969 120.678 333.107 120.892 330.32 120.41C327.533 119.927 324.909 118.764 322.681 117.022C318.378 113.784 313.878 120.846 318.165 124.07Z" fill="#BABABA"/>
<path d="M260.658 94.424C258.714 99.4447 266.716 101.923 268.656 96.9087C269.46 94.8313 272.304 95.1836 273.805 96.0979C275.962 97.737 277.505 100.054 278.185 102.676C279.287 107.458 280.801 112.135 282.709 116.656C283.566 118.569 284.822 120.276 286.394 121.662C287.966 123.048 289.816 124.081 291.821 124.692C293.826 125.303 295.938 125.476 298.016 125.202C300.094 124.927 302.088 124.21 303.866 123.1C308.272 120.104 304.509 112.617 300.062 115.644C294.526 119.406 290.439 114.7 288.704 109.443C287.574 103.804 285.567 98.3775 282.756 93.3606C281.614 91.3802 279.948 89.7528 277.942 88.6572C275.936 87.5615 273.666 87.04 271.383 87.1499C269.099 87.2598 266.89 87.9968 264.998 89.2801C263.107 90.5633 261.605 92.3431 260.658 94.424Z" fill="#BABABA"/>
<path d="M303.785 92.5902C300.099 96.4813 305.673 102.736 309.377 98.8225L326.447 80.8079C330.133 76.9159 324.559 70.6622 320.855 74.5757L303.785 92.5902Z" fill="#BABABA"/>
<path d="M246.089 120.285L239.808 138.73C239.581 139.814 239.79 140.944 240.39 141.876C240.99 142.807 241.933 143.465 243.014 143.706C244.097 143.914 245.218 143.697 246.145 143.1C247.072 142.503 247.733 141.571 247.991 140.5L254.276 122.054C254.503 120.97 254.293 119.84 253.693 118.908C253.093 117.977 252.15 117.319 251.069 117.078C249.986 116.869 248.864 117.085 247.936 117.682C247.008 118.28 246.347 119.212 246.089 120.285Z" fill="#BABABA"/>
<path d="M309.327 1.12865C312.038 1.77545 307.818 8.29475 307.184 9.91176C305.901 12.8707 305.834 16.2154 306.997 19.2233C309.767 25.8405 316.746 27.5032 323.051 28.9375C325.597 29.5172 330.328 30.4511 331.057 33.577C331.728 36.4522 328.367 40.0385 327.358 42.5996C326.663 43.9664 326.304 45.4796 326.313 47.013C326.321 48.5463 326.695 50.0555 327.405 51.4148C328.115 52.7741 329.139 53.9441 330.393 54.8272C331.646 55.7104 333.093 56.2811 334.612 56.4919C339.961 57.1238 340.292 48.7564 334.957 48.1254C333.664 47.9735 337.914 40.3442 338.211 39.6564C339.553 36.8885 339.8 33.7161 338.904 30.7735C337.56 27.938 335.49 25.5084 332.904 23.7312C330.318 21.9541 327.308 20.8928 324.179 20.6549C321.303 20.023 316.978 19.5644 315.172 16.8337C313.249 13.9315 316.375 10.3554 317.451 7.64236C318.425 5.21907 318.695 2.5699 318.229 0L307.334 0C307.867 0.571624 308.563 0.965619 309.327 1.12865Z" fill="#BABABA"/>
<path d="M364.492 116.432L406.719 113.941C412.09 113.625 410.866 105.338 405.507 105.654L363.28 108.145C357.912 108.462 359.136 116.748 364.492 116.432Z" fill="#BABABA"/>
<path d="M369.212 140.61C370.555 140.811 371.846 141.276 373.01 141.977C374.173 142.679 375.187 143.603 375.992 144.697C376.797 145.791 377.378 147.034 377.702 148.353C378.026 149.673 378.085 151.043 377.878 152.386C377.67 153.729 377.199 155.017 376.493 156.177C375.786 157.338 374.857 158.347 373.758 159.147C372.66 159.947 371.415 160.522 370.094 160.839C368.773 161.157 367.402 161.21 366.061 160.996C360.76 160.281 358.808 168.429 364.146 169.149C366.557 169.612 369.036 169.594 371.44 169.098C373.844 168.602 376.127 167.636 378.158 166.257C380.188 164.878 381.927 163.111 383.275 161.059C384.622 159.007 385.552 156.71 386.011 154.298C386.469 151.887 386.448 149.408 385.948 147.005C385.448 144.601 384.479 142.32 383.097 140.291C381.714 138.263 379.946 136.527 377.891 135.182C375.837 133.838 373.538 132.912 371.126 132.457C370.071 132.271 368.984 132.495 368.089 133.085C367.195 133.675 366.559 134.585 366.315 135.628C366.07 136.672 366.233 137.769 366.772 138.695C367.311 139.622 368.184 140.307 369.212 140.61Z" fill="#BABABA"/>
<path d="M338.56 378.921C338.924 380.508 338.798 382.167 338.2 383.681C337.602 385.194 336.56 386.491 335.211 387.401C333.861 388.311 332.268 388.79 330.64 388.777C329.013 388.763 327.428 388.257 326.094 387.325C320.957 384.351 316.805 379.03 310.473 378.585C307.887 378.464 305.326 379.142 303.137 380.526C300.948 381.909 299.238 383.932 298.237 386.32C296.944 391.188 295.161 395.913 292.915 400.421C289.839 404.35 285.226 400.857 282.136 398.75C278.291 395.464 273.699 393.173 268.761 392.077C265.825 391.872 262.9 392.612 260.414 394.188C257.928 395.765 256.012 398.095 254.945 400.838C253.345 404.181 252.757 407.812 251.42 411.245C250.783 412.88 249.836 415.097 248.034 415.757C247.429 415.978 245.449 416.299 245.173 415.36C243.661 410.213 235.471 411.966 236.994 417.147C237.705 419.598 239.324 421.685 241.52 422.985C243.715 424.285 246.324 424.7 248.815 424.145C251.68 423.327 254.259 421.72 256.256 419.509C258.253 417.297 259.588 414.568 260.11 411.634C261.55 407.006 263.106 398.307 269.795 400.922C273.871 403.151 277.816 405.614 281.609 408.298C283.521 409.48 285.691 410.183 287.933 410.348C290.176 410.514 292.425 410.137 294.49 409.248C296.556 408.36 298.377 406.988 299.8 405.246C301.222 403.505 302.204 401.447 302.662 399.245C303.833 395.9 304.45 388.714 308.229 387.168C312.534 385.402 318.668 392.732 322.08 394.664C324.83 396.331 328.009 397.157 331.223 397.039C334.438 396.922 337.547 395.866 340.169 394.003C342.791 392.139 344.81 389.549 345.978 386.552C347.145 383.555 347.41 380.282 346.74 377.136C346.469 376.086 345.803 375.182 344.879 374.614C343.956 374.046 342.849 373.858 341.79 374.089C340.731 374.32 339.803 374.953 339.201 375.854C338.598 376.755 338.369 377.854 338.56 378.921Z" fill="#BABABA"/>
<path d="M274.688 380.866C276.439 381.905 278.524 382.224 280.506 381.755C282.487 381.286 284.208 380.066 285.308 378.352C286.407 376.639 286.798 374.565 286.398 372.569C285.998 370.573 284.838 368.81 283.164 367.652C281.413 366.613 279.327 366.294 277.346 366.763C275.365 367.232 273.643 368.452 272.544 370.165C271.445 371.879 271.054 373.953 271.454 375.949C271.854 377.945 273.013 379.708 274.688 380.866Z" fill="#BABABA"/>
<path d="M281.155 255.29C280.907 257.31 281.453 259.347 282.678 260.973C283.903 262.598 285.711 263.684 287.721 264.002C289.731 264.321 291.786 263.847 293.454 262.68C295.121 261.513 296.27 259.744 296.659 257.747C296.907 255.727 296.361 253.69 295.136 252.065C293.911 250.439 292.103 249.353 290.093 249.035C288.083 248.716 286.028 249.19 284.36 250.357C282.693 251.524 281.544 253.293 281.155 255.29Z" fill="#BABABA"/>
<path d="M342.87 329.829C344.62 330.868 346.706 331.187 348.687 330.718C350.669 330.249 352.39 329.029 353.489 327.316C354.589 325.602 354.979 323.529 354.579 321.532C354.179 319.536 353.02 317.773 351.345 316.615C349.595 315.576 347.509 315.258 345.528 315.726C343.546 316.195 341.825 317.415 340.726 319.129C339.626 320.843 339.236 322.916 339.636 324.912C340.036 326.908 341.195 328.671 342.87 329.829Z" fill="#BABABA"/>
<path d="M303.769 423.155C309.94 432.411 323.918 453.488 332.235 465.992H342.277C335.033 455.125 317.579 428.793 310.47 418.137C307.474 413.644 300.786 418.682 303.769 423.155Z" fill="#BABABA"/>
<path d="M274.66 435.256C276.384 435.07 278.126 435.377 279.683 436.142C281.24 436.907 282.547 438.099 283.453 439.578C286.235 444.185 293.581 440.165 290.788 435.541C289.167 432.77 286.816 430.497 283.991 428.97C281.167 427.443 277.977 426.721 274.771 426.883C269.429 427.222 269.26 435.599 274.66 435.256Z" fill="#BABABA"/>
<path d="M341.635 412.124L339.063 435.119C339.044 435.846 339.212 436.565 339.552 437.208C339.892 437.851 340.393 438.395 341.005 438.788C341.617 439.18 342.32 439.408 343.046 439.449C343.772 439.49 344.497 439.343 345.149 439.022L365.064 429.329L365.68 428.965C366.232 428.812 366.74 428.53 367.161 428.142C367.582 427.754 367.905 427.271 368.101 426.733C368.298 426.195 368.363 425.618 368.292 425.05C368.221 424.482 368.015 423.939 367.691 423.466C363.052 415.916 355.653 410.472 347.064 408.289C346.451 408.113 345.806 408.076 345.177 408.183C344.547 408.289 343.95 408.535 343.429 408.903C342.907 409.272 342.476 409.752 342.165 410.31C341.854 410.867 341.673 411.487 341.635 412.124ZM357.47 423.718L348.243 428.21L349.391 417.958C352.442 419.315 355.19 421.277 357.47 423.718Z" fill="#BABABA"/>
<path d="M276.762 287.336L285.283 307.779L285.611 308.415C285.73 308.975 285.982 309.498 286.345 309.941C286.708 310.384 287.171 310.734 287.696 310.962C288.221 311.19 288.793 311.289 289.365 311.251C289.936 311.214 290.49 311.04 290.981 310.745C298.787 306.552 304.651 299.48 307.326 291.032C307.537 290.431 307.611 289.79 307.541 289.157C307.472 288.524 307.261 287.914 306.925 287.373C306.589 286.832 306.135 286.373 305.598 286.031C305.061 285.688 304.453 285.47 303.821 285.394L281.01 281.491C280.286 281.429 279.559 281.556 278.898 281.858C278.237 282.161 277.666 282.628 277.239 283.216C276.812 283.804 276.543 284.492 276.46 285.213C276.376 285.935 276.481 286.666 276.762 287.336ZM297.546 292.791C296.014 295.761 293.9 298.391 291.329 300.527L287.38 291.052L297.546 292.791Z" fill="#BABABA"/>
<path d="M318.165 357.068C321.31 359.424 324.966 361.005 328.836 361.682C332.707 362.359 336.682 362.113 340.44 360.965C345.558 359.38 343.81 351.191 338.653 352.786C335.969 353.676 333.107 353.89 330.32 353.408C327.534 352.926 324.909 351.762 322.681 350.021C318.378 346.782 313.878 353.845 318.165 357.068Z" fill="#BABABA"/>
<path d="M260.658 327.423C258.714 332.443 266.716 334.923 268.656 329.908C269.46 327.831 272.304 328.183 273.805 329.097C275.962 330.736 277.504 333.053 278.185 335.675C279.287 340.456 280.801 345.134 282.709 349.655C283.566 351.567 284.822 353.274 286.394 354.661C287.966 356.047 289.816 357.08 291.821 357.691C293.826 358.301 295.938 358.475 298.016 358.2C300.094 357.926 302.088 357.209 303.866 356.098C308.272 353.103 304.509 345.615 300.062 348.642C294.526 352.405 290.439 347.698 288.704 342.442C287.574 336.803 285.567 331.376 282.756 326.359C281.614 324.379 279.948 322.752 277.942 321.656C275.936 320.56 273.666 320.039 271.383 320.149C269.099 320.259 266.89 320.996 264.998 322.279C263.107 323.562 261.605 325.342 260.658 327.423Z" fill="#BABABA"/>
<path d="M303.785 325.588C300.099 329.48 305.673 335.734 309.377 331.82L326.447 313.806C330.133 309.915 324.559 303.661 320.855 307.574L303.785 325.588Z" fill="#BABABA"/>
<path d="M246.089 353.282L239.808 371.728C239.581 372.813 239.79 373.943 240.39 374.874C240.99 375.806 241.933 376.463 243.014 376.705C244.097 376.913 245.218 376.696 246.145 376.099C247.072 375.502 247.733 374.57 247.991 373.498L254.276 355.053C254.503 353.969 254.294 352.838 253.694 351.907C253.093 350.975 252.151 350.318 251.069 350.076C249.986 349.867 248.864 350.084 247.936 350.681C247.009 351.278 246.347 352.21 246.089 353.282Z" fill="#BABABA"/>
<path d="M309.327 234.13C312.04 234.775 307.82 241.294 307.184 242.913C305.901 245.872 305.834 249.216 306.997 252.224C309.767 258.841 316.746 260.504 323.051 261.938C325.597 262.517 330.328 263.452 331.057 266.577C331.728 269.453 328.367 273.039 327.358 275.6C326.663 276.967 326.305 278.48 326.313 280.014C326.321 281.547 326.696 283.056 327.406 284.415C328.115 285.775 329.14 286.945 330.393 287.828C331.646 288.711 333.093 289.282 334.612 289.493C339.961 290.125 340.292 281.757 334.957 281.126C333.666 280.973 337.915 273.345 338.213 272.657C339.554 269.889 339.802 266.716 338.906 263.773C337.562 260.938 335.492 258.509 332.906 256.731C330.32 254.954 327.309 253.893 324.181 253.655C321.304 253.024 316.98 252.565 315.174 249.839C313.248 246.931 316.374 243.356 317.45 240.644C318.166 239.344 318.588 237.902 318.686 236.42C318.785 234.939 318.557 233.454 318.019 232.07C317.481 230.687 316.646 229.438 315.573 228.412C314.5 227.386 313.215 226.607 311.808 226.132C306.601 224.893 304.064 232.877 309.327 234.13Z" fill="#BABABA"/>
<path d="M364.492 349.43L406.719 346.94C412.09 346.623 410.866 338.337 405.507 338.653L363.28 341.143C357.912 341.46 359.136 349.746 364.492 349.43Z" fill="#BABABA"/>
<path d="M369.212 373.608C370.562 373.802 371.86 374.262 373.031 374.961C374.202 375.66 375.223 376.584 376.035 377.68C376.847 378.776 377.433 380.023 377.76 381.347C378.087 382.671 378.148 384.047 377.939 385.395C377.731 386.742 377.257 388.036 376.546 389.199C375.835 390.363 374.9 391.374 373.795 392.174C372.69 392.974 371.438 393.547 370.11 393.859C368.783 394.172 367.406 394.218 366.061 393.996C360.76 393.28 358.808 401.428 364.146 402.149C366.564 402.627 369.052 402.622 371.467 402.134C373.882 401.646 376.177 400.686 378.219 399.307C380.262 397.928 382.011 396.159 383.366 394.101C384.722 392.044 385.657 389.738 386.117 387.317C386.578 384.897 386.555 382.409 386.049 379.997C385.544 377.586 384.566 375.298 383.173 373.266C381.779 371.233 379.998 369.497 377.93 368.157C375.862 366.816 373.55 365.898 371.126 365.455C370.071 365.269 368.984 365.494 368.089 366.084C367.195 366.674 366.559 367.583 366.315 368.627C366.07 369.67 366.233 370.768 366.772 371.694C367.311 372.62 368.184 373.305 369.212 373.608Z" fill="#BABABA"/>
<path d="M311.814 459.126C310.944 458.934 310.037 459.012 309.212 459.349C308.388 459.686 307.686 460.266 307.2 461.013C306.714 461.759 306.467 462.635 306.491 463.525C306.516 464.416 306.812 465.277 307.338 465.995H318.233C317.98 464.337 317.231 462.794 316.086 461.568C314.94 460.342 313.451 459.491 311.814 459.126Z" fill="#BABABA"/>
<path d="M222.06 29.415C222.424 31.0014 222.299 32.6608 221.701 34.1747C221.103 35.6885 220.061 36.9858 218.712 37.8956C217.362 38.8055 215.769 39.2852 214.141 39.2717C212.514 39.2581 210.928 38.7519 209.594 37.8198C204.458 34.8448 200.306 29.525 193.974 29.0795C191.387 28.9592 188.826 29.6371 186.638 31.0214C184.449 32.4056 182.739 34.4292 181.74 36.8179C180.446 41.6853 178.663 46.4091 176.418 50.9171C173.342 54.8464 168.729 51.3542 165.638 49.247C161.793 45.9609 157.2 43.6697 152.262 42.5748C149.325 42.3699 146.4 43.1097 143.915 44.6859C141.429 46.2622 139.512 48.5923 138.446 51.3356C136.845 54.674 136.258 58.3059 134.921 61.7375C134.284 63.3741 133.336 65.5904 131.534 66.2493C130.929 66.4711 128.95 66.7927 128.674 65.8532C127.161 60.7058 118.973 62.4598 120.494 67.6408C121.206 70.0913 122.824 72.1789 125.02 73.4787C127.216 74.7786 129.824 75.1932 132.315 74.6382C135.181 73.8203 137.759 72.2138 139.756 70.0018C141.753 67.7898 143.089 65.0613 143.611 62.1271C145.051 57.4988 146.603 48.8033 153.295 51.4148C157.372 53.6438 161.316 56.1065 165.109 58.7906C167.022 59.9723 169.191 60.6758 171.433 60.8413C173.676 61.0068 175.925 60.6296 177.991 59.7416C180.056 58.8535 181.877 57.4808 183.3 55.7397C184.722 53.9985 185.704 51.9402 186.163 49.739C187.333 46.3932 187.95 39.2075 191.73 37.6604C196.035 35.8952 202.168 43.2253 205.581 45.1564C208.332 46.8233 211.51 47.6488 214.724 47.5312C217.939 47.4136 221.048 46.358 223.67 44.4946C226.291 42.6311 228.31 40.0413 229.478 37.0443C230.646 34.0474 230.911 30.7742 230.241 27.6284C229.97 26.5782 229.303 25.6738 228.38 25.1052C227.457 24.5366 226.349 24.3481 225.289 24.5795C224.23 24.8109 223.302 25.4441 222.699 26.3459C222.097 27.2477 221.868 28.3478 222.06 29.415Z" fill="#BABABA"/>
<path d="M158.189 31.3679C159.939 32.4071 162.025 32.7258 164.006 32.2569C165.988 31.788 167.709 30.5681 168.808 28.8545C169.908 27.1408 170.298 25.0673 169.898 23.0711C169.498 21.0749 168.339 19.312 166.664 18.1541C164.914 17.115 162.828 16.7962 160.847 17.2651C158.865 17.734 157.144 18.9539 156.045 20.6676C154.945 22.3812 154.555 24.4548 154.955 26.451C155.355 28.4472 156.514 30.2101 158.189 31.3679Z" fill="#BABABA"/>
<path d="M187.269 73.6582C194.422 84.3864 212.073 111.011 219.226 121.739C222.222 126.232 228.911 121.194 225.927 116.72C218.774 105.991 201.123 79.3676 193.97 68.6384C190.975 64.1462 184.287 69.1846 187.269 73.6582Z" fill="#BABABA"/>
<path d="M158.161 85.759C159.885 85.5734 161.626 85.8809 163.182 86.646C164.737 87.4111 166.044 88.6021 166.95 90.0807C169.732 94.6866 177.078 90.6679 174.284 86.0433C172.663 83.2718 170.312 80.9988 167.488 79.472C164.663 77.9452 161.474 77.2233 158.267 77.3851C152.931 77.7243 152.761 86.102 158.161 85.759Z" fill="#BABABA"/>
<path d="M225.136 62.632L222.564 85.6262C222.544 86.3531 222.713 87.0729 223.053 87.7157C223.393 88.3584 223.893 88.9025 224.505 89.2951C225.118 89.6877 225.821 89.9155 226.547 89.9566C227.273 89.9976 227.997 89.8505 228.65 89.5294L248.565 79.8366L249.177 79.4731C249.729 79.3208 250.237 79.0389 250.658 78.6507C251.079 78.2625 251.401 77.7794 251.598 77.2415C251.795 76.7036 251.86 76.1266 251.789 75.5583C251.718 74.99 251.512 74.447 251.188 73.9744C246.548 66.4257 239.149 60.9828 230.561 58.8015C229.949 58.6258 229.304 58.5899 228.676 58.6963C228.048 58.8027 227.451 59.0488 226.931 59.4163C226.41 59.7839 225.978 60.2637 225.668 60.8202C225.357 61.3768 225.176 61.9959 225.136 62.632ZM240.971 74.2251L231.744 78.7173L232.891 68.4654C235.943 69.8232 238.69 71.785 240.971 74.2251Z" fill="#BABABA"/>
<path d="M201.674 7.57153C204.819 9.92726 208.475 11.5079 212.345 12.185C216.215 12.862 220.191 12.6165 223.949 11.4682C229.071 9.88567 227.32 1.69343 222.167 3.28808C219.483 4.17918 216.62 4.3931 213.833 3.91084C211.047 3.42857 208.422 2.26505 206.194 0.523781L205.302 0H202.538C201.847 0.325542 201.252 0.822071 200.807 1.44249C200.362 2.06292 200.083 2.78667 199.997 3.54509C199.91 4.30352 200.019 5.07149 200.312 5.77615C200.606 6.48081 201.074 7.09881 201.674 7.57153Z" fill="#BABABA"/>
<path d="M166.22 0.152847C167.076 2.06574 168.332 3.77286 169.904 5.15917C171.476 6.54549 173.327 7.57878 175.331 8.18943C177.336 8.80007 179.449 8.97387 181.526 8.69911C183.604 8.42436 185.599 7.70744 187.376 6.59666C187.886 6.23848 188.318 5.78154 188.648 5.25298C188.978 4.72441 189.198 4.13499 189.295 3.5197C189.393 2.90442 189.366 2.27581 189.216 1.67118C189.066 1.06656 188.796 0.498257 188.422 0L181.953 0C181.253 0.314909 180.494 0.477741 179.727 0.477741C178.959 0.477741 178.201 0.314909 177.501 0L166.144 0L166.22 0.152847Z" fill="#BABABA"/>
<path d="M129.589 3.78458L123.309 22.2297C123.082 23.3143 123.291 24.4445 123.891 25.3759C124.491 26.3073 125.434 26.9649 126.516 27.2065C127.598 27.4143 128.719 27.1971 129.646 26.6001C130.572 26.0031 131.233 25.0721 131.491 24.0005L137.773 5.55444C138 4.4699 137.79 3.33977 137.19 2.40844C136.59 1.4771 135.647 0.819412 134.566 0.577591C133.483 0.369605 132.362 0.586791 131.435 1.18402C130.508 1.78125 129.847 2.71261 129.589 3.78458Z" fill="#BABABA"/>
<path d="M252.713 24.1076C255.357 24.6535 257.706 26.159 259.306 28.3338C260.907 30.5087 261.646 33.1989 261.38 35.8861C260.834 38.5344 259.32 40.884 257.135 42.4758C254.949 44.0676 252.248 44.7872 249.56 44.494C244.26 43.7792 242.309 51.9267 247.647 52.6471C252.497 53.3999 257.451 52.2865 261.513 49.5313C265.574 46.7761 268.44 42.5838 269.532 37.7995C270.279 32.9463 269.155 27.9905 266.386 23.935C263.618 19.8794 259.412 17.0269 254.62 15.9545C253.567 15.7727 252.483 16.0004 251.591 16.591C250.7 17.1816 250.068 18.0905 249.824 19.1319C249.58 20.1732 249.744 21.2683 250.281 22.1931C250.818 23.118 251.688 23.8028 252.713 24.1076Z" fill="#BABABA"/>
<path d="M222.06 262.414C222.424 264 222.299 265.659 221.701 267.173C221.103 268.687 220.06 269.984 218.711 270.894C217.362 271.803 215.768 272.283 214.141 272.269C212.513 272.256 210.928 271.75 209.594 270.818C204.458 267.844 200.306 262.523 193.974 262.078C191.387 261.958 188.826 262.635 186.637 264.019C184.449 265.402 182.738 267.425 181.738 269.814C180.445 274.682 178.662 279.406 176.416 283.914C173.34 287.843 168.727 284.35 165.637 282.244C161.792 278.958 157.199 276.667 152.261 275.571C149.325 275.366 146.4 276.106 143.915 277.682C141.429 279.258 139.512 281.588 138.446 284.332C136.845 287.675 136.257 291.306 134.921 294.738C134.284 296.375 133.336 298.59 131.534 299.25C130.929 299.472 128.95 299.792 128.674 298.854C127.161 293.706 118.973 295.46 120.494 300.641C121.206 303.091 122.824 305.179 125.02 306.479C127.216 307.779 129.824 308.193 132.315 307.638C135.181 306.82 137.759 305.214 139.756 303.002C141.753 300.79 143.089 298.062 143.611 295.128C145.051 290.499 146.606 281.8 153.295 284.415C157.372 286.644 161.317 289.107 165.109 291.791C167.022 292.973 169.191 293.676 171.433 293.842C173.676 294.007 175.925 293.63 177.991 292.742C180.056 291.854 181.877 290.481 183.3 288.74C184.722 286.999 185.704 284.941 186.163 282.74C187.333 279.394 187.95 272.208 191.73 270.661C196.035 268.896 202.168 276.225 205.581 278.157C208.332 279.824 211.51 280.65 214.725 280.532C217.939 280.414 221.049 279.359 223.671 277.495C226.293 275.631 228.312 273.041 229.479 270.044C230.646 267.047 230.911 263.773 230.241 260.627C229.97 259.577 229.303 258.673 228.38 258.104C227.457 257.535 226.349 257.347 225.289 257.578C224.23 257.81 223.302 258.443 222.699 259.345C222.097 260.246 221.868 261.347 222.06 262.414Z" fill="#BABABA"/>
<path d="M158.189 264.367C159.939 265.406 162.025 265.724 164.006 265.256C165.988 264.787 167.709 263.567 168.808 261.853C169.908 260.139 170.298 258.066 169.898 256.07C169.498 254.074 168.339 252.311 166.664 251.153C164.914 250.114 162.828 249.795 160.847 250.264C158.865 250.733 157.144 251.953 156.045 253.666C154.945 255.38 154.555 257.453 154.955 259.45C155.355 261.446 156.514 263.209 158.189 264.367Z" fill="#BABABA"/>
<path d="M164.657 138.793C164.406 140.814 164.95 142.855 166.175 144.483C167.4 146.111 169.21 147.199 171.222 147.518C173.234 147.837 175.292 147.361 176.96 146.192C178.628 145.022 179.776 143.25 180.163 141.249C180.414 139.227 179.869 137.187 178.645 135.559C177.42 133.931 175.61 132.843 173.598 132.524C171.585 132.205 169.528 132.681 167.86 133.85C166.191 135.02 165.043 136.792 164.657 138.793Z" fill="#BABABA"/>
<path d="M226.37 213.33C228.121 214.369 230.207 214.688 232.188 214.219C234.169 213.75 235.891 212.53 236.99 210.817C238.089 209.103 238.48 207.029 238.08 205.033C237.68 203.037 236.52 201.274 234.846 200.116C233.095 199.077 231.009 198.758 229.028 199.227C227.047 199.696 225.325 200.916 224.226 202.63C223.127 204.343 222.736 206.417 223.136 208.413C223.536 210.409 224.696 212.172 226.37 213.33Z" fill="#BABABA"/>
<path d="M187.269 306.656C194.422 317.385 212.073 344.009 219.226 354.738C222.222 359.23 228.911 354.192 225.927 349.719C218.774 338.99 201.123 312.366 193.97 301.637C190.975 297.145 184.287 302.182 187.269 306.656Z" fill="#BABABA"/>
<path d="M158.16 318.758C159.885 318.571 161.627 318.878 163.184 319.643C164.74 320.408 166.048 321.599 166.954 323.079C169.736 327.685 177.082 323.667 174.289 319.042C172.667 316.271 170.316 313.998 167.492 312.471C164.667 310.944 161.478 310.222 158.271 310.384C152.93 310.723 152.76 319.101 158.16 318.758Z" fill="#BABABA"/>
<path d="M225.136 295.625L222.564 318.619C222.544 319.346 222.713 320.066 223.053 320.709C223.393 321.352 223.893 321.896 224.505 322.288C225.118 322.681 225.821 322.909 226.547 322.95C227.273 322.991 227.997 322.844 228.65 322.523L248.565 312.83L249.181 312.465C249.733 312.313 250.24 312.031 250.662 311.643C251.083 311.255 251.405 310.772 251.602 310.234C251.799 309.696 251.864 309.119 251.793 308.551C251.721 307.982 251.515 307.439 251.192 306.967C246.553 299.417 239.153 293.972 230.565 291.79C229.952 291.613 229.307 291.577 228.677 291.683C228.048 291.79 227.451 292.036 226.93 292.404C226.408 292.772 225.977 293.253 225.666 293.81C225.356 294.368 225.175 294.988 225.136 295.625ZM240.971 307.218L231.744 311.711L232.891 301.459C235.943 302.816 238.691 304.778 240.971 307.218Z" fill="#BABABA"/>
<path d="M160.263 170.836L168.783 191.279L169.111 191.916C169.231 192.475 169.483 192.999 169.845 193.441C170.208 193.884 170.671 194.234 171.197 194.462C171.722 194.69 172.294 194.789 172.865 194.752C173.436 194.714 173.99 194.54 174.481 194.246C182.287 190.052 188.151 182.981 190.826 174.533C191.038 173.932 191.111 173.291 191.042 172.658C190.972 172.024 190.762 171.415 190.425 170.874C190.089 170.333 189.635 169.874 189.098 169.531C188.561 169.189 187.954 168.971 187.321 168.894L164.511 164.991C163.787 164.93 163.059 165.057 162.399 165.359C161.738 165.661 161.167 166.129 160.739 166.716C160.312 167.304 160.044 167.992 159.961 168.714C159.877 169.435 159.981 170.166 160.263 170.836ZM181.046 176.291C179.514 179.26 177.4 181.891 174.83 184.026L170.88 174.551L181.046 176.291Z" fill="#BABABA"/>
<path d="M201.666 240.57C204.811 242.925 208.467 244.506 212.337 245.183C216.208 245.86 220.183 245.614 223.941 244.465C229.058 242.881 227.311 234.692 222.154 236.286C219.47 237.177 216.607 237.391 213.821 236.909C211.034 236.427 208.41 235.263 206.181 233.522C201.878 230.282 197.379 237.346 201.666 240.57Z" fill="#BABABA"/>
<path d="M144.17 210.922C142.227 215.943 150.228 218.422 152.168 213.407C152.972 211.33 155.816 211.682 157.317 212.596C159.474 214.235 161.016 216.552 161.697 219.175C162.8 223.956 164.313 228.634 166.221 233.155C167.077 235.067 168.334 236.774 169.906 238.161C171.477 239.547 173.328 240.58 175.333 241.191C177.338 241.801 179.45 241.975 181.528 241.7C183.605 241.426 185.6 240.709 187.377 239.598C191.785 236.603 188.021 229.115 183.574 232.142C178.038 235.905 173.952 231.198 172.216 225.942C171.086 220.303 169.079 214.876 166.268 209.859C165.126 207.879 163.46 206.252 161.454 205.156C159.447 204.061 157.178 203.539 154.895 203.649C152.612 203.759 150.403 204.496 148.511 205.779C146.619 207.062 145.117 208.841 144.17 210.922Z" fill="#BABABA"/>
<path d="M187.286 209.09C183.6 212.981 189.173 219.236 192.878 215.322L209.947 197.308C213.633 193.416 208.06 187.161 204.355 191.075L187.286 209.09Z" fill="#BABABA"/>
<path d="M129.589 236.784L123.309 255.229C123.082 256.314 123.291 257.444 123.891 258.375C124.491 259.307 125.434 259.964 126.516 260.206C127.598 260.414 128.719 260.196 129.646 259.599C130.572 259.002 131.233 258.071 131.491 256.999L137.777 238.554C138.003 237.469 137.794 236.339 137.194 235.408C136.594 234.477 135.651 233.819 134.57 233.577C133.486 233.368 132.364 233.585 131.437 234.182C130.509 234.779 129.847 235.711 129.589 236.784Z" fill="#BABABA"/>
<path d="M192.828 117.63C195.541 118.277 191.321 124.794 190.684 126.413C189.402 129.372 189.335 132.717 190.498 135.725C193.268 142.342 200.247 144.005 206.552 145.439C209.099 146.018 213.829 146.953 214.558 150.078C215.229 152.954 211.868 156.54 210.858 159.101C210.164 160.468 209.805 161.981 209.814 163.514C209.822 165.048 210.197 166.557 210.906 167.916C211.616 169.275 212.64 170.445 213.894 171.328C215.147 172.212 216.593 172.783 218.112 172.994C223.463 173.625 223.793 165.258 218.458 164.627C217.166 164.475 221.416 156.846 221.713 156.158C223.055 153.39 223.302 150.217 222.407 147.274C221.063 144.439 218.993 142.009 216.406 140.232C213.82 138.455 210.81 137.394 207.681 137.156C204.805 136.525 200.481 136.066 198.674 133.34C196.749 130.433 199.876 126.857 200.95 124.145C201.667 122.844 202.089 121.403 202.187 119.921C202.286 118.44 202.058 116.955 201.52 115.571C200.982 114.187 200.147 112.938 199.074 111.912C198.001 110.886 196.716 110.108 195.309 109.633C190.103 108.393 187.564 116.378 192.828 117.63Z" fill="#BABABA"/>
<path d="M247.993 232.931L290.219 230.44C295.591 230.123 294.367 221.838 289.008 222.154L246.781 224.644C241.413 224.961 242.636 233.247 247.993 232.931Z" fill="#BABABA"/>
<path d="M252.713 257.109C254.063 257.303 255.361 257.763 256.532 258.462C257.703 259.161 258.724 260.085 259.536 261.181C260.347 262.277 260.934 263.523 261.26 264.847C261.587 266.172 261.648 267.547 261.44 268.895C261.232 270.243 260.758 271.536 260.047 272.7C259.335 273.864 258.4 274.875 257.296 275.675C256.191 276.474 254.939 277.047 253.611 277.36C252.283 277.673 250.907 277.719 249.561 277.497C244.26 276.782 242.309 284.929 247.647 285.65C250.064 286.128 252.552 286.123 254.968 285.635C257.383 285.147 259.678 284.186 261.72 282.808C263.762 281.429 265.512 279.66 266.867 277.602C268.223 275.544 269.158 273.239 269.618 270.818C270.078 268.398 270.055 265.91 269.55 263.498C269.045 261.086 268.067 258.798 266.674 256.766C265.28 254.734 263.498 252.998 261.431 251.657C259.363 250.317 257.051 249.399 254.627 248.956C253.571 248.77 252.485 248.995 251.59 249.584C250.695 250.174 250.06 251.084 249.815 252.128C249.57 253.171 249.734 254.268 250.273 255.195C250.812 256.121 251.685 256.806 252.713 257.109Z" fill="#BABABA"/>
<path d="M164.657 371.791C164.406 373.813 164.95 375.854 166.175 377.482C167.4 379.11 169.21 380.198 171.222 380.517C173.234 380.836 175.292 380.36 176.96 379.19C178.628 378.021 179.776 376.249 180.163 374.248C180.414 372.226 179.869 370.186 178.645 368.558C177.42 366.93 175.61 365.841 173.598 365.523C171.585 365.204 169.528 365.679 167.86 366.849C166.191 368.019 165.043 369.791 164.657 371.791Z" fill="#BABABA"/>
<path d="M226.37 446.329C228.121 447.368 230.207 447.687 232.188 447.218C234.169 446.749 235.891 445.529 236.99 443.815C238.089 442.102 238.48 440.028 238.08 438.032C237.68 436.036 236.52 434.273 234.846 433.115C233.095 432.076 231.009 431.757 229.028 432.226C227.047 432.695 225.325 433.915 224.226 435.628C223.127 437.342 222.736 439.415 223.136 441.412C223.536 443.408 224.696 445.171 226.37 446.329Z" fill="#BABABA"/>
<path d="M160.263 403.835L168.783 424.278L169.111 424.914C169.231 425.474 169.483 425.997 169.846 426.44C170.208 426.883 170.672 427.233 171.197 427.461C171.722 427.689 172.294 427.788 172.865 427.751C173.437 427.713 173.991 427.539 174.481 427.244C182.288 423.051 188.151 415.979 190.827 407.532C191.038 406.931 191.112 406.29 191.042 405.656C190.973 405.023 190.762 404.413 190.426 403.872C190.089 403.331 189.636 402.873 189.098 402.53C188.561 402.187 187.954 401.97 187.322 401.893L164.511 397.99C163.787 397.929 163.059 398.055 162.399 398.358C161.738 398.66 161.166 399.128 160.739 399.715C160.312 400.303 160.044 400.991 159.96 401.713C159.877 402.435 159.981 403.166 160.263 403.835ZM181.046 409.29C179.514 412.26 177.4 414.89 174.83 417.026L170.88 407.551L181.046 409.29Z" fill="#BABABA"/>
<path d="M202.539 465.992H205.303C204.87 465.793 204.398 465.69 203.921 465.69C203.444 465.69 202.973 465.793 202.539 465.992Z" fill="#BABABA"/>
<path d="M183.564 465.134L181.947 465.997H188.416C188.172 465.601 187.846 465.261 187.462 464.999C187.077 464.737 186.641 464.56 186.183 464.479C185.725 464.397 185.255 464.413 184.803 464.526C184.352 464.639 183.93 464.846 183.564 465.134Z" fill="#BABABA"/>
<path d="M172.213 458.936C171.083 453.298 169.076 447.871 166.265 442.854C165.122 440.874 163.456 439.248 161.45 438.153C159.444 437.059 157.175 436.538 154.892 436.648C152.609 436.758 150.4 437.496 148.509 438.779C146.618 440.062 145.116 441.842 144.17 443.922C142.227 448.943 150.228 451.422 152.168 446.408C152.972 444.33 155.816 444.682 157.317 445.596C159.473 447.235 161.016 449.552 161.697 452.174C162.8 456.896 164.288 461.521 166.146 466H177.502C174.875 464.437 172.973 461.897 172.213 458.936Z" fill="#BABABA"/>
<path d="M187.286 442.087C183.6 445.979 189.173 452.233 192.878 448.319L209.947 430.306C213.633 426.415 208.06 420.16 204.355 424.073L187.286 442.087Z" fill="#BABABA"/>
<path d="M192.828 350.629C195.541 351.275 191.321 357.793 190.684 359.412C189.402 362.371 189.335 365.716 190.498 368.724C193.268 375.341 200.247 377.004 206.552 378.438C209.099 379.017 213.829 379.951 214.558 383.076C215.229 385.953 211.868 389.538 210.858 392.1C210.164 393.467 209.805 394.98 209.814 396.513C209.822 398.047 210.197 399.556 210.906 400.915C211.616 402.274 212.64 403.444 213.894 404.327C215.147 405.21 216.593 405.781 218.112 405.992C223.463 406.623 223.793 398.257 218.458 397.626C217.166 397.473 221.416 389.845 221.713 389.156C223.055 386.388 223.303 383.216 222.407 380.273C221.063 377.438 218.993 375.008 216.406 373.231C213.82 371.454 210.81 370.392 207.681 370.154C204.805 369.523 200.481 369.065 198.674 366.339C196.749 363.431 199.876 359.856 200.95 357.144C201.667 355.843 202.089 354.401 202.187 352.92C202.286 351.439 202.058 349.953 201.52 348.57C200.982 347.186 200.147 345.937 199.074 344.911C198.001 343.885 196.716 343.107 195.309 342.632C190.103 341.392 187.564 349.376 192.828 350.629Z" fill="#BABABA"/>
<path d="M247.993 465.93L290.219 463.44C295.591 463.123 294.367 454.838 289.008 455.153L246.781 457.644C241.413 457.961 242.636 466.246 247.993 465.93Z" fill="#BABABA"/>
<path d="M102.728 5.24433C105.723 9.73748 112.412 4.69912 109.43 0.225543L109.279 0H99.2368L102.728 5.24433Z" fill="#BABABA"/>
<path d="M105.562 145.915C105.925 147.502 105.8 149.161 105.202 150.674C104.604 152.188 103.562 153.485 102.212 154.395C100.863 155.304 99.2697 155.784 97.6424 155.771C96.015 155.758 94.4299 155.252 93.0956 154.32C87.9594 151.345 83.8064 146.025 77.4744 145.58C74.8878 145.459 72.3265 146.136 70.1377 147.52C67.949 148.904 66.2385 150.927 65.2383 153.315C63.9454 158.183 62.1624 162.907 59.9166 167.415C56.841 171.344 52.2276 167.851 49.1381 165.745C45.2927 162.459 40.6997 160.168 35.7621 159.071C32.8258 158.867 29.901 159.606 27.4152 161.183C24.9294 162.759 23.013 165.089 21.9462 167.832C20.346 171.174 19.7588 174.806 18.4223 178.238C17.7848 179.874 16.8379 182.091 15.0345 182.75C14.4297 182.972 12.451 183.292 12.1752 182.354C10.6625 177.206 2.4731 178.96 3.99505 184.141C4.7065 186.592 6.32471 188.679 8.52054 189.979C10.7164 191.279 13.3249 191.694 15.8155 191.139C18.6813 190.321 21.2597 188.714 23.2569 186.502C25.2542 184.29 26.59 181.562 27.1122 178.627C28.5512 173.999 30.104 165.304 36.7966 167.915C40.8733 170.144 44.8179 172.607 48.6106 175.291C50.5233 176.472 52.6926 177.176 54.9348 177.341C57.1769 177.507 59.426 177.129 61.4914 176.241C63.5569 175.353 65.3779 173.981 66.8004 172.24C68.2229 170.499 69.205 168.44 69.6634 166.239C70.834 162.894 71.451 155.708 75.2302 154.161C79.5351 152.396 85.6685 159.726 89.0815 161.657C91.8323 163.324 95.0107 164.149 98.2249 164.032C101.439 163.914 104.549 162.858 107.17 160.995C109.792 159.131 111.811 156.542 112.979 153.545C114.146 150.548 114.411 147.275 113.741 144.129C113.474 143.076 112.808 142.168 111.883 141.597C110.959 141.025 109.849 140.836 108.788 141.068C107.726 141.299 106.796 141.935 106.195 142.839C105.593 143.744 105.366 144.847 105.562 145.915Z" fill="#BABABA"/>
<path d="M41.6952 147.863C43.4459 148.9 45.5306 149.217 47.5103 148.748C49.49 148.278 51.2102 147.058 52.3086 145.346C53.407 143.633 53.7979 141.561 53.399 139.566C53 137.571 51.8424 135.808 50.1698 134.65C48.4192 133.613 46.3345 133.296 44.3548 133.765C42.3751 134.235 40.6549 135.454 39.5565 137.167C38.458 138.88 38.0671 140.952 38.4661 142.947C38.865 144.942 40.0227 146.705 41.6952 147.863Z" fill="#BABABA"/>
<path d="M48.1576 22.2932C47.9064 24.3151 48.4507 26.3554 49.6756 27.9835C50.9006 29.6116 52.7102 30.6999 54.7225 31.0188C56.7349 31.3376 58.7923 30.862 60.4605 29.6923C62.1287 28.5226 63.2771 26.7505 63.6632 24.75C63.9144 22.7281 63.3701 20.6877 62.1452 19.0597C60.9203 17.4316 59.1106 16.3432 57.0983 16.0244C55.086 15.7056 53.0285 16.1812 51.3603 17.3509C49.6921 18.5206 48.5437 20.2927 48.1576 22.2932Z" fill="#BABABA"/>
<path d="M109.869 96.8373C111.62 97.88 113.708 98.2013 115.691 97.7333C117.675 97.2654 119.399 96.0448 120.499 94.3294C121.599 92.614 121.99 90.5382 121.588 88.5403C121.186 86.5424 120.023 84.779 118.345 83.6225C116.594 82.5798 114.506 82.2585 112.523 82.7265C110.54 83.1945 108.816 84.415 107.715 86.1304C106.615 87.8458 106.225 89.9217 106.627 91.9195C107.029 93.9174 108.191 95.6808 109.869 96.8373Z" fill="#BABABA"/>
<path d="M70.7699 190.158C77.923 200.886 95.574 227.509 102.727 238.238C105.723 242.73 112.411 237.693 109.429 233.219C102.276 222.49 84.624 195.867 77.4709 185.138C74.4755 180.646 67.7875 185.684 70.7699 190.158Z" fill="#BABABA"/>
<path d="M41.6611 202.258C43.3856 202.072 45.1277 202.379 46.6845 203.144C48.2412 203.909 49.5486 205.101 50.4544 206.58C53.2364 211.186 60.5824 207.167 57.7892 202.543C56.1681 199.771 53.8171 197.498 50.9926 195.971C48.1682 194.445 44.9786 193.723 41.772 193.884C36.4307 194.224 36.2611 202.601 41.6611 202.258Z" fill="#BABABA"/>
<path d="M108.637 179.127L106.065 202.121C106.045 202.848 106.213 203.568 106.553 204.211C106.893 204.853 107.393 205.397 108.005 205.79C108.618 206.183 109.321 206.411 110.047 206.452C110.773 206.493 111.497 206.345 112.15 206.024L132.064 196.331L132.68 195.966C133.233 195.814 133.74 195.532 134.161 195.144C134.583 194.756 134.905 194.272 135.102 193.735C135.298 193.197 135.364 192.62 135.293 192.051C135.221 191.483 135.015 190.94 134.692 190.467C130.053 182.917 122.654 177.473 114.066 175.291C113.452 175.114 112.807 175.078 112.178 175.184C111.549 175.29 110.951 175.537 110.43 175.905C109.909 176.273 109.477 176.754 109.167 177.312C108.856 177.869 108.675 178.49 108.637 179.127ZM124.471 190.72L115.245 195.212L116.392 184.96C119.444 186.317 122.191 188.279 124.471 190.72Z" fill="#BABABA"/>
<path d="M43.7653 54.3405L52.2856 74.7838L52.6156 75.4204C52.7352 75.9802 52.9868 76.5034 53.3494 76.9465C53.7121 77.3895 54.1753 77.7395 54.7004 77.9674C55.2256 78.1953 55.7976 78.2945 56.3689 78.2568C56.9402 78.219 57.4942 78.0454 57.9848 77.7504C65.792 73.556 71.6558 66.4825 74.3301 58.0331C74.5413 57.4321 74.6149 56.7914 74.5455 56.1581C74.4761 55.5249 74.2655 54.9153 73.9292 54.3743C73.5929 53.8333 73.1395 53.3747 72.6024 53.0322C72.0653 52.6897 71.4582 52.4721 70.8258 52.3954L48.0143 48.4922C47.2898 48.4304 46.5616 48.5567 45.9003 48.8589C45.2389 49.1611 44.6668 49.629 44.2394 50.2173C43.812 50.8056 43.5438 51.4942 43.4607 52.2166C43.3777 52.939 43.4826 53.6706 43.7653 54.3405ZM64.5488 59.7964C63.0163 62.7657 60.9023 65.3963 58.3324 67.532L54.3845 58.0564L64.5488 59.7964Z" fill="#BABABA"/>
<path d="M85.1666 124.07C88.3119 126.427 91.9689 128.008 95.8404 128.685C99.7118 129.362 103.688 129.116 107.447 127.967C112.564 126.382 110.816 118.192 105.659 119.787C102.975 120.678 100.113 120.892 97.326 120.409C94.5394 119.927 91.9152 118.764 89.6868 117.022C85.3791 113.784 80.8794 120.846 85.1666 124.07Z" fill="#BABABA"/>
<path d="M27.6708 94.4238C25.7276 99.4445 33.7288 101.923 35.6683 96.9085C36.4726 94.8311 39.317 95.1834 40.8176 96.0977C42.9743 97.7368 44.5171 100.054 45.1979 102.676C46.3003 107.457 47.8139 112.135 49.7218 116.656C50.5782 118.568 51.8346 120.275 53.4064 121.662C54.9782 123.048 56.8288 124.081 58.8337 124.692C60.8385 125.302 62.9509 125.476 65.0285 125.202C67.1062 124.927 69.1009 124.21 70.8781 123.099C75.2855 120.104 71.5221 112.617 67.0746 115.643C61.5386 119.406 57.4527 114.699 55.7174 109.443C54.5869 103.804 52.5799 98.3777 49.7694 93.3604C48.6273 91.3801 46.9616 89.7527 44.9551 88.6571C42.9487 87.5615 40.6791 87.04 38.3957 87.1499C36.1122 87.2598 33.9032 87.9968 32.0112 89.28C30.1193 90.5632 28.6175 92.3429 27.6708 94.4238Z" fill="#BABABA"/>
<path d="M70.7867 92.5902C67.1007 96.4813 72.6731 102.736 76.3787 98.8225L93.4472 80.8079C97.1333 76.9159 91.5609 70.6622 87.8553 74.5757L70.7867 92.5902Z" fill="#BABABA"/>
<path d="M13.0909 120.284L6.80924 138.729C6.58244 139.813 6.79177 140.944 7.39194 141.875C7.99212 142.806 8.93488 143.464 10.0162 143.706C11.099 143.914 12.2203 143.696 13.1472 143.099C14.074 142.502 14.7351 141.571 14.9931 140.499L21.2738 122.054C21.5004 120.969 21.2909 119.839 20.6908 118.908C20.0906 117.976 19.148 117.319 18.0668 117.077C16.9842 116.869 15.8631 117.086 14.9365 117.683C14.0099 118.281 13.3489 119.212 13.0909 120.284Z" fill="#BABABA"/>
<path d="M76.3288 1.12865C79.0399 1.77545 74.8189 8.29475 74.1852 9.91176C72.9026 12.8707 72.8356 16.2154 73.9988 19.2233C76.7687 25.8405 83.7475 27.5032 90.0533 28.9375C92.5995 29.5172 97.3294 30.4511 98.0592 33.577C98.7293 36.4522 95.3685 40.0385 94.3591 42.5996C93.6642 43.9664 93.306 45.4796 93.3144 47.0129C93.3227 48.5462 93.6973 50.0553 94.407 51.4145C95.1167 52.7737 96.1409 53.9437 97.3943 54.8269C98.6478 55.71 100.094 56.2809 101.613 56.4919C106.963 57.1238 107.298 48.7564 101.96 48.1254C100.666 47.9735 104.915 40.3442 105.212 39.6564C106.554 36.8885 106.802 33.7161 105.906 30.7735C104.562 27.938 102.492 25.5084 99.9055 23.7312C97.3193 21.9541 94.309 20.8928 91.1801 20.6549C88.304 20.023 83.9795 19.5644 82.1733 16.8337C80.2506 13.9315 83.3775 10.3554 84.452 7.64236C85.426 5.21905 85.6961 2.57001 85.2312 0L74.3352 0C74.8687 0.571242 75.5645 0.965165 76.3288 1.12865Z" fill="#BABABA"/>
<path d="M131.494 116.432L173.72 113.941C179.092 113.625 177.867 105.338 172.508 105.654L130.281 108.145C124.913 108.462 126.138 116.748 131.494 116.432Z" fill="#BABABA"/>
<path d="M136.214 140.609C137.556 140.813 138.844 141.279 140.005 141.981C141.167 142.684 142.178 143.608 142.981 144.702C143.784 145.796 144.364 147.037 144.686 148.355C145.009 149.673 145.068 151.042 144.861 152.383C144.654 153.724 144.184 155.011 143.478 156.171C142.773 157.33 141.845 158.338 140.749 159.138C139.653 159.938 138.41 160.514 137.091 160.833C135.772 161.152 134.403 161.207 133.062 160.996C127.761 160.281 125.809 168.429 131.148 169.149C133.559 169.611 136.037 169.594 138.441 169.098C140.846 168.601 143.128 167.636 145.159 166.257C147.19 164.877 148.929 163.111 150.276 161.059C151.624 159.007 152.553 156.709 153.012 154.298C153.471 151.886 153.45 149.408 152.95 147.004C152.45 144.601 151.481 142.32 150.098 140.291C148.716 138.262 146.947 136.526 144.893 135.182C142.839 133.838 140.54 132.911 138.128 132.456C137.072 132.271 135.986 132.496 135.092 133.086C134.198 133.676 133.563 134.586 133.318 135.629C133.073 136.672 133.237 137.769 133.775 138.695C134.314 139.621 135.187 140.306 136.214 140.609Z" fill="#BABABA"/>
<path d="M105.562 378.914C105.926 380.501 105.8 382.16 105.202 383.673C104.604 385.187 103.562 386.484 102.213 387.394C100.863 388.304 99.2697 388.783 97.6423 388.77C96.0149 388.756 94.4297 388.25 93.0956 387.318C87.9594 384.344 83.8064 379.023 77.4744 378.578C74.8879 378.457 72.3268 379.135 70.1381 380.518C67.9494 381.902 66.2389 383.925 65.2383 386.313C63.9456 391.181 62.1626 395.905 59.9166 400.413C56.841 404.343 52.2276 400.85 49.1381 398.743C45.293 395.457 40.6998 393.166 35.7621 392.07C32.8258 391.865 29.901 392.605 27.4152 394.181C24.9294 395.758 23.013 398.088 21.9462 400.831C20.346 404.173 19.7588 407.804 18.4223 411.237C17.7848 412.872 16.8379 415.089 15.0345 415.748C14.4297 415.97 12.451 416.291 12.1752 415.352C10.6625 410.205 2.4731 411.958 3.99505 417.139C4.7065 419.59 6.32471 421.677 8.52054 422.977C10.7164 424.277 13.3249 424.691 15.8155 424.136C18.6812 423.319 21.2596 421.712 23.2568 419.5C25.2541 417.289 26.59 414.56 27.1122 411.626C28.5512 406.998 30.104 398.302 36.7966 400.914C40.8733 403.143 44.8179 405.606 48.6106 408.29C50.5233 409.471 52.6927 410.175 54.935 410.34C57.1773 410.506 59.4265 410.129 61.492 409.24C63.5575 408.352 65.3786 406.979 66.801 405.238C68.2234 403.497 69.2053 401.438 69.6634 399.237C70.834 395.892 71.451 388.706 75.2302 387.16C79.5351 385.394 85.6685 392.724 89.0815 394.656C91.8323 396.322 95.0107 397.148 98.2249 397.03C101.439 396.913 104.549 395.857 107.17 393.994C109.792 392.13 111.811 389.54 112.979 386.543C114.146 383.546 114.411 380.273 113.741 377.128C113.474 376.075 112.808 375.167 111.883 374.595C110.959 374.024 109.849 373.834 108.788 374.066C107.726 374.298 106.796 374.933 106.195 375.838C105.593 376.743 105.366 377.846 105.562 378.914Z" fill="#BABABA"/>
<path d="M41.6952 380.862C43.4459 381.899 45.5306 382.216 47.5103 381.746C49.49 381.277 51.2102 380.057 52.3086 378.344C53.407 376.632 53.7979 374.56 53.399 372.564C53 370.569 51.8424 368.807 50.1698 367.648C48.4192 366.611 46.3345 366.294 44.3548 366.764C42.3751 367.234 40.6549 368.453 39.5565 370.166C38.458 371.879 38.0671 373.951 38.4661 375.946C38.865 377.941 40.0227 379.703 41.6952 380.862Z" fill="#BABABA"/>
<path d="M48.1576 255.292C47.9064 257.314 48.4507 259.354 49.6756 260.982C50.9006 262.61 52.7102 263.699 54.7225 264.017C56.7349 264.336 58.7923 263.861 60.4605 262.691C62.1287 261.521 63.2771 259.749 63.6632 257.749C63.9144 255.727 63.3701 253.686 62.1452 252.058C60.9203 250.43 59.1106 249.342 57.0983 249.023C55.086 248.704 53.0285 249.18 51.3603 250.35C49.6921 251.519 48.5437 253.291 48.1576 255.292Z" fill="#BABABA"/>
<path d="M109.871 329.829C111.622 330.868 113.708 331.187 115.689 330.718C117.67 330.249 119.392 329.029 120.491 327.316C121.59 325.602 121.981 323.529 121.581 321.532C121.181 319.536 120.021 317.773 118.347 316.615C116.596 315.576 114.51 315.258 112.529 315.726C110.548 316.195 108.826 317.415 107.727 319.129C106.628 320.843 106.237 322.916 106.637 324.912C107.037 326.908 108.197 328.671 109.871 329.829Z" fill="#BABABA"/>
<path d="M70.7699 423.155C76.9406 432.411 90.9196 453.488 99.2358 465.992H109.278C102.035 455.125 84.5802 428.793 77.4709 418.137C74.4755 413.644 67.7875 418.682 70.7699 423.155Z" fill="#BABABA"/>
<path d="M41.6616 435.256C43.3854 435.071 45.1264 435.378 46.6822 436.143C48.238 436.908 49.5447 438.099 50.4503 439.578C53.2323 444.185 60.5783 440.165 57.7851 435.541C56.164 432.77 53.813 430.497 50.9885 428.97C48.1641 427.443 44.9745 426.721 41.7679 426.883C36.4313 427.222 36.2616 435.599 41.6616 435.256Z" fill="#BABABA"/>
<path d="M108.637 412.124L106.065 435.119C106.045 435.845 106.213 436.565 106.553 437.208C106.894 437.85 107.394 438.394 108.006 438.787C108.618 439.18 109.321 439.407 110.047 439.449C110.773 439.49 111.497 439.343 112.15 439.022L132.064 429.329L132.68 428.965C133.233 428.812 133.74 428.53 134.161 428.142C134.583 427.754 134.905 427.271 135.102 426.733C135.298 426.195 135.364 425.618 135.293 425.05C135.221 424.482 135.015 423.939 134.692 423.466C130.053 415.916 122.654 410.472 114.066 408.289C113.452 408.113 112.807 408.076 112.178 408.183C111.549 408.289 110.952 408.535 110.43 408.903C109.909 409.272 109.477 409.752 109.167 410.31C108.856 410.867 108.675 411.487 108.637 412.124ZM124.471 423.718L115.245 428.21L116.392 417.958C119.444 419.315 122.191 421.277 124.471 423.718Z" fill="#BABABA"/>
<path d="M43.7652 287.329L52.2855 307.772L52.6145 308.408C52.7342 308.968 52.9858 309.491 53.3484 309.934C53.711 310.377 54.1742 310.727 54.6994 310.955C55.2246 311.183 55.7966 311.282 56.3679 311.244C56.9391 311.206 57.4931 311.033 57.9837 310.738C65.79 306.544 71.6537 299.473 74.3291 291.025C74.5402 290.424 74.6138 289.783 74.5444 289.15C74.475 288.517 74.2645 287.907 73.9282 287.366C73.5919 286.825 73.1385 286.366 72.6014 286.024C72.0643 285.681 71.4572 285.463 70.8248 285.386L48.0142 281.48C47.2897 281.418 46.5615 281.544 45.9001 281.847C45.2388 282.149 44.6668 282.617 44.2394 283.205C43.812 283.794 43.5438 284.482 43.4608 285.205C43.3777 285.927 43.4826 286.659 43.7652 287.329ZM64.5487 292.784C63.0167 295.753 60.9026 298.384 58.3323 300.519L54.3844 291.045L64.5487 292.784Z" fill="#BABABA"/>
<path d="M85.1666 357.068C88.3119 359.425 91.9689 361.006 95.8404 361.683C99.7118 362.36 103.688 362.114 107.447 360.965C112.564 359.38 110.816 351.191 105.659 352.786C102.975 353.676 100.113 353.89 97.3262 353.408C94.5396 352.926 91.9154 351.762 89.6868 350.021C85.3791 346.782 80.8794 353.845 85.1666 357.068Z" fill="#BABABA"/>
<path d="M27.6708 327.423C25.7276 332.443 33.7288 334.922 35.6683 329.908C36.4726 327.831 39.317 328.183 40.8176 329.096C42.9741 330.736 44.5169 333.053 45.1979 335.674C46.3003 340.456 47.8139 345.133 49.7218 349.654C50.5782 351.567 51.8346 353.274 53.4064 354.66C54.9782 356.047 56.8288 357.08 58.8337 357.691C60.8385 358.301 62.9509 358.475 65.0285 358.2C67.1062 357.926 69.1009 357.209 70.8781 356.098C75.2855 353.103 71.5221 345.615 67.0746 348.642C61.5386 352.405 57.4527 347.698 55.7174 342.442C54.5869 336.803 52.5799 331.376 49.7694 326.359C48.6273 324.379 46.9616 322.751 44.9551 321.656C42.9487 320.56 40.6791 320.039 38.3957 320.149C36.1122 320.259 33.9032 320.996 32.0112 322.279C30.1193 323.562 28.6175 325.342 27.6708 327.423Z" fill="#BABABA"/>
<path d="M70.7867 325.588C67.1007 329.48 72.6731 335.734 76.3787 331.82L93.4472 313.806C97.1333 309.915 91.5609 303.661 87.8553 307.574L70.7867 325.588Z" fill="#BABABA"/>
<path d="M13.0907 353.281L6.80907 371.727C6.58252 372.812 6.79196 373.942 7.39209 374.873C7.99223 375.805 8.93483 376.463 10.0161 376.704C11.0989 376.912 12.2202 376.695 13.147 376.098C14.0738 375.501 14.7349 374.569 14.9929 373.497L21.2736 355.052C21.5004 353.968 21.2911 352.837 20.6909 351.906C20.0908 350.975 19.148 350.317 18.0666 350.075C16.9841 349.868 15.8632 350.085 14.9366 350.682C14.01 351.279 13.3489 352.21 13.0907 353.281Z" fill="#BABABA"/>
<path d="M76.3288 234.13C79.0427 234.775 74.8217 241.294 74.1852 242.913C72.9026 245.872 72.8356 249.216 73.9988 252.224C76.7687 258.841 83.7474 260.504 90.0533 261.938C92.5995 262.517 97.3294 263.452 98.0592 266.577C98.7293 269.453 95.3685 273.039 94.3591 275.6C93.6642 276.967 93.306 278.48 93.3144 280.014C93.3227 281.547 93.6973 283.056 94.407 284.415C95.1167 285.775 96.1409 286.945 97.3943 287.828C98.6478 288.711 100.094 289.282 101.613 289.493C106.963 290.125 107.298 281.757 101.96 281.126C100.668 280.973 104.917 273.345 105.214 272.657C106.556 269.889 106.803 266.716 105.907 263.773C104.563 260.938 102.493 258.509 99.9072 256.731C97.321 254.954 94.3108 253.893 91.182 253.655C88.3058 253.024 83.9814 252.565 82.1752 249.839C80.2497 246.931 83.3765 243.356 84.4511 240.644C85.1674 239.344 85.5897 237.902 85.6881 236.42C85.7865 234.939 85.5588 233.454 85.0208 232.07C84.4829 230.686 83.6479 229.437 82.5747 228.411C81.5015 227.385 80.2163 226.607 78.8097 226.132C73.6036 224.893 71.0649 232.877 76.3288 234.13Z" fill="#BABABA"/>
<path d="M131.494 349.43L173.72 346.94C179.092 346.623 177.867 338.337 172.508 338.653L130.281 341.143C124.913 341.46 126.138 349.746 131.494 349.43Z" fill="#BABABA"/>
<path d="M136.214 373.608C137.563 373.803 138.861 374.263 140.031 374.962C141.201 375.662 142.221 376.586 143.032 377.682C143.843 378.778 144.429 380.024 144.755 381.347C145.082 382.671 145.143 384.046 144.934 385.393C144.726 386.741 144.253 388.033 143.542 389.197C142.831 390.36 141.896 391.371 140.792 392.171C139.688 392.97 138.437 393.544 137.11 393.857C135.783 394.17 134.407 394.217 133.062 393.995C127.761 393.28 125.809 401.428 131.148 402.148C133.565 402.627 136.053 402.622 138.468 402.134C140.884 401.646 143.178 400.685 145.221 399.307C147.263 397.928 149.012 396.159 150.368 394.101C151.723 392.043 152.658 389.738 153.119 387.317C153.579 384.896 153.556 382.409 153.051 379.997C152.545 377.585 151.568 375.297 150.174 373.265C148.781 371.233 146.999 369.497 144.931 368.156C142.864 366.816 140.551 365.898 138.128 365.455C137.072 365.269 135.986 365.495 135.092 366.085C134.198 366.674 133.563 367.584 133.318 368.627C133.073 369.67 133.237 370.767 133.775 371.694C134.314 372.62 135.187 373.305 136.214 373.608Z" fill="#BABABA"/>
<path d="M78.815 459.126C77.9453 458.934 77.0379 459.012 76.2136 459.349C75.3893 459.686 74.6873 460.266 74.2011 461.013C73.715 461.759 73.4678 462.635 73.4925 463.525C73.5173 464.416 73.8127 465.277 74.3395 465.995H85.2355C84.9816 464.337 84.2329 462.794 83.0872 461.568C81.9416 460.342 80.4525 459.491 78.815 459.126Z" fill="#BABABA"/>
<path d="M-7.86256 62.6323L-10.4349 85.6264C-10.4545 86.353 -10.2862 87.0723 -9.94629 87.7148C-9.6064 88.3572 -9.1064 88.901 -8.4947 89.2936C-7.883 89.6861 -7.18032 89.9141 -6.45468 89.9555C-5.72903 89.9968 -5.005 89.8501 -4.35266 89.5296L15.5622 79.8369L16.1782 79.4734C16.7305 79.3213 17.2384 79.0394 17.6596 78.6513C18.0809 78.2631 18.4034 77.78 18.6001 77.242C18.7969 76.7041 18.8623 76.1269 18.7908 75.5586C18.7194 74.9902 18.5132 74.4472 18.1895 73.9746C13.5504 66.4258 6.15122 60.9829 -2.43649 58.8018C-3.04917 58.6259 -3.69352 58.5898 -4.32201 58.6962C-4.9505 58.8025 -5.54711 59.0485 -6.06785 59.4161C-6.58859 59.7838 -7.02018 60.2636 -7.3308 60.8202C-7.64141 61.3768 -7.82313 61.9961 -7.86256 62.6323ZM7.97203 74.2207L-1.25471 78.7129L-0.106498 68.461C2.94491 69.8205 5.6921 71.7791 7.97203 74.2207Z" fill="#BABABA"/>
<path d="M19.7143 24.1072C22.3588 24.6531 24.7076 26.1586 26.308 28.3335C27.9084 30.5083 28.6472 33.1986 28.3819 35.8857C27.8355 38.5337 26.3217 40.8829 24.1361 42.4746C21.9506 44.0663 19.2502 44.7861 16.5623 44.4936C11.2611 43.7788 9.31047 51.9263 14.648 52.6467C19.4975 53.3998 24.4522 52.2865 28.5134 49.5312C32.5747 46.7759 35.4404 42.5836 36.5331 37.7991C37.28 32.9459 36.1554 27.9901 33.387 23.9346C30.6186 19.879 26.413 17.0265 21.6212 15.9541C20.5675 15.7729 19.4844 16.001 18.5933 16.5918C17.7022 17.1825 17.0703 18.0913 16.8268 19.1323C16.5833 20.1733 16.7466 21.2681 17.2833 22.1928C17.82 23.1174 18.6896 23.8022 19.7143 24.1072Z" fill="#BABABA"/>
<path d="M-6.63389 213.337C-4.88325 214.374 -2.79855 214.691 -0.818841 214.222C1.16087 213.752 2.88107 212.532 3.97949 210.82C5.07791 209.107 5.46881 207.035 5.06987 205.04C4.67093 203.045 3.51328 201.282 1.84074 200.124C0.0900946 199.087 -1.99461 198.77 -3.97431 199.239C-5.95402 199.709 -7.67423 200.928 -8.77264 202.641C-9.87106 204.354 -10.262 206.426 -9.86302 208.421C-9.46408 210.416 -8.30644 212.179 -6.63389 213.337Z" fill="#BABABA"/>
<path d="M-7.86256 295.631L-10.4349 318.625C-10.4545 319.352 -10.2861 320.072 -9.94594 320.714C-9.60583 321.357 -9.10555 321.901 -8.49353 322.294C-7.88151 322.686 -7.17849 322.914 -6.45255 322.955C-5.72661 322.996 -5.00234 322.849 -4.34987 322.529L15.565 312.836L16.1782 312.472C16.7305 312.32 17.2384 312.038 17.6596 311.65C18.0809 311.262 18.4033 310.779 18.6001 310.241C18.7969 309.703 18.8623 309.126 18.7908 308.558C18.7194 307.989 18.5132 307.446 18.1895 306.974C13.5504 299.425 6.15122 293.982 -2.43649 291.801C-3.04918 291.625 -3.69358 291.588 -4.32214 291.695C-4.95071 291.801 -5.54739 292.047 -6.06818 292.415C-6.58897 292.782 -7.02056 293.262 -7.33113 293.819C-7.6417 294.376 -7.82331 294.995 -7.86256 295.631ZM7.97203 307.224L-1.25472 311.716L-0.106501 301.465C2.94488 302.822 5.69217 304.784 7.97203 307.224Z" fill="#BABABA"/>
<path d="M14.9945 232.931L57.2204 230.44C62.5924 230.123 61.3677 221.838 56.0088 222.154L13.782 224.644C8.41367 224.961 9.63831 233.247 14.9945 232.931Z" fill="#BABABA"/>
<path d="M19.7143 257.109C21.0636 257.304 22.3609 257.764 23.5312 258.463C24.7015 259.162 25.7216 260.087 26.5325 261.183C27.3434 262.279 27.929 263.524 28.2554 264.848C28.5819 266.172 28.6427 267.547 28.4344 268.894C28.2261 270.242 27.7528 271.534 27.0419 272.697C26.3309 273.861 25.3965 274.871 24.2925 275.671C23.1885 276.471 21.9369 277.044 20.6101 277.358C19.2832 277.671 17.9075 277.718 16.5623 277.496C11.2611 276.781 9.31047 284.929 14.648 285.649C17.0652 286.127 19.5532 286.122 21.9685 285.635C24.3838 285.147 26.6787 284.186 28.721 282.807C30.7632 281.429 32.5125 279.659 33.868 277.602C35.2235 275.544 36.1584 273.238 36.6188 270.818C37.0793 268.397 37.0562 265.909 36.5508 263.498C36.0455 261.086 35.0679 258.798 33.6744 256.766C32.2809 254.734 30.4991 252.997 28.4316 251.657C26.364 250.316 24.0517 249.398 21.6277 248.956C20.5725 248.77 19.4864 248.995 18.592 249.585C17.6977 250.175 17.0631 251.085 16.8183 252.128C16.5735 253.171 16.7372 254.268 17.2757 255.194C17.8142 256.121 18.6868 256.805 19.7143 257.109Z" fill="#BABABA"/>
<path d="M-6.63389 446.336C-4.88325 447.373 -2.79855 447.69 -0.818841 447.22C1.16087 446.751 2.88107 445.531 3.97949 443.818C5.07791 442.106 5.46881 440.034 5.06987 438.038C4.67093 436.043 3.51328 434.281 1.84074 433.122C0.0900946 432.085 -1.99461 431.768 -3.97431 432.238C-5.95402 432.708 -7.67423 433.927 -8.77264 435.64C-9.87106 437.353 -10.262 439.425 -9.86302 441.42C-9.46408 443.415 -8.30644 445.177 -6.63389 446.336Z" fill="#BABABA"/>
<path d="M14.9945 465.93L57.2204 463.44C62.5924 463.123 61.3677 454.838 56.0088 455.153L13.782 457.644C8.41367 457.961 9.63831 466.246 14.9945 465.93Z" fill="#BABABA"/>
</g>
</svg>
