<svg xmlns="http://www.w3.org/2000/svg" fill="none" viewBox="0 0 440 466"><g fill="#BABABA" opacity=".3"><path d="M427 29a13 13 0 0 0-12 8l-6 14c-3 4-7 0-10-2-4-3-9-5-14-6a14 14 0 0 0-14 8l-3 11-3 4h-3c-2-5-10-4-9 2a10 10 0 0 0 12 7 16 16 0 0 0 12-13c1-4 3-13 9-11l12 8a14 14 0 0 0 21-9c1-4 2-11 6-12 4-2 10 5 14 7l1 1V36c-4-3-8-6-13-7ZM391 31a8 8 0 0 0 9-13 8 8 0 0 0-9 13ZM420 74l20 29V88l-13-19c-3-5-10 0-7 5ZM391 86a9 9 0 0 1 9 4c3 5 10 1 7-4a18 18 0 0 0-16-9c-5 1-5 9 0 9ZM439 1l-1-1h-2a4 4 0 0 0-1 8l5 3V1h-1ZM399 0a15 15 0 0 0 21 7 5 5 0 0 0 1-7h-6a5 5 0 0 1-5 0h-11ZM363 4l-7 18a4 4 0 0 0 4 5 4 4 0 0 0 4-3l7-18a4 4 0 0 0-3-5 4 4 0 0 0-5 3ZM427 262a13 13 0 0 0-12 8l-6 14c-3 4-7 0-10-2-4-3-9-5-14-6a14 14 0 0 0-14 8l-3 11-3 4h-3c-2-5-10-4-9 2a10 10 0 0 0 12 7 16 16 0 0 0 12-13c1-4 3-13 9-11l12 8a14 14 0 0 0 21-9c1-4 2-11 6-12 4-2 10 5 14 7l1 1v-10c-4-3-8-6-13-7ZM391 264a8 8 0 0 0 9-13 8 8 0 0 0-9 13ZM398 139a8 8 0 0 0 15 2 8 8 0 0 0-15-2ZM420 307l20 29v-15l-13-19c-3-5-10 0-7 5ZM391 319a9 9 0 0 1 9 4c3 5 10 1 7-4a18 18 0 0 0-16-9c-5 1-5 9 0 9ZM393 171l9 20v1a4 4 0 0 0 5 2c8-4 14-11 17-19a4 4 0 0 0-4-6l-22-4a4 4 0 0 0-5 6Zm21 5-6 8-4-9 10 1ZM439 234c-4-4-9 3-4 7l5 3v-10h-1ZM377 211c-2 5 6 7 8 2 1-2 4-1 5 0l5 6 4 14a15 15 0 0 0 21 7c5-3 1-11-3-8-6 4-10-1-12-6-1-6-3-11-6-16a12 12 0 0 0-22 1ZM437 191l-17 18c-3 4 2 10 6 6l14-15v-10a4 4 0 0 0-3 1ZM363 237l-7 18a4 4 0 0 0 4 5 4 4 0 0 0 4-3l7-18a4 4 0 0 0-3-5 4 4 0 0 0-5 3ZM432 133c-2-3 1-6 2-9a10 10 0 0 0-6-14c-5-2-7 6-2 8 3 0-2 7-2 8-2 3-2 7-1 10 3 6 10 8 17 9v1-9c-3-1-7-1-8-4ZM398 372a8 8 0 0 0 15 2 8 8 0 0 0-15-2ZM393 404l9 20v1a4 4 0 0 0 5 2c8-4 14-11 17-19a4 4 0 0 0-4-6l-22-4a4 4 0 0 0-5 6Zm21 5-6 8-4-9 10 1ZM436 466h2a3 3 0 0 0-2 0ZM405 459c-1-6-3-11-6-16a12 12 0 0 0-22 1c-2 5 6 7 8 2 1-2 4-1 5 0l5 6 4 14h11l-5-7ZM417 465l-2 1h6a3 3 0 0 0-4-1ZM437 424l-17 18c-3 4 2 10 6 6l14-15v-10a4 4 0 0 0-3 1ZM432 366c-2-3 1-6 2-9a10 10 0 0 0-6-14c-5-2-7 6-2 8 3 0-2 7-2 8-2 3-2 7-1 10 3 6 10 8 17 9v1-9c-3-1-7-1-8-4ZM336 5c3 5 9 0 6-5h-10l4 5ZM339 146a8 8 0 0 1-13 8c-5-3-9-8-16-8a13 13 0 0 0-12 7l-5 14c-3 4-8 1-11-1-4-4-8-6-13-7a14 14 0 0 0-14 9l-4 10c0 2-1 4-3 5l-3-1c-1-5-10-3-8 2a10 10 0 0 0 12 7 16 16 0 0 0 11-12c2-5 3-14 10-11l12 7a14 14 0 0 0 21-9c1-3 1-10 5-12 5-2 11 6 14 8a16 16 0 0 0 25-18 4 4 0 0 0-8 2ZM275 148a8 8 0 0 0 8-13 8 8 0 0 0-8 13ZM281 22a8 8 0 0 0 16 3 8 8 0 0 0-16-3ZM343 97a8 8 0 0 0 8-13 8 8 0 0 0-8 13ZM304 190l32 48c3 5 9 0 6-5l-32-48c-3-4-9 1-6 5ZM275 202a9 9 0 0 1 8 5c3 4 11 0 8-4a18 18 0 0 0-16-9c-6 0-6 9 0 8ZM342 179l-3 23a4 4 0 0 0 6 4l20-10h1a4 4 0 0 0 2-6c-5-7-12-13-21-15a4 4 0 0 0-5 4Zm15 12-9 4 1-10c3 1 6 3 8 6ZM277 54l8 21h1a4 4 0 0 0 5 3c8-4 14-12 16-20a4 4 0 0 0-3-6l-23-4a4 4 0 0 0-4 6Zm21 6-7 8-4-10 11 2ZM318 124a25 25 0 0 0 22 4c6-2 4-10-1-8a17 17 0 0 1-16-3c-5-3-9 4-5 7ZM261 94c-2 5 6 8 8 3 0-2 3-2 5-1 2 2 4 4 4 7l5 14a15 15 0 0 0 21 6c4-3 1-10-4-7s-10-1-11-7c-1-5-3-11-6-16a12 12 0 0 0-22 1ZM304 93c-4 3 2 10 5 6l17-18c4-4-1-10-5-6l-17 18ZM246 120l-6 19a4 4 0 0 0 3 5 4 4 0 0 0 5-3l6-19a4 4 0 0 0-3-5 4 4 0 0 0-5 3ZM309 1c3 1-1 7-2 9v9c3 7 10 9 16 10 3 1 7 1 8 5 1 2-3 6-4 9a10 10 0 0 0 8 13c5 1 5-7 0-8l3-8c2-3 2-6 1-9a18 18 0 0 0-15-10c-3-1-7-1-9-4s1-7 2-9c1-3 2-5 1-8h-11l2 1ZM364 116l43-2c5 0 4-9-1-8l-43 2c-5 0-4 9 1 8ZM369 141a10 10 0 1 1-3 20c-5-1-7 7-2 8a19 19 0 1 0 7-37 4 4 0 0 0-2 9ZM339 379a8 8 0 0 1-13 8c-5-3-9-8-16-8a13 13 0 0 0-12 7l-5 14c-3 4-8 1-11-1-4-4-8-6-13-7a14 14 0 0 0-14 9l-4 10c0 2-1 4-3 5l-3-1c-1-5-10-3-8 2a10 10 0 0 0 12 7 16 16 0 0 0 11-12c2-5 3-14 10-11l12 7a14 14 0 0 0 21-9c1-3 1-10 5-12 5-2 11 6 14 8a16 16 0 0 0 25-18 4 4 0 0 0-8 2ZM275 381a8 8 0 0 0 8-13 8 8 0 0 0-8 13ZM281 255a8 8 0 0 0 16 3 8 8 0 0 0-16-3ZM343 330a8 8 0 0 0 8-13 8 8 0 0 0-8 13ZM304 423l28 43h10l-32-48c-3-4-9 1-6 5ZM275 435a9 9 0 0 1 8 5c3 4 11 0 8-4a18 18 0 0 0-16-9c-6 0-6 9 0 8ZM342 412l-3 23a4 4 0 0 0 6 4l20-10h1a4 4 0 0 0 2-6c-5-7-12-13-21-15a4 4 0 0 0-5 4Zm15 12-9 4 1-10c3 1 6 3 8 6ZM277 287l8 21h1a4 4 0 0 0 5 3c8-4 14-12 16-20a4 4 0 0 0-3-6l-23-4a4 4 0 0 0-4 6Zm21 6-7 8-4-10 11 2ZM318 357a25 25 0 0 0 22 4c6-2 4-10-1-8a17 17 0 0 1-16-3c-5-3-9 4-5 7ZM261 327c-2 5 6 8 8 3 0-2 3-2 5-1 2 2 4 4 4 7l5 14a15 15 0 0 0 21 6c4-3 1-10-4-7s-10-1-11-7c-1-5-3-11-6-16a12 12 0 0 0-22 1ZM304 326c-4 3 2 10 5 6l17-18c4-4-1-10-5-6l-17 18ZM246 353l-6 19a4 4 0 0 0 3 5 4 4 0 0 0 5-4l6-18a4 4 0 0 0-3-5 4 4 0 0 0-5 3ZM309 234c3 1-1 7-2 9v9c3 7 10 9 16 10 3 1 7 1 8 5 1 2-3 6-4 9a10 10 0 0 0 8 13c5 1 5-7 0-8l3-8c2-3 2-6 1-9a18 18 0 0 0-15-10c-3-1-7-1-9-4s1-7 2-9a10 10 0 0 0-5-15c-5-1-8 7-3 8ZM364 349l43-2c5 0 4-9-1-8l-43 2c-5 0-4 9 1 8ZM369 374a10 10 0 1 1-3 20c-5-1-7 7-2 8a19 19 0 1 0 7-37 4 4 0 0 0-2 9ZM312 459a4 4 0 0 0-5 7h11a8 8 0 0 0-6-7ZM222 29a8 8 0 0 1-12 9c-6-3-10-8-16-9a13 13 0 0 0-12 8l-6 14c-3 4-7 0-10-2-4-3-9-5-14-6a14 14 0 0 0-14 8l-3 11-3 4h-3c-2-5-10-4-9 2a10 10 0 0 0 12 7 16 16 0 0 0 12-13c1-5 3-13 9-11l12 8a14 14 0 0 0 21-9c1-4 2-11 6-12 4-2 10 5 14 7a16 16 0 0 0 24-17 4 4 0 0 0-8 1ZM158 31a8 8 0 0 0 9-13 8 8 0 0 0-9 13ZM187 74l32 48c3 4 10-1 7-5l-32-48c-3-5-10 0-7 5ZM158 86a9 9 0 0 1 9 4c3 5 10 1 7-4a18 18 0 0 0-16-9c-5 1-5 9 0 9ZM225 63l-2 23a4 4 0 0 0 6 4l20-10v-1a4 4 0 0 0 2-5c-4-8-12-13-20-15a4 4 0 0 0-6 4Zm16 11-9 5 1-11 8 6ZM202 8a25 25 0 0 0 22 3c5-1 3-9-2-8a17 17 0 0 1-16-2l-1-1h-2a4 4 0 0 0-1 8ZM166 0a15 15 0 0 0 21 7 5 5 0 0 0 1-7h-6a5 5 0 0 1-4 0h-12ZM130 4l-7 18a4 4 0 0 0 4 5 4 4 0 0 0 4-3l7-18a4 4 0 0 0-3-5 4 4 0 0 0-5 3ZM253 24a11 11 0 0 1 8 12 11 11 0 0 1-11 8c-6 0-8 8-2 9a19 19 0 0 0 22-15 19 19 0 0 0-15-22 4 4 0 0 0-2 8ZM222 262a8 8 0 0 1-12 9c-6-3-10-8-16-9a13 13 0 0 0-12 8l-6 14c-3 4-7 0-10-2-4-3-9-5-14-6a14 14 0 0 0-14 8l-3 11-3 4h-3c-2-5-10-4-9 2a10 10 0 0 0 12 7 16 16 0 0 0 12-13c1-5 3-13 9-11l12 8a14 14 0 0 0 21-9c1-4 2-11 6-12 4-2 10 5 14 7a16 16 0 0 0 24-17 4 4 0 0 0-8 1ZM158 264a8 8 0 0 0 9-13 8 8 0 0 0-9 13ZM165 139a8 8 0 0 0 15 2 8 8 0 0 0-15-2ZM226 213a8 8 0 0 0 9-13 8 8 0 0 0-9 13ZM187 307l32 48c3 4 10-1 7-5l-32-48c-3-5-10 0-7 5ZM158 319a9 9 0 0 1 9 4c3 5 10 1 7-4a18 18 0 0 0-16-9c-5 1-5 9 0 9ZM225 296l-2 23a4 4 0 0 0 6 4l20-10v-1a4 4 0 0 0 2-5c-4-8-12-13-20-15a4 4 0 0 0-6 4Zm16 11-9 5 1-11 8 6ZM160 171l9 20v1a4 4 0 0 0 5 2c8-4 14-11 17-19a4 4 0 0 0-4-6l-22-4a4 4 0 0 0-5 6Zm21 5-6 8-4-9 10 1ZM202 241a25 25 0 0 0 22 3c5-1 3-9-2-8a17 17 0 0 1-16-2c-4-4-9 3-4 7ZM144 211c-2 5 6 7 8 2 1-2 4-1 5 0l5 6 4 14a15 15 0 0 0 21 7c5-3 1-11-3-8-6 4-10-1-12-6-1-6-3-11-6-16a12 12 0 0 0-22 1ZM187 209c-3 4 2 10 6 6l17-18c4-4-2-10-6-6l-17 18ZM130 237l-7 18a4 4 0 0 0 4 5 4 4 0 0 0 4-3l7-18a4 4 0 0 0-3-5 4 4 0 0 0-5 3ZM193 118c3 0-2 7-2 8-2 3-2 7-1 10 3 6 10 8 17 9 2 1 7 2 8 5 0 3-3 7-4 9a10 10 0 0 0 7 14c5 1 6-8 0-8-1-1 3-8 4-9v-9a18 18 0 0 0-14-10c-3 0-8-1-9-4-2-3 1-6 2-9a10 10 0 0 0-6-14c-5-2-7 6-2 8ZM248 233l42-3c6 0 4-8-1-8l-42 3c-6 0-4 8 1 8ZM253 257a10 10 0 1 1-3 20c-6 0-8 8-2 9a19 19 0 1 0 7-37 4 4 0 0 0-2 8ZM165 372a8 8 0 0 0 15 2 8 8 0 0 0-15-2ZM226 446a8 8 0 0 0 9-13 8 8 0 0 0-9 13ZM160 404l9 20v1a4 4 0 0 0 5 2c8-4 14-11 17-19a4 4 0 0 0-4-6l-22-4a4 4 0 0 0-5 6Zm21 5-6 8-4-9 10 1ZM203 466h2a3 3 0 0 0-2 0ZM184 465l-2 1h6a3 3 0 0 0-4-1ZM172 459c-1-6-3-11-6-16a12 12 0 0 0-22 1c-2 5 6 7 8 2 1-2 4-1 5 0l5 6 4 14h12c-3-2-5-4-6-7ZM187 442c-3 4 2 10 6 6l17-18c4-4-2-10-6-6l-17 18ZM193 351c3 0-2 7-2 8-2 3-2 7-1 10 3 6 10 8 17 9 2 1 7 2 8 5 0 3-3 7-4 9a10 10 0 0 0 7 14c5 1 6-8 0-8-1-1 3-8 4-9v-9a18 18 0 0 0-14-10c-3 0-8-1-9-4-2-3 1-6 2-9a10 10 0 0 0-6-14c-5-2-7 6-2 8ZM248 466l42-3c6 0 4-8-1-8l-42 3c-6 0-4 8 1 8ZM103 5c3 5 9 0 6-5H99l4 5ZM106 146a8 8 0 0 1-13 8c-5-3-9-8-16-8a13 13 0 0 0-12 7l-5 14c-3 4-8 1-11-1-4-4-8-6-13-7a14 14 0 0 0-14 9l-4 10c0 2-1 4-3 5l-3-1c-1-5-10-3-8 2a10 10 0 0 0 12 7 16 16 0 0 0 11-12c2-5 3-14 10-11l12 7a14 14 0 0 0 21-9c1-3 1-10 5-12 5-2 11 6 14 8a16 16 0 0 0 25-18 4 4 0 0 0-8 2ZM42 148a8 8 0 0 0 8-13 8 8 0 0 0-8 13ZM48 22a8 8 0 0 0 16 3 8 8 0 0 0-16-3ZM110 97a8 8 0 0 0 8-13 8 8 0 0 0-8 13ZM71 190l32 48c3 5 9 0 6-5l-32-48c-3-4-9 1-6 5ZM42 202a9 9 0 0 1 8 5c3 4 11 0 8-4a18 18 0 0 0-16-9c-6 0-6 9 0 8ZM109 179l-3 23a4 4 0 0 0 6 4l20-10h1a4 4 0 0 0 2-6c-5-7-12-13-21-15a4 4 0 0 0-5 4Zm15 12-9 4 1-10c3 1 6 3 8 6ZM44 54l8 21h1a4 4 0 0 0 5 3c8-4 14-12 16-20a4 4 0 0 0-3-6l-23-4a4 4 0 0 0-4 6Zm21 6-7 8-4-10 11 2ZM85 124a25 25 0 0 0 22 4c6-2 4-10-1-8a17 17 0 0 1-16-3c-5-3-9 4-5 7ZM28 94c-2 5 6 8 8 3 0-2 3-2 5-1 2 2 4 4 4 7l5 14a15 15 0 0 0 21 6c4-3 1-10-4-7s-10-1-11-7c-1-5-3-11-6-16a12 12 0 0 0-22 1ZM71 93c-4 3 2 10 5 6l17-18c4-4-1-10-5-6L71 93ZM13 120l-6 19a4 4 0 0 0 3 5 4 4 0 0 0 5-4l6-18a4 4 0 0 0-3-5 4 4 0 0 0-5 3ZM76 1c3 1-1 7-2 9v9c3 7 10 9 16 10 3 1 7 1 8 5 1 2-3 6-4 9a10 10 0 0 0 8 13c5 1 5-7 0-8l3-8c2-3 2-6 1-9a18 18 0 0 0-15-10c-3-1-7-1-9-4s1-7 2-9c1-3 2-5 1-8H74l2 1ZM131 116l43-2c5 0 4-9-1-8l-43 2c-5 0-4 9 1 8ZM136 141a10 10 0 1 1-3 20c-5-1-7 7-2 8a19 19 0 1 0 7-37 4 4 0 0 0-2 9ZM106 379a8 8 0 0 1-13 8c-5-3-9-8-16-8a13 13 0 0 0-12 7l-5 14c-3 4-8 1-11-1-4-4-8-6-13-7a14 14 0 0 0-14 9l-4 10c0 2-1 4-3 5l-3-1c-1-5-10-3-8 2a10 10 0 0 0 12 7 16 16 0 0 0 11-12c2-5 3-14 10-11l12 7a14 14 0 0 0 21-9c1-3 1-10 5-12 5-2 11 6 14 8a16 16 0 0 0 25-18 4 4 0 0 0-8 2ZM42 381a8 8 0 0 0 8-13 8 8 0 0 0-8 13ZM48 255a8 8 0 0 0 16 3 8 8 0 0 0-16-3ZM110 330a8 8 0 0 0 8-13 8 8 0 0 0-8 13ZM71 423l28 43h10l-32-48c-3-4-9 1-6 5ZM42 435a9 9 0 0 1 8 5c3 4 11 0 8-4a18 18 0 0 0-16-9c-6 0-6 9 0 8ZM109 412l-3 23a4 4 0 0 0 6 4l20-10h1a4 4 0 0 0 2-6c-5-7-12-13-21-15a4 4 0 0 0-5 4Zm15 12-9 4 1-10c3 1 6 3 8 6ZM44 287l8 21h1a4 4 0 0 0 5 3c8-4 14-12 16-20a4 4 0 0 0-3-6l-23-4a4 4 0 0 0-4 6Zm21 6-7 8-4-10 11 2ZM85 357a25 25 0 0 0 22 4c6-2 4-10-1-8a17 17 0 0 1-16-3c-5-3-9 4-5 7ZM28 327c-2 5 6 8 8 3 0-2 3-2 5-1 2 2 4 4 4 7l5 14a15 15 0 0 0 21 6c4-3 1-10-4-7s-10-1-11-7c-1-5-3-11-6-16a12 12 0 0 0-22 1ZM71 326c-4 3 2 10 5 6l17-18c4-4-1-10-5-6l-17 18ZM13 353l-6 19a4 4 0 0 0 3 5 4 4 0 0 0 5-4l6-18a4 4 0 0 0-3-5 4 4 0 0 0-5 3ZM76 234c3 1-1 7-2 9v9c3 7 10 9 16 10 3 1 7 1 8 5 1 2-3 6-4 9a10 10 0 0 0 8 13c5 1 5-7 0-8l3-8c2-3 2-6 1-9a18 18 0 0 0-15-10c-3-1-7-1-9-4s1-7 2-9a10 10 0 0 0-5-15c-5-1-8 7-3 8ZM131 349l43-2c5 0 4-9-1-8l-43 2c-5 0-4 9 1 8ZM136 374a10 10 0 1 1-3 20c-5-1-7 7-2 8a19 19 0 1 0 7-37 4 4 0 0 0-2 9ZM79 459a4 4 0 0 0-5 7h11a8 8 0 0 0-6-7ZM-8 63l-2 23a4 4 0 0 0 6 4l20-10v-1a4 4 0 0 0 2-5C14 66 6 61-2 59a4 4 0 0 0-6 4ZM8 74l-9 5 1-11 8 6ZM20 24a11 11 0 0 1 8 12 11 11 0 0 1-11 8c-6 0-8 8-2 9a19 19 0 0 0 22-15 19 19 0 0 0-15-22 4 4 0 0 0-2 8ZM-7 213a8 8 0 0 0 9-13 8 8 0 0 0-9 13ZM-8 296l-2 23a4 4 0 0 0 6 4l20-10v-1a4 4 0 0 0 2-5c-4-8-12-13-20-15a4 4 0 0 0-6 4Zm16 11-9 5 1-11 8 6ZM15 233l42-3c6 0 4-8-1-8l-42 3c-6 0-4 8 1 8ZM20 257a10 10 0 1 1-3 20c-6 0-8 8-2 9a19 19 0 1 0 7-37 4 4 0 0 0-2 8ZM-7 446a8 8 0 0 0 9-13 8 8 0 0 0-9 13ZM15 466l42-3c6 0 4-8-1-8l-42 3c-6 0-4 8 1 8Z"/></g></svg>