<svg xmlns="http://www.w3.org/2000/svg" fill="none" viewBox="0 0 1362 890"><path fill="#FC8736" d="M978 476c-2-3-7 3-13 6-5-3-10-9-12-6-3 2 3 7 6 12-3 6-9 11-6 13 2 3 7-3 12-6 6 3 11 9 13 6 3-2-3-7-6-13 3-5 9-10 6-12ZM1074 476c-2-3-8 3-13 6-5-3-10-9-13-6-2 2 3 7 7 12-4 6-9 11-7 13 3 3 8-3 13-6 5 3 11 9 13 6 2-2-3-7-6-13 3-5 8-10 6-12ZM1170 476c-3-3-8 3-13 6-5-3-10-9-13-6-2 2 3 7 7 12-4 6-9 11-7 13 3 3 8-3 13-6 5 3 10 9 13 6 2-2-3-7-7-13 4-5 9-10 7-12ZM1266 476c-3-3-8 3-13 6-5-3-11-9-13-6-2 2 3 7 6 12-3 6-8 11-6 13 2 3 8-3 13-6 5 3 10 9 13 6 2-2-4-7-7-13 3-5 9-10 7-12ZM1361 476c-2-3-7 3-12 6-6-3-11-9-13-6-3 2 3 7 6 12-3 6-9 11-6 13 2 3 7-3 13-6 5 3 10 9 12 6 3-2-3-7-6-13 3-5 9-10 6-12ZM978 571c-2-2-7 3-13 7-5-4-10-9-12-7-3 3 3 8 6 13-3 5-9 11-6 13 2 2 7-3 12-6 6 3 11 8 13 6 3-2-3-8-6-13 3-5 9-10 6-13ZM1074 571c-2-2-8 3-13 7-5-4-10-9-13-7-2 3 3 8 7 13-4 5-9 11-7 13 3 2 8-3 13-6 5 3 11 8 13 6s-3-8-6-13c3-5 8-10 6-13ZM1170 571c-3-2-8 3-13 7-5-4-10-9-13-7-2 3 3 8 7 13-4 5-9 11-7 13 3 2 8-3 13-6 5 3 10 8 13 6 2-2-3-8-7-13 4-5 9-10 7-13ZM1266 571c-3-2-8 3-13 7-5-4-11-9-13-7-2 3 3 8 6 13-3 5-8 11-6 13s8-3 13-6c5 3 10 8 13 6 2-2-4-8-7-13 3-5 9-10 7-13ZM1361 571c-2-2-7 3-12 7-6-4-11-9-13-7-3 3 3 8 6 13-3 5-9 11-6 13 2 2 7-3 13-6 5 3 10 8 12 6 3-2-3-8-6-13 3-5 9-10 6-13ZM978 667c-2-2-7 3-13 6-5-3-10-8-12-6-3 3 3 8 6 13-3 5-9 10-6 13 2 2 7-3 12-7 6 4 11 9 13 7 3-3-3-8-6-13 3-5 9-10 6-13ZM1074 667c-2-2-8 3-13 6-5-3-10-8-13-6-2 3 3 8 7 13-4 5-9 10-7 13 3 2 8-3 13-7 5 4 11 9 13 7 2-3-3-8-6-13 3-5 8-10 6-13ZM1170 667c-3-2-8 3-13 6-5-3-10-8-13-6-2 3 3 8 7 13-4 5-9 10-7 13 3 2 8-3 13-7 5 4 10 9 13 7 2-3-3-8-7-13 4-5 9-10 7-13ZM1266 667c-3-2-8 3-13 6-5-3-11-8-13-6-2 3 3 8 6 13-3 5-8 10-6 13 2 2 8-3 13-7 5 4 10 9 13 7 2-3-4-8-7-13 3-5 9-10 7-13ZM1361 667c-2-2-7 3-12 6-6-3-11-8-13-6-3 3 3 8 6 13-3 5-9 10-6 13 2 2 7-3 13-7 5 4 10 9 12 7 3-3-3-8-6-13 3-5 9-10 6-13ZM978 763c-2-3-7 3-13 6-5-3-10-9-12-6-3 2 3 7 6 13-3 5-9 10-6 12 2 3 7-3 12-6 6 3 11 9 13 6 3-2-3-7-6-12 3-6 9-11 6-13ZM1074 763c-2-3-8 3-13 6-5-3-10-9-13-6-2 2 3 7 7 13-4 5-9 10-7 12 3 3 8-3 13-6 5 3 11 9 13 6 2-2-3-7-6-12 3-6 8-11 6-13ZM1170 763c-3-3-8 3-13 6-5-3-10-9-13-6-2 2 3 7 7 13-4 5-9 10-7 12 3 3 8-3 13-6 5 3 10 9 13 6 2-2-3-7-7-12 4-6 9-11 7-13ZM1266 763c-3-3-8 3-13 6-5-3-11-9-13-6-2 2 3 7 6 13-3 5-8 10-6 12 2 3 8-3 13-6 5 3 10 9 13 6 2-2-4-7-7-12 3-6 9-11 7-13ZM1361 763c-2-3-7 3-12 6-6-3-11-9-13-6-3 2 3 7 6 13-3 5-9 10-6 12 2 3 7-3 13-6 5 3 10 9 12 6 3-2-3-7-6-12 3-6 9-11 6-13ZM978 859c-2-3-7 3-13 6-5-3-10-9-12-6-3 2 3 7 6 12-3 6-9 11-6 13 2 3 7-3 12-6 6 3 11 9 13 6 3-2-3-7-6-13 3-5 9-10 6-12ZM1074 859c-2-3-8 3-13 6-5-3-10-9-13-6-2 2 3 7 7 12-4 6-9 11-7 13 3 3 8-3 13-6 5 3 11 9 13 6 2-2-3-7-6-13 3-5 8-10 6-12ZM1170 859c-3-3-8 3-13 6-5-3-10-9-13-6-2 2 3 7 7 12-4 6-9 11-7 13 3 3 8-3 13-6 5 3 10 9 13 6 2-2-3-7-7-13 4-5 9-10 7-12ZM1266 859c-3-3-8 3-13 6-5-3-11-9-13-6-2 2 3 7 6 12-3 6-8 11-6 13 2 3 8-3 13-6 5 3 10 9 13 6 2-2-4-7-7-13 3-5 9-10 7-12ZM1361 859c-2-3-7 3-12 6-6-3-11-9-13-6-3 2 3 7 6 12-3 6-9 11-6 13 2 3 7-3 13-6 5 3 10 9 12 6 3-2-3-7-6-13 3-5 9-10 6-12ZM978 1c-2-3-7 3-13 6-5-3-10-9-12-6-3 2 3 7 6 12-3 6-9 11-6 13 2 3 7-3 12-6 6 3 11 9 13 6 3-2-3-7-6-13 3-5 9-10 6-12ZM1074 1c-2-3-8 3-13 6-5-3-10-9-13-6-2 2 3 7 7 12-4 6-9 11-7 13 3 3 8-3 13-6 5 3 11 9 13 6 2-2-3-7-6-13 3-5 8-10 6-12ZM1170 1c-3-3-8 3-13 6-5-3-10-9-13-6-2 2 3 7 7 12-4 6-9 11-7 13 3 3 8-3 13-6 5 3 10 9 13 6 2-2-3-7-7-13 4-5 9-10 7-12ZM1266 1c-3-3-8 3-13 6-5-3-11-9-13-6-2 2 3 7 6 12-3 6-8 11-6 13 2 3 8-3 13-6 5 3 10 9 13 6 2-2-4-7-7-13 3-5 9-10 7-12ZM1361 1c-2-3-7 3-12 6-6-3-11-9-13-6-3 2 3 7 6 12-3 6-9 11-6 13 2 3 7-3 13-6 5 3 10 9 12 6 3-2-3-7-6-13 3-5 9-10 6-12ZM978 96c-2-2-7 3-13 7-5-4-10-9-12-7-3 3 3 8 6 13-3 5-9 10-6 13 2 2 7-3 12-6 6 3 11 8 13 6 3-3-3-8-6-13 3-5 9-10 6-13ZM1074 96c-2-2-8 3-13 7-5-4-10-9-13-7-2 3 3 8 7 13-4 5-9 10-7 13 3 2 8-3 13-6 5 3 11 8 13 6 2-3-3-8-6-13 3-5 8-10 6-13ZM1170 96c-3-2-8 3-13 7-5-4-10-9-13-7-2 3 3 8 7 13-4 5-9 10-7 13 3 2 8-3 13-6 5 3 10 8 13 6 2-3-3-8-7-13 4-5 9-10 7-13ZM1266 96c-3-2-8 3-13 7-5-4-11-9-13-7-2 3 3 8 6 13-3 5-8 10-6 13 2 2 8-3 13-6 5 3 10 8 13 6 2-3-4-8-7-13 3-5 9-10 7-13ZM1361 96c-2-2-7 3-12 7-6-4-11-9-13-7-3 3 3 8 6 13-3 5-9 10-6 13 2 2 7-3 13-6 5 3 10 8 12 6 3-3-3-8-6-13 3-5 9-10 6-13ZM978 192c-2-2-7 3-13 6-5-3-10-8-12-6-3 3 3 8 6 13-3 5-9 10-6 13 2 2 7-3 12-7 6 4 11 9 13 7 3-3-3-8-6-13 3-5 9-10 6-13ZM1074 192c-2-2-8 3-13 6-5-3-10-8-13-6-2 3 3 8 7 13-4 5-9 10-7 13 3 2 8-3 13-7 5 4 11 9 13 7 2-3-3-8-6-13 3-5 8-10 6-13ZM1170 192c-3-2-8 3-13 6-5-3-10-8-13-6-2 3 3 8 7 13-4 5-9 10-7 13 3 2 8-3 13-7 5 4 10 9 13 7 2-3-3-8-7-13 4-5 9-10 7-13ZM1266 192c-3-2-8 3-13 6-5-3-11-8-13-6-2 3 3 8 6 13-3 5-8 10-6 13 2 2 8-3 13-7 5 4 10 9 13 7 2-3-4-8-7-13 3-5 9-10 7-13ZM1361 192c-2-2-7 3-12 6-6-3-11-8-13-6-3 3 3 8 6 13-3 5-9 10-6 13 2 2 7-3 13-7 5 4 10 9 12 7 3-3-3-8-6-13 3-5 9-10 6-13ZM978 288c-2-3-7 3-13 6-5-3-10-9-12-6-3 2 3 7 6 13-3 5-9 10-6 12 2 3 7-3 12-6 6 3 11 9 13 6 3-2-3-7-6-12 3-6 9-11 6-13ZM1074 288c-2-3-8 3-13 6-5-3-10-9-13-6-2 2 3 7 7 13-4 5-9 10-7 12 3 3 8-3 13-6 5 3 11 9 13 6 2-2-3-7-6-12 3-6 8-11 6-13ZM1170 288c-3-3-8 3-13 6-5-3-10-9-13-6-2 2 3 7 7 13-4 5-9 10-7 12 3 3 8-3 13-6 5 3 10 9 13 6 2-2-3-7-7-12 4-6 9-11 7-13ZM1266 288c-3-3-8 3-13 6-5-3-11-9-13-6-2 2 3 7 6 13-3 5-8 10-6 12 2 3 8-3 13-6 5 3 10 9 13 6 2-2-4-7-7-12 3-6 9-11 7-13ZM1361 288c-2-3-7 3-12 6-6-3-11-9-13-6-3 2 3 7 6 13-3 5-9 10-6 12 2 3 7-3 13-6 5 3 10 9 12 6 3-2-3-7-6-12 3-6 9-11 6-13ZM978 384c-2-3-7 3-13 6-5-3-10-9-12-6-3 2 3 7 6 12-3 6-9 11-6 13 2 3 7-3 12-6 6 3 11 9 13 6 3-2-3-7-6-13 3-5 9-10 6-12ZM1074 384c-2-3-8 3-13 6-5-3-10-9-13-6-2 2 3 7 7 12-4 6-9 11-7 13 3 3 8-3 13-6 5 3 11 9 13 6 2-2-3-7-6-13 3-5 8-10 6-12ZM1170 384c-3-3-8 3-13 6-5-3-10-9-13-6-2 2 3 7 7 12-4 6-9 11-7 13 3 3 8-3 13-6 5 3 10 9 13 6 2-2-3-7-7-13 4-5 9-10 7-12ZM1266 384c-3-3-8 3-13 6-5-3-11-9-13-6-2 2 3 7 6 12-3 6-8 11-6 13 2 3 8-3 13-6 5 3 10 9 13 6 2-2-4-7-7-13 3-5 9-10 7-12ZM1361 384c-2-3-7 3-12 6-6-3-11-9-13-6-3 2 3 7 6 12-3 6-9 11-6 13 2 3 7-3 13-6 5 3 10 9 12 6 3-2-3-7-6-13 3-5 9-10 6-12ZM496 476c-2-3-7 3-12 6-6-3-11-9-13-6-3 2 3 7 6 12-3 6-9 11-6 13 2 3 7-3 13-6 5 3 10 9 12 6 3-2-3-7-6-13 3-5 9-10 6-12ZM592 476c-2-3-7 3-13 6-5-3-10-9-12-6-3 2 3 7 6 12-3 6-9 11-6 13 2 3 7-3 12-6 6 3 11 9 13 6 3-2-3-7-6-13 3-5 9-10 6-12ZM688 476c-3-3-8 3-13 6-5-3-10-9-13-6-2 2 3 7 7 12-4 6-9 11-7 13 3 3 8-3 13-6 5 3 10 9 13 6 2-2-3-7-6-13 3-5 8-10 6-12ZM784 476c-3-3-8 3-13 6-5-3-10-9-13-6-2 2 3 7 6 12-3 6-8 11-6 13 3 3 8-3 13-6 5 3 10 9 13 6 2-2-3-7-7-13 4-5 9-10 7-12ZM880 476c-3-3-8 3-13 6-6-3-11-9-13-6-3 2 3 7 6 12-3 6-9 11-6 13 2 3 7-3 13-6 5 3 10 9 13 6 2-2-4-7-7-13 3-5 9-10 7-12ZM496 571c-2-2-7 3-12 7-6-4-11-9-13-7-3 3 3 8 6 13-3 5-9 11-6 13 2 2 7-3 13-6 5 3 10 8 12 6 3-2-3-8-6-13 3-5 9-10 6-13ZM592 571c-2-2-7 3-13 7-5-4-10-9-12-7-3 3 3 8 6 13-3 5-9 11-6 13 2 2 7-3 12-6 6 3 11 8 13 6 3-2-3-8-6-13 3-5 9-10 6-13ZM688 571c-3-2-8 3-13 7-5-4-10-9-13-7-2 3 3 8 7 13-4 5-9 11-7 13 3 2 8-3 13-6 5 3 10 8 13 6 2-2-3-8-6-13 3-5 8-10 6-13ZM784 571c-3-2-8 3-13 7-5-4-10-9-13-7-2 3 3 8 6 13-3 5-8 11-6 13 3 2 8-3 13-6 5 3 10 8 13 6 2-2-3-8-7-13 4-5 9-10 7-13ZM880 571c-3-2-8 3-13 7-6-4-11-9-13-7-3 3 3 8 6 13-3 5-9 11-6 13 2 2 7-3 13-6 5 3 10 8 13 6 2-2-4-8-7-13 3-5 9-10 7-13ZM496 667c-2-2-7 3-12 6-6-3-11-8-13-6-3 3 3 8 6 13-3 5-9 10-6 13 2 2 7-3 13-7 5 4 10 9 12 7 3-3-3-8-6-13 3-5 9-10 6-13ZM592 667c-2-2-7 3-13 6-5-3-10-8-12-6-3 3 3 8 6 13-3 5-9 10-6 13 2 2 7-3 12-7 6 4 11 9 13 7 3-3-3-8-6-13 3-5 9-10 6-13ZM688 667c-3-2-8 3-13 6-5-3-10-8-13-6-2 3 3 8 7 13-4 5-9 10-7 13 3 2 8-3 13-7 5 4 10 9 13 7 2-3-3-8-6-13 3-5 8-10 6-13ZM784 667c-3-2-8 3-13 6-5-3-10-8-13-6-2 3 3 8 6 13-3 5-8 10-6 13 3 2 8-3 13-7 5 4 10 9 13 7 2-3-3-8-7-13 4-5 9-10 7-13ZM880 667c-3-2-8 3-13 6-6-3-11-8-13-6-3 3 3 8 6 13-3 5-9 10-6 13 2 2 7-3 13-7 5 4 10 9 13 7 2-3-4-8-7-13 3-5 9-10 7-13ZM496 763c-2-3-7 3-12 6-6-3-11-9-13-6-3 2 3 7 6 13-3 5-9 10-6 12 2 3 7-3 13-6 5 3 10 9 12 6 3-2-3-7-6-12 3-6 9-11 6-13ZM592 763c-2-3-7 3-13 6-5-3-10-9-12-6-3 2 3 7 6 13-3 5-9 10-6 12 2 3 7-3 12-6 6 3 11 9 13 6 3-2-3-7-6-12 3-6 9-11 6-13ZM688 763c-3-3-8 3-13 6-5-3-10-9-13-6-2 2 3 7 7 13-4 5-9 10-7 12 3 3 8-3 13-6 5 3 10 9 13 6 2-2-3-7-6-12 3-6 8-11 6-13ZM784 763c-3-3-8 3-13 6-5-3-10-9-13-6-2 2 3 7 6 13-3 5-8 10-6 12 3 3 8-3 13-6 5 3 10 9 13 6 2-2-3-7-7-12 4-6 9-11 7-13ZM880 763c-3-3-8 3-13 6-6-3-11-9-13-6-3 2 3 7 6 13-3 5-9 10-6 12 2 3 7-3 13-6 5 3 10 9 13 6 2-2-4-7-7-12 3-6 9-11 7-13ZM496 859c-2-3-7 3-12 6-6-3-11-9-13-6-3 2 3 7 6 12-3 6-9 11-6 13 2 3 7-3 13-6 5 3 10 9 12 6 3-2-3-7-6-13 3-5 9-10 6-12ZM592 859c-2-3-7 3-13 6-5-3-10-9-12-6-3 2 3 7 6 12-3 6-9 11-6 13 2 3 7-3 12-6 6 3 11 9 13 6 3-2-3-7-6-13 3-5 9-10 6-12ZM688 859c-3-3-8 3-13 6-5-3-10-9-13-6-2 2 3 7 7 12-4 6-9 11-7 13 3 3 8-3 13-6 5 3 10 9 13 6 2-2-3-7-6-13 3-5 8-10 6-12ZM784 859c-3-3-8 3-13 6-5-3-10-9-13-6-2 2 3 7 6 12-3 6-8 11-6 13 3 3 8-3 13-6 5 3 10 9 13 6 2-2-3-7-7-13 4-5 9-10 7-12ZM880 859c-3-3-8 3-13 6-6-3-11-9-13-6-3 2 3 7 6 12-3 6-9 11-6 13 2 3 7-3 13-6 5 3 10 9 13 6 2-2-4-7-7-13 3-5 9-10 7-12ZM26 481c-2-3-7 3-13 6-5-3-10-9-12-6-3 2 3 7 6 13-3 5-9 10-6 12 2 3 7-3 12-6 6 3 11 9 13 6 3-2-3-7-6-12 3-6 9-11 6-13ZM122 481c-2-3-8 3-13 6-5-3-10-9-13-6-2 2 4 7 7 13-3 5-9 10-7 12 3 3 8-3 13-6 5 3 11 9 13 6 2-2-3-7-6-12 3-6 8-11 6-13ZM218 481c-3-3-8 3-13 6-5-3-10-9-13-6-2 2 3 7 7 13-4 5-9 10-7 12 3 3 8-3 13-6 5 3 10 9 13 6 2-2-3-7-7-12 4-6 9-11 7-13ZM314 481c-3-3-8 3-13 6-5-3-11-9-13-6-2 2 3 7 6 13-3 5-8 10-6 12 2 3 8-3 13-6 5 3 10 9 13 6 2-2-3-7-7-12 4-6 9-11 7-13ZM409 481c-2-3-7 3-12 6-6-3-11-9-13-6-3 2 3 7 6 13-3 5-9 10-6 12 2 3 7-3 13-6 5 3 10 9 12 6 3-2-3-7-6-12 3-6 9-11 6-13ZM26 577c-2-3-7 3-13 6-5-3-10-9-12-6-3 2 3 7 6 12-3 6-9 11-6 13 2 3 7-3 12-6 6 3 11 9 13 6 3-2-3-7-6-13 3-5 9-10 6-12ZM122 577c-2-3-8 3-13 6-5-3-10-9-13-6-2 2 4 7 7 12-3 6-9 11-7 13 3 3 8-3 13-6 5 3 11 9 13 6 2-2-3-7-6-13 3-5 8-10 6-12ZM218 577c-3-3-8 3-13 6-5-3-10-9-13-6-2 2 3 7 7 12-4 6-9 11-7 13 3 3 8-3 13-6 5 3 10 9 13 6 2-2-3-7-7-13 4-5 9-10 7-12ZM314 577c-3-3-8 3-13 6-5-3-11-9-13-6-2 2 3 7 6 12-3 6-8 11-6 13 2 3 8-3 13-6 5 3 10 9 13 6 2-2-3-7-7-13 4-5 9-10 7-12ZM409 577c-2-3-7 3-12 6-6-3-11-9-13-6-3 2 3 7 6 12-3 6-9 11-6 13 2 3 7-3 13-6 5 3 10 9 12 6 3-2-3-7-6-13 3-5 9-10 6-12ZM26 672c-2-2-7 3-13 7-5-4-10-9-12-7-3 3 3 8 6 13-3 5-9 10-6 13 2 2 7-3 12-6 6 3 11 8 13 6 3-3-3-8-6-13 3-5 9-10 6-13ZM122 672c-2-2-8 3-13 7-5-4-10-9-13-7-2 3 4 8 7 13-3 5-9 10-7 13 3 2 8-3 13-6 5 3 11 8 13 6 2-3-3-8-6-13 3-5 8-10 6-13ZM218 672c-3-2-8 3-13 7-5-4-10-9-13-7-2 3 3 8 7 13-4 5-9 10-7 13 3 2 8-3 13-6 5 3 10 8 13 6 2-3-3-8-7-13 4-5 9-10 7-13ZM314 672c-3-2-8 3-13 7-5-4-11-9-13-7-2 3 3 8 6 13-3 5-8 10-6 13 2 2 8-3 13-6 5 3 10 8 13 6 2-3-3-8-7-13 4-5 9-10 7-13ZM409 672c-2-2-7 3-12 7-6-4-11-9-13-7-3 3 3 8 6 13-3 5-9 10-6 13 2 2 7-3 13-6 5 3 10 8 12 6 3-3-3-8-6-13 3-5 9-10 6-13ZM26 768c-2-2-7 3-13 6-5-3-10-8-12-6-3 3 3 8 6 13-3 5-9 10-6 13 2 2 7-3 12-7 6 4 11 9 13 7 3-3-3-8-6-13 3-5 9-10 6-13ZM122 768c-2-2-8 3-13 6-5-3-10-8-13-6-2 3 4 8 7 13-3 5-9 10-7 13 3 2 8-3 13-7 5 4 11 9 13 7 2-3-3-8-6-13 3-5 8-10 6-13ZM218 768c-3-2-8 3-13 6-5-3-10-8-13-6-2 3 3 8 7 13-4 5-9 10-7 13 3 2 8-3 13-7 5 4 10 9 13 7 2-3-3-8-7-13 4-5 9-10 7-13ZM314 768c-3-2-8 3-13 6-5-3-11-8-13-6-2 3 3 8 6 13-3 5-8 10-6 13 2 2 8-3 13-7 5 4 10 9 13 7 2-3-3-8-7-13 4-5 9-10 7-13ZM409 768c-2-2-7 3-12 6-6-3-11-8-13-6-3 3 3 8 6 13-3 5-9 10-6 13 2 2 7-3 13-7 5 4 10 9 12 7 3-3-3-8-6-13 3-5 9-10 6-13ZM26 864c-2-3-7 3-13 6-5-3-10-9-12-6-3 2 3 7 6 13-3 5-9 10-6 12 2 3 7-3 12-6 6 3 11 9 13 6 3-2-3-7-6-12 3-6 9-11 6-13ZM122 864c-2-3-8 3-13 6-5-3-10-9-13-6-2 2 4 7 7 13-3 5-9 10-7 12 3 3 8-3 13-6 5 3 11 9 13 6 2-2-3-7-6-12 3-6 8-11 6-13ZM218 864c-3-3-8 3-13 6-5-3-10-9-13-6-2 2 3 7 7 13-4 5-9 10-7 12 3 3 8-3 13-6 5 3 10 9 13 6 2-2-3-7-7-12 4-6 9-11 7-13ZM314 864c-3-3-8 3-13 6-5-3-11-9-13-6-2 2 3 7 6 13-3 5-8 10-6 12 2 3 8-3 13-6 5 3 10 9 13 6 2-2-3-7-7-12 4-6 9-11 7-13ZM409 864c-2-3-7 3-12 6-6-3-11-9-13-6-3 2 3 7 6 13-3 5-9 10-6 12 2 3 7-3 13-6 5 3 10 9 12 6 3-2-3-7-6-12 3-6 9-11 6-13Z"/></svg>