<svg width="1362" height="890" viewBox="0 0 1362 890" fill="none" xmlns="http://www.w3.org/2000/svg">
<path d="M978.159 475.623C975.699 473.164 970.656 478.737 965.366 481.975C960.158 478.737 955.033 473.164 952.572 475.623C950.112 478.082 955.689 483.204 958.928 488.408C955.689 493.694 950.112 498.735 952.572 501.193C955.033 503.652 960.158 498.12 965.366 494.842C970.656 498.12 975.699 503.693 978.159 501.193C980.62 498.694 975.084 493.694 971.804 488.408C975.084 483.204 980.661 478.082 978.159 475.623Z" fill="#B61A6E"/>
<path d="M1073.99 475.623C1071.53 473.164 1066.44 478.737 1061.19 481.975C1055.9 478.737 1050.82 473.164 1048.36 475.623C1045.9 478.082 1051.48 483.204 1054.76 488.408C1051.48 493.694 1045.9 498.735 1048.36 501.193C1050.82 503.652 1055.9 498.12 1061.19 494.842C1066.44 498.12 1071.53 503.652 1073.99 501.193C1076.45 498.735 1070.87 493.694 1067.63 488.408C1070.87 483.204 1076.45 478.082 1073.99 475.623Z" fill="#B61A6E"/>
<path d="M1169.78 475.623C1167.31 473.164 1162.27 478.737 1156.98 481.975C1151.69 478.737 1146.65 473.164 1144.19 475.623C1141.73 478.082 1147.3 483.204 1150.54 488.408C1147.3 493.694 1141.73 498.735 1144.19 501.193C1146.65 503.652 1151.69 498.12 1156.98 494.842C1162.27 498.12 1167.31 503.652 1169.78 501.193C1172.24 498.735 1166.66 493.694 1163.42 488.408C1166.66 483.204 1172.24 478.082 1169.78 475.623Z" fill="#B61A6E"/>
<path d="M1265.6 475.623C1263.14 473.164 1258.06 478.737 1252.77 481.975C1247.52 478.737 1242.44 473.164 1239.98 475.623C1237.52 478.082 1243.09 483.204 1246.33 488.408C1243.09 493.694 1237.52 498.735 1239.98 501.193C1242.44 503.652 1247.52 498.12 1252.77 494.842C1258.06 498.12 1263.14 503.652 1265.6 501.193C1268.06 498.735 1262.49 493.694 1259.21 488.408C1262.49 483.204 1268.06 478.082 1265.6 475.623Z" fill="#B61A6E"/>
<path d="M1361.39 475.623C1358.93 473.164 1353.89 478.737 1348.6 481.975C1343.31 478.737 1338.26 473.164 1335.8 475.623C1333.34 478.082 1338.88 483.204 1342.16 488.408C1338.88 493.694 1333.34 498.735 1335.8 501.193C1338.26 503.652 1343.31 498.12 1348.6 494.842C1353.81 498.12 1358.93 503.693 1361.39 501.193C1363.85 498.694 1358.27 493.694 1355.04 488.408C1358.27 483.204 1363.85 478.082 1361.39 475.623Z" fill="#B61A6E"/>
<path d="M978.16 571.347C975.7 568.889 970.656 574.462 965.366 577.74C960.159 574.462 955.033 568.889 952.573 571.347C950.113 573.806 955.689 578.887 958.929 584.173C955.689 589.418 950.113 594.5 952.573 596.958C955.033 599.417 960.159 593.844 965.366 590.607C970.656 593.844 975.7 599.417 978.16 596.958C980.62 594.5 975.085 589.418 971.804 584.173C975.085 578.887 980.661 573.806 978.16 571.347Z" fill="#B61A6E"/>
<path d="M1073.99 571.347C1071.53 568.889 1066.44 574.462 1061.19 577.74C1055.9 574.462 1050.82 568.889 1048.36 571.347C1045.9 573.806 1051.48 578.887 1054.76 584.173C1051.48 589.418 1045.9 594.5 1048.36 596.958C1050.82 599.417 1055.9 593.844 1061.19 590.607C1066.44 593.844 1071.53 599.417 1073.99 596.958C1076.45 594.5 1070.87 589.418 1067.63 584.173C1070.87 578.887 1076.45 573.806 1073.99 571.347Z" fill="#B61A6E"/>
<path d="M1169.78 571.347C1167.31 568.889 1162.27 574.462 1156.98 577.74C1151.69 574.462 1146.65 568.889 1144.19 571.347C1141.73 573.806 1147.3 578.887 1150.54 584.173C1147.3 589.418 1141.73 594.5 1144.19 596.958C1146.65 599.417 1151.69 593.844 1156.98 590.607C1162.27 593.844 1167.31 599.417 1169.78 596.958C1172.24 594.5 1166.66 589.418 1163.42 584.173C1166.66 578.887 1172.24 573.806 1169.78 571.347Z" fill="#B61A6E"/>
<path d="M1265.6 571.347C1263.14 568.889 1258.06 574.462 1252.77 577.74C1247.52 574.462 1242.44 568.889 1239.98 571.347C1237.51 573.806 1243.09 578.887 1246.33 584.173C1243.09 589.418 1237.51 594.5 1239.98 596.958C1242.44 599.417 1247.52 593.844 1252.77 590.607C1258.06 593.844 1263.14 599.417 1265.6 596.958C1268.06 594.5 1262.49 589.418 1259.21 584.173C1262.49 578.887 1268.06 573.806 1265.6 571.347Z" fill="#B61A6E"/>
<path d="M1361.39 571.347C1358.93 568.889 1353.89 574.462 1348.6 577.74C1343.31 574.462 1338.26 568.889 1335.8 571.347C1333.34 573.806 1338.88 578.887 1342.16 584.173C1338.88 589.418 1333.34 594.5 1335.8 596.958C1338.26 599.417 1343.31 593.844 1348.6 590.607C1353.89 593.844 1358.93 599.417 1361.39 596.958C1363.85 594.5 1358.27 589.418 1355.03 584.173C1358.27 578.887 1363.85 573.806 1361.39 571.347Z" fill="#B61A6E"/>
<path d="M978.16 667.112C975.7 664.653 970.656 670.226 965.366 673.464C960.159 670.226 955.033 664.653 952.573 667.112C950.113 669.571 955.689 674.611 958.929 679.897C955.689 685.183 950.113 690.223 952.573 692.682C955.033 695.141 960.159 689.568 965.366 686.331C970.656 689.568 975.7 695.141 978.16 692.682C980.62 690.223 975.085 685.183 971.804 679.897C975.085 674.611 980.661 669.571 978.16 667.112Z" fill="#B61A6E"/>
<path d="M1073.99 667.112C1071.53 664.653 1066.44 670.226 1061.19 673.464C1055.9 670.226 1050.82 664.653 1048.36 667.112C1045.9 669.571 1051.48 674.611 1054.76 679.897C1051.48 685.183 1045.9 690.223 1048.36 692.682C1050.82 695.141 1055.9 689.568 1061.19 686.331C1066.44 689.568 1071.53 695.141 1073.99 692.682C1076.45 690.223 1070.87 685.183 1067.63 679.897C1070.87 674.611 1076.45 669.571 1073.99 667.112Z" fill="#B61A6E"/>
<path d="M1169.78 667.112C1167.31 664.653 1162.27 670.226 1156.98 673.464C1151.69 670.226 1146.65 664.653 1144.19 667.112C1141.73 669.571 1147.3 674.611 1150.54 679.897C1147.3 685.183 1141.73 690.223 1144.19 692.682C1146.65 695.141 1151.69 689.568 1156.98 686.331C1162.27 689.568 1167.31 695.141 1169.78 692.682C1172.24 690.223 1166.66 685.183 1163.42 679.897C1166.66 674.611 1172.24 669.571 1169.78 667.112Z" fill="#B61A6E"/>
<path d="M1265.6 667.112C1263.14 664.653 1258.06 670.226 1252.77 673.464C1247.52 670.226 1242.44 664.653 1239.98 667.112C1237.51 669.571 1243.09 674.611 1246.33 679.897C1243.09 685.183 1237.51 690.223 1239.98 692.682C1242.44 695.141 1247.52 689.568 1252.77 686.331C1258.06 689.568 1263.14 695.141 1265.6 692.682C1268.06 690.223 1262.49 685.183 1259.21 679.897C1262.49 674.611 1268.06 669.571 1265.6 667.112Z" fill="#B61A6E"/>
<path d="M1361.39 667.112C1358.93 664.653 1353.89 670.226 1348.6 673.464C1343.31 670.226 1338.26 664.653 1335.8 667.112C1333.34 669.571 1338.88 674.611 1342.16 679.897C1338.88 685.183 1333.34 690.223 1335.8 692.682C1338.26 695.141 1343.31 689.568 1348.6 686.331C1353.89 689.568 1358.93 695.141 1361.39 692.682C1363.85 690.223 1358.27 685.183 1355.03 679.897C1358.27 674.611 1363.85 669.571 1361.39 667.112Z" fill="#B61A6E"/>
<path d="M978.16 762.836C975.7 760.378 970.656 765.951 965.366 769.188C960.159 765.951 955.033 760.378 952.573 762.836C950.113 765.295 955.689 770.376 958.929 775.621C955.689 780.908 950.113 785.989 952.573 788.447C955.033 790.906 960.159 785.333 965.366 782.055C970.656 785.333 975.7 790.906 978.16 788.447C980.62 785.989 975.085 780.908 971.804 775.621C975.085 770.376 980.661 765.295 978.16 762.836Z" fill="#B61A6E"/>
<path d="M1073.99 762.836C1071.53 760.378 1066.44 765.951 1061.19 769.188C1055.9 765.951 1050.82 760.378 1048.36 762.836C1045.9 765.295 1051.48 770.376 1054.76 775.621C1051.48 780.908 1045.9 785.989 1048.36 788.447C1050.82 790.906 1055.9 785.333 1061.19 782.055C1066.44 785.333 1071.53 790.906 1073.99 788.447C1076.45 785.989 1070.87 780.908 1067.63 775.621C1070.87 770.376 1076.45 765.295 1073.99 762.836Z" fill="#B61A6E"/>
<path d="M1169.78 762.836C1167.31 760.378 1162.27 765.951 1156.98 769.188C1151.69 765.951 1146.65 760.378 1144.19 762.836C1141.73 765.295 1147.3 770.376 1150.54 775.621C1147.3 780.908 1141.73 785.989 1144.19 788.447C1146.65 790.906 1151.69 785.333 1156.98 782.055C1162.27 785.333 1167.31 790.906 1169.78 788.447C1172.24 785.989 1166.66 780.908 1163.42 775.621C1166.66 770.376 1172.24 765.295 1169.78 762.836Z" fill="#B61A6E"/>
<path d="M1265.6 762.836C1263.14 760.378 1258.06 765.951 1252.77 769.188C1247.52 765.951 1242.44 760.378 1239.98 762.836C1237.51 765.295 1243.09 770.376 1246.33 775.621C1243.09 780.908 1237.51 785.989 1239.98 788.447C1242.44 790.906 1247.52 785.333 1252.77 782.055C1258.06 785.333 1263.14 790.906 1265.6 788.447C1268.06 785.989 1262.49 780.908 1259.21 775.621C1262.49 770.376 1268.06 765.295 1265.6 762.836Z" fill="#B61A6E"/>
<path d="M1361.39 762.836C1358.93 760.378 1353.89 765.951 1348.6 769.188C1343.31 765.951 1338.26 760.378 1335.8 762.836C1333.34 765.295 1338.88 770.376 1342.16 775.621C1338.88 780.908 1333.34 785.989 1335.8 788.447C1338.26 790.906 1343.31 785.333 1348.6 782.055C1353.89 785.333 1358.93 790.906 1361.39 788.447C1363.85 785.989 1358.27 780.908 1355.03 775.621C1358.27 770.376 1363.85 765.295 1361.39 762.836Z" fill="#B61A6E"/>
<path d="M978.16 858.601C975.7 856.143 970.656 861.675 965.366 864.953C960.159 861.675 955.033 856.102 952.573 858.601C950.113 861.101 955.689 866.1 958.929 871.386C955.689 876.591 950.113 881.713 952.573 884.171C955.033 886.63 960.159 881.057 965.366 877.82C970.656 881.057 975.7 886.63 978.16 884.171C980.62 881.713 975.085 876.591 971.804 871.386C975.085 866.1 980.661 861.06 978.16 858.601Z" fill="#B61A6E"/>
<path d="M1073.99 858.601C1071.53 856.142 1066.44 861.674 1061.19 864.952C1055.9 861.674 1050.82 856.142 1048.36 858.601C1045.9 861.059 1051.48 866.1 1054.76 871.386C1051.48 876.672 1045.9 881.712 1048.36 884.171C1050.82 886.629 1055.9 881.056 1061.19 877.819C1066.44 881.056 1071.53 886.629 1073.99 884.171C1076.45 881.712 1070.87 876.59 1067.63 871.386C1070.87 866.1 1076.45 861.059 1073.99 858.601Z" fill="#B61A6E"/>
<path d="M1169.78 858.601C1167.31 856.142 1162.27 861.674 1156.98 864.952C1151.69 861.674 1146.65 856.142 1144.19 858.601C1141.73 861.059 1147.3 866.1 1150.54 871.386C1147.3 876.672 1141.73 881.712 1144.19 884.171C1146.65 886.629 1151.69 881.056 1156.98 877.819C1162.27 881.056 1167.31 886.629 1169.78 884.171C1172.24 881.712 1166.66 876.672 1163.42 871.386C1166.66 866.1 1172.24 861.059 1169.78 858.601Z" fill="#B61A6E"/>
<path d="M1265.6 858.601C1263.14 856.142 1258.06 861.674 1252.77 864.952C1247.52 861.674 1242.44 856.142 1239.98 858.601C1237.51 861.059 1243.09 866.1 1246.33 871.386C1243.09 876.59 1237.51 881.712 1239.98 884.171C1242.44 886.629 1247.52 881.056 1252.77 877.819C1258.06 881.056 1263.14 886.629 1265.6 884.171C1268.06 881.712 1262.49 876.672 1259.21 871.386C1262.49 866.1 1268.06 861.059 1265.6 858.601Z" fill="#B61A6E"/>
<path d="M1361.39 858.601C1358.93 856.142 1353.89 861.674 1348.6 864.952C1343.31 861.674 1338.26 856.142 1335.8 858.601C1333.34 861.059 1338.88 866.1 1342.16 871.386C1338.88 876.672 1333.34 881.712 1335.8 884.171C1338.26 886.629 1343.31 881.056 1348.6 877.819C1353.89 881.056 1358.93 886.629 1361.39 884.171C1363.85 881.712 1358.27 876.59 1355.03 871.386C1358.27 866.1 1363.85 861.059 1361.39 858.601Z" fill="#B61A6E"/>
<path d="M978.159 0.608601C975.699 -1.85006 970.656 3.72291 965.366 6.96015C960.158 3.72291 955.033 -1.85006 952.572 0.608601C950.112 3.06726 955.689 8.18948 958.928 13.3937C955.689 18.6798 950.112 23.72 952.572 26.1787C955.033 28.6374 960.158 23.1054 965.366 19.8272C970.656 23.1054 975.699 28.6783 978.159 26.1787C980.62 23.6791 975.084 18.6798 971.804 13.3937C975.084 8.18948 980.661 3.06726 978.159 0.608601Z" fill="#B61A6E"/>
<path d="M1073.99 0.608601C1071.53 -1.85006 1066.44 3.72291 1061.19 6.96015C1055.9 3.72291 1050.82 -1.85006 1048.36 0.608601C1045.9 3.06726 1051.48 8.18948 1054.76 13.3937C1051.48 18.6798 1045.9 23.72 1048.36 26.1787C1050.82 28.6374 1055.9 23.1054 1061.19 19.8272C1066.44 23.1054 1071.53 28.6374 1073.99 26.1787C1076.45 23.72 1070.87 18.6798 1067.63 13.3937C1070.87 8.18948 1076.45 3.06726 1073.99 0.608601Z" fill="#B61A6E"/>
<path d="M1169.78 0.608601C1167.31 -1.85006 1162.27 3.72291 1156.98 6.96015C1151.69 3.72291 1146.65 -1.85006 1144.19 0.608601C1141.73 3.06726 1147.3 8.18948 1150.54 13.3937C1147.3 18.6798 1141.73 23.72 1144.19 26.1787C1146.65 28.6374 1151.69 23.1054 1156.98 19.8272C1162.27 23.1054 1167.31 28.6374 1169.78 26.1787C1172.24 23.72 1166.66 18.6798 1163.42 13.3937C1166.66 8.18948 1172.24 3.06726 1169.78 0.608601Z" fill="#B61A6E"/>
<path d="M1265.6 0.608601C1263.14 -1.85006 1258.06 3.72291 1252.77 6.96015C1247.52 3.72291 1242.44 -1.85006 1239.98 0.608601C1237.52 3.06726 1243.09 8.18948 1246.33 13.3937C1243.09 18.6798 1237.52 23.72 1239.98 26.1787C1242.44 28.6374 1247.52 23.1054 1252.77 19.8272C1258.06 23.1054 1263.14 28.6374 1265.6 26.1787C1268.06 23.72 1262.49 18.6798 1259.21 13.3937C1262.49 8.18948 1268.06 3.06726 1265.6 0.608601Z" fill="#B61A6E"/>
<path d="M1361.39 0.608601C1358.93 -1.85006 1353.89 3.72291 1348.6 6.96015C1343.31 3.72291 1338.26 -1.85006 1335.8 0.608601C1333.34 3.06726 1338.88 8.18948 1342.16 13.3937C1338.88 18.6798 1333.34 23.72 1335.8 26.1787C1338.26 28.6374 1343.31 23.1054 1348.6 19.8272C1353.81 23.1054 1358.93 28.6783 1361.39 26.1787C1363.85 23.6791 1358.27 18.6798 1355.04 13.3937C1358.27 8.18948 1363.85 3.06726 1361.39 0.608601Z" fill="#B61A6E"/>
<path d="M978.16 96.3329C975.7 93.8742 970.656 99.4472 965.366 102.725C960.159 99.4472 955.033 93.8742 952.573 96.3329C950.113 98.7915 955.689 103.873 958.929 109.159C955.689 114.404 950.113 119.485 952.573 121.944C955.033 124.403 960.159 118.83 965.366 115.592C970.656 118.83 975.7 124.403 978.16 121.944C980.62 119.485 975.085 114.404 971.804 109.159C975.085 103.873 980.661 98.7915 978.16 96.3329Z" fill="#B61A6E"/>
<path d="M1073.99 96.3329C1071.53 93.8742 1066.44 99.4472 1061.19 102.725C1055.9 99.4472 1050.82 93.8742 1048.36 96.3329C1045.9 98.7915 1051.48 103.873 1054.76 109.159C1051.48 114.404 1045.9 119.485 1048.36 121.944C1050.82 124.403 1055.9 118.83 1061.19 115.592C1066.44 118.83 1071.53 124.403 1073.99 121.944C1076.45 119.485 1070.87 114.404 1067.63 109.159C1070.87 103.873 1076.45 98.7915 1073.99 96.3329Z" fill="#B61A6E"/>
<path d="M1169.78 96.3329C1167.31 93.8742 1162.27 99.4472 1156.98 102.725C1151.69 99.4472 1146.65 93.8742 1144.19 96.3329C1141.73 98.7915 1147.3 103.873 1150.54 109.159C1147.3 114.404 1141.73 119.485 1144.19 121.944C1146.65 124.403 1151.69 118.83 1156.98 115.592C1162.27 118.83 1167.31 124.403 1169.78 121.944C1172.24 119.485 1166.66 114.404 1163.42 109.159C1166.66 103.873 1172.24 98.7915 1169.78 96.3329Z" fill="#B61A6E"/>
<path d="M1265.6 96.3329C1263.14 93.8742 1258.06 99.4472 1252.77 102.725C1247.52 99.4472 1242.44 93.8742 1239.98 96.3329C1237.51 98.7915 1243.09 103.873 1246.33 109.159C1243.09 114.404 1237.51 119.485 1239.98 121.944C1242.44 124.403 1247.52 118.83 1252.77 115.592C1258.06 118.83 1263.14 124.403 1265.6 121.944C1268.06 119.485 1262.49 114.404 1259.21 109.159C1262.49 103.873 1268.06 98.7915 1265.6 96.3329Z" fill="#B61A6E"/>
<path d="M1361.39 96.3329C1358.93 93.8742 1353.89 99.4472 1348.6 102.725C1343.31 99.4472 1338.26 93.8742 1335.8 96.3329C1333.34 98.7915 1338.88 103.873 1342.16 109.159C1338.88 114.404 1333.34 119.485 1335.8 121.944C1338.26 124.403 1343.31 118.83 1348.6 115.592C1353.89 118.83 1358.93 124.403 1361.39 121.944C1363.85 119.485 1358.27 114.404 1355.03 109.159C1358.27 103.873 1363.85 98.7915 1361.39 96.3329Z" fill="#B61A6E"/>
<path d="M978.16 192.097C975.7 189.639 970.656 195.212 965.366 198.449C960.159 195.212 955.033 189.639 952.573 192.097C950.113 194.556 955.689 199.596 958.929 204.883C955.689 210.169 950.113 215.209 952.573 217.668C955.033 220.126 960.159 214.553 965.366 211.316C970.656 214.553 975.7 220.126 978.16 217.668C980.62 215.209 975.085 210.169 971.804 204.883C975.085 199.596 980.661 194.556 978.16 192.097Z" fill="#B61A6E"/>
<path d="M1073.99 192.097C1071.53 189.639 1066.44 195.212 1061.19 198.449C1055.9 195.212 1050.82 189.639 1048.36 192.097C1045.9 194.556 1051.48 199.596 1054.76 204.883C1051.48 210.169 1045.9 215.209 1048.36 217.668C1050.82 220.126 1055.9 214.553 1061.19 211.316C1066.44 214.553 1071.53 220.126 1073.99 217.668C1076.45 215.209 1070.87 210.169 1067.63 204.883C1070.87 199.596 1076.45 194.556 1073.99 192.097Z" fill="#B61A6E"/>
<path d="M1169.78 192.097C1167.31 189.639 1162.27 195.212 1156.98 198.449C1151.69 195.212 1146.65 189.639 1144.19 192.097C1141.73 194.556 1147.3 199.596 1150.54 204.883C1147.3 210.169 1141.73 215.209 1144.19 217.668C1146.65 220.126 1151.69 214.553 1156.98 211.316C1162.27 214.553 1167.31 220.126 1169.78 217.668C1172.24 215.209 1166.66 210.169 1163.42 204.883C1166.66 199.596 1172.24 194.556 1169.78 192.097Z" fill="#B61A6E"/>
<path d="M1265.6 192.097C1263.14 189.639 1258.06 195.212 1252.77 198.449C1247.52 195.212 1242.44 189.639 1239.98 192.097C1237.51 194.556 1243.09 199.596 1246.33 204.883C1243.09 210.169 1237.51 215.209 1239.98 217.668C1242.44 220.126 1247.52 214.553 1252.77 211.316C1258.06 214.553 1263.14 220.126 1265.6 217.668C1268.06 215.209 1262.49 210.169 1259.21 204.883C1262.49 199.596 1268.06 194.556 1265.6 192.097Z" fill="#B61A6E"/>
<path d="M1361.39 192.097C1358.93 189.639 1353.89 195.212 1348.6 198.449C1343.31 195.212 1338.26 189.639 1335.8 192.097C1333.34 194.556 1338.88 199.596 1342.16 204.883C1338.88 210.169 1333.34 215.209 1335.8 217.668C1338.26 220.126 1343.31 214.553 1348.6 211.316C1353.89 214.553 1358.93 220.126 1361.39 217.668C1363.85 215.209 1358.27 210.169 1355.03 204.883C1358.27 199.596 1363.85 194.556 1361.39 192.097Z" fill="#B61A6E"/>
<path d="M978.16 287.822C975.7 285.363 970.656 290.936 965.366 294.174C960.159 290.936 955.033 285.363 952.573 287.822C950.113 290.281 955.689 295.362 958.929 300.607C955.689 305.893 950.113 310.974 952.573 313.433C955.033 315.892 960.159 310.319 965.366 307.041C970.656 310.319 975.7 315.892 978.16 313.433C980.62 310.974 975.085 305.893 971.804 300.607C975.085 295.362 980.661 290.281 978.16 287.822Z" fill="#B61A6E"/>
<path d="M1073.99 287.822C1071.53 285.363 1066.44 290.936 1061.19 294.174C1055.9 290.936 1050.82 285.363 1048.36 287.822C1045.9 290.281 1051.48 295.362 1054.76 300.607C1051.48 305.893 1045.9 310.974 1048.36 313.433C1050.82 315.892 1055.9 310.319 1061.19 307.041C1066.44 310.319 1071.53 315.892 1073.99 313.433C1076.45 310.974 1070.87 305.893 1067.63 300.607C1070.87 295.362 1076.45 290.281 1073.99 287.822Z" fill="#B61A6E"/>
<path d="M1169.78 287.822C1167.31 285.363 1162.27 290.936 1156.98 294.174C1151.69 290.936 1146.65 285.363 1144.19 287.822C1141.73 290.281 1147.3 295.362 1150.54 300.607C1147.3 305.893 1141.73 310.974 1144.19 313.433C1146.65 315.892 1151.69 310.319 1156.98 307.041C1162.27 310.319 1167.31 315.892 1169.78 313.433C1172.24 310.974 1166.66 305.893 1163.42 300.607C1166.66 295.362 1172.24 290.281 1169.78 287.822Z" fill="#B61A6E"/>
<path d="M1265.6 287.822C1263.14 285.363 1258.06 290.936 1252.77 294.174C1247.52 290.936 1242.44 285.363 1239.98 287.822C1237.51 290.281 1243.09 295.362 1246.33 300.607C1243.09 305.893 1237.51 310.974 1239.98 313.433C1242.44 315.892 1247.52 310.319 1252.77 307.041C1258.06 310.319 1263.14 315.892 1265.6 313.433C1268.06 310.974 1262.49 305.893 1259.21 300.607C1262.49 295.362 1268.06 290.281 1265.6 287.822Z" fill="#B61A6E"/>
<path d="M1361.39 287.822C1358.93 285.363 1353.89 290.936 1348.6 294.174C1343.31 290.936 1338.26 285.363 1335.8 287.822C1333.34 290.281 1338.88 295.362 1342.16 300.607C1338.88 305.893 1333.34 310.974 1335.8 313.433C1338.26 315.892 1343.31 310.319 1348.6 307.041C1353.89 310.319 1358.93 315.892 1361.39 313.433C1363.85 310.974 1358.27 305.893 1355.03 300.607C1358.27 295.362 1363.85 290.281 1361.39 287.822Z" fill="#B61A6E"/>
<path d="M978.16 383.587C975.7 381.128 970.656 386.66 965.366 389.938C960.159 386.66 955.033 381.087 952.573 383.587C950.113 386.087 955.689 391.086 958.929 396.372C955.689 401.576 950.113 406.698 952.573 409.157C955.033 411.616 960.159 406.043 965.366 402.805C970.656 406.043 975.7 411.616 978.16 409.157C980.62 406.698 975.085 401.576 971.804 396.372C975.085 391.086 980.661 386.046 978.16 383.587Z" fill="#B61A6E"/>
<path d="M1073.99 383.586C1071.53 381.128 1066.44 386.66 1061.19 389.938C1055.9 386.66 1050.82 381.128 1048.36 383.586C1045.9 386.045 1051.48 391.085 1054.76 396.371C1051.48 401.658 1045.9 406.698 1048.36 409.156C1050.82 411.615 1055.9 406.042 1061.19 402.805C1066.44 406.042 1071.53 411.615 1073.99 409.156C1076.45 406.698 1070.87 401.576 1067.63 396.371C1070.87 391.085 1076.45 386.045 1073.99 383.586Z" fill="#B61A6E"/>
<path d="M1169.78 383.586C1167.31 381.128 1162.27 386.66 1156.98 389.938C1151.69 386.66 1146.65 381.128 1144.19 383.586C1141.73 386.045 1147.3 391.085 1150.54 396.371C1147.3 401.658 1141.73 406.698 1144.19 409.156C1146.65 411.615 1151.69 406.042 1156.98 402.805C1162.27 406.042 1167.31 411.615 1169.78 409.156C1172.24 406.698 1166.66 401.658 1163.42 396.371C1166.66 391.085 1172.24 386.045 1169.78 383.586Z" fill="#B61A6E"/>
<path d="M1265.6 383.586C1263.14 381.128 1258.06 386.66 1252.77 389.938C1247.52 386.66 1242.44 381.128 1239.98 383.586C1237.51 386.045 1243.09 391.085 1246.33 396.371C1243.09 401.576 1237.51 406.698 1239.98 409.156C1242.44 411.615 1247.52 406.042 1252.77 402.805C1258.06 406.042 1263.14 411.615 1265.6 409.156C1268.06 406.698 1262.49 401.658 1259.21 396.371C1262.49 391.085 1268.06 386.045 1265.6 383.586Z" fill="#B61A6E"/>
<path d="M1361.39 383.586C1358.93 381.128 1353.89 386.66 1348.6 389.938C1343.31 386.66 1338.26 381.128 1335.8 383.586C1333.34 386.045 1338.88 391.085 1342.16 396.371C1338.88 401.658 1333.34 406.698 1335.8 409.156C1338.26 411.615 1343.31 406.042 1348.6 402.805C1353.89 406.042 1358.93 411.615 1361.39 409.156C1363.85 406.698 1358.27 401.576 1355.03 396.371C1358.27 391.085 1363.85 386.045 1361.39 383.586Z" fill="#B61A6E"/>
<path d="M496.301 475.623C493.841 473.164 488.797 478.737 483.508 481.975C478.3 478.737 473.175 473.164 470.714 475.623C468.254 478.082 473.831 483.204 477.07 488.408C473.831 493.694 468.254 498.735 470.714 501.193C473.175 503.652 478.3 498.12 483.508 494.842C488.797 498.12 493.841 503.693 496.301 501.193C498.762 498.694 493.226 493.694 489.946 488.408C493.226 483.204 498.803 478.082 496.301 475.623Z" fill="#B61A6E"/>
<path d="M592.13 475.623C589.67 473.164 584.585 478.737 579.337 481.975C574.047 478.737 568.962 473.164 566.502 475.623C564.042 478.082 569.618 483.204 572.899 488.408C569.618 493.694 564.042 498.735 566.502 501.193C568.962 503.652 574.047 498.12 579.337 494.842C584.585 498.12 589.67 503.652 592.13 501.193C594.59 498.735 589.014 493.694 585.774 488.408C589.014 483.204 594.59 478.082 592.13 475.623Z" fill="#B61A6E"/>
<path d="M687.917 475.623C685.457 473.164 680.413 478.737 675.124 481.975C669.834 478.737 664.79 473.164 662.33 475.623C659.87 478.082 665.447 483.204 668.686 488.408C665.447 493.694 659.87 498.735 662.33 501.193C664.79 503.652 669.834 498.12 675.124 494.842C680.413 498.12 685.457 503.652 687.917 501.193C690.377 498.735 684.801 493.694 681.561 488.408C684.801 483.204 690.377 478.082 687.917 475.623Z" fill="#B61A6E"/>
<path d="M783.745 475.623C781.285 473.164 776.2 478.737 770.911 481.975C765.662 478.737 760.578 473.164 758.117 475.623C755.657 478.082 761.234 483.204 764.473 488.408C761.234 493.694 755.657 498.735 758.117 501.193C760.578 503.652 765.662 498.12 770.911 494.842C776.2 498.12 781.285 503.652 783.745 501.193C786.206 498.735 780.629 493.694 777.349 488.408C780.629 483.204 786.206 478.082 783.745 475.623Z" fill="#B61A6E"/>
<path d="M879.533 475.623C877.072 473.164 872.029 478.737 866.739 481.975C861.449 478.737 856.406 473.164 853.946 475.623C851.485 478.082 857.021 483.204 860.301 488.408C857.021 493.694 851.485 498.735 853.946 501.193C856.406 503.652 861.449 498.12 866.739 494.842C871.947 498.12 877.072 503.693 879.533 501.193C881.993 498.694 876.416 493.694 873.177 488.408C876.416 483.204 881.993 478.082 879.533 475.623Z" fill="#B61A6E"/>
<path d="M496.301 571.347C493.841 568.889 488.798 574.462 483.508 577.74C478.3 574.462 473.175 568.889 470.714 571.347C468.254 573.806 473.831 578.887 477.07 584.173C473.831 589.418 468.254 594.5 470.714 596.958C473.175 599.417 478.3 593.844 483.508 590.607C488.798 593.844 493.841 599.417 496.301 596.958C498.762 594.5 493.226 589.418 489.946 584.173C493.226 578.887 498.803 573.806 496.301 571.347Z" fill="#B61A6E"/>
<path d="M592.13 571.347C589.67 568.889 584.585 574.462 579.337 577.74C574.047 574.462 568.962 568.889 566.502 571.347C564.042 573.806 569.618 578.887 572.899 584.173C569.618 589.418 564.042 594.5 566.502 596.958C568.962 599.417 574.047 593.844 579.337 590.607C584.585 593.844 589.67 599.417 592.13 596.958C594.59 594.5 589.014 589.418 585.774 584.173C589.014 578.887 594.59 573.806 592.13 571.347Z" fill="#B61A6E"/>
<path d="M687.917 571.347C685.457 568.889 680.413 574.462 675.124 577.74C669.834 574.462 664.79 568.889 662.33 571.347C659.87 573.806 665.447 578.887 668.686 584.173C665.447 589.418 659.87 594.5 662.33 596.958C664.79 599.417 669.834 593.844 675.124 590.607C680.413 593.844 685.457 599.417 687.917 596.958C690.377 594.5 684.801 589.418 681.561 584.173C684.801 578.887 690.377 573.806 687.917 571.347Z" fill="#B61A6E"/>
<path d="M783.746 571.347C781.286 568.889 776.201 574.462 770.911 577.74C765.663 574.462 760.578 568.889 758.118 571.347C755.658 573.806 761.234 578.887 764.474 584.173C761.234 589.418 755.658 594.5 758.118 596.958C760.578 599.417 765.663 593.844 770.911 590.607C776.201 593.844 781.286 599.417 783.746 596.958C786.206 594.5 780.629 589.418 777.349 584.173C780.629 578.887 786.206 573.806 783.746 571.347Z" fill="#B61A6E"/>
<path d="M879.533 571.347C877.073 568.889 872.029 574.462 866.74 577.74C861.45 574.462 856.406 568.889 853.946 571.347C851.486 573.806 857.021 578.887 860.302 584.173C857.021 589.418 851.486 594.5 853.946 596.958C856.406 599.417 861.45 593.844 866.74 590.607C872.029 593.844 877.073 599.417 879.533 596.958C881.993 594.5 876.417 589.418 873.177 584.173C876.417 578.887 881.993 573.806 879.533 571.347Z" fill="#B61A6E"/>
<path d="M496.301 667.112C493.841 664.653 488.798 670.226 483.508 673.464C478.3 670.226 473.175 664.653 470.714 667.112C468.254 669.571 473.831 674.611 477.07 679.897C473.831 685.183 468.254 690.223 470.714 692.682C473.175 695.141 478.3 689.568 483.508 686.331C488.798 689.568 493.841 695.141 496.301 692.682C498.762 690.223 493.226 685.183 489.946 679.897C493.226 674.611 498.803 669.571 496.301 667.112Z" fill="#B61A6E"/>
<path d="M592.13 667.112C589.67 664.653 584.585 670.226 579.337 673.464C574.047 670.226 568.962 664.653 566.502 667.112C564.042 669.571 569.618 674.611 572.899 679.897C569.618 685.183 564.042 690.223 566.502 692.682C568.962 695.141 574.047 689.568 579.337 686.331C584.585 689.568 589.67 695.141 592.13 692.682C594.59 690.223 589.014 685.183 585.774 679.897C589.014 674.611 594.59 669.571 592.13 667.112Z" fill="#B61A6E"/>
<path d="M687.917 667.112C685.457 664.653 680.413 670.226 675.124 673.464C669.834 670.226 664.79 664.653 662.33 667.112C659.87 669.571 665.447 674.611 668.686 679.897C665.447 685.183 659.87 690.223 662.33 692.682C664.79 695.141 669.834 689.568 675.124 686.331C680.413 689.568 685.457 695.141 687.917 692.682C690.377 690.223 684.801 685.183 681.561 679.897C684.801 674.611 690.377 669.571 687.917 667.112Z" fill="#B61A6E"/>
<path d="M783.746 667.112C781.286 664.653 776.201 670.226 770.911 673.464C765.663 670.226 760.578 664.653 758.118 667.112C755.658 669.571 761.234 674.611 764.474 679.897C761.234 685.183 755.658 690.223 758.118 692.682C760.578 695.141 765.663 689.568 770.911 686.331C776.201 689.568 781.286 695.141 783.746 692.682C786.206 690.223 780.629 685.183 777.349 679.897C780.629 674.611 786.206 669.571 783.746 667.112Z" fill="#B61A6E"/>
<path d="M879.533 667.112C877.073 664.653 872.029 670.226 866.74 673.464C861.45 670.226 856.406 664.653 853.946 667.112C851.486 669.571 857.021 674.611 860.302 679.897C857.021 685.183 851.486 690.223 853.946 692.682C856.406 695.141 861.45 689.568 866.74 686.331C872.029 689.568 877.073 695.141 879.533 692.682C881.993 690.223 876.417 685.183 873.177 679.897C876.417 674.611 881.993 669.571 879.533 667.112Z" fill="#B61A6E"/>
<path d="M496.301 762.836C493.841 760.378 488.798 765.951 483.508 769.188C478.3 765.951 473.175 760.378 470.714 762.836C468.254 765.295 473.831 770.376 477.07 775.621C473.831 780.908 468.254 785.989 470.714 788.447C473.175 790.906 478.3 785.333 483.508 782.055C488.798 785.333 493.841 790.906 496.301 788.447C498.762 785.989 493.226 780.908 489.946 775.621C493.226 770.376 498.803 765.295 496.301 762.836Z" fill="#B61A6E"/>
<path d="M592.13 762.836C589.67 760.378 584.585 765.951 579.337 769.188C574.047 765.951 568.962 760.378 566.502 762.836C564.042 765.295 569.618 770.376 572.899 775.621C569.618 780.908 564.042 785.989 566.502 788.447C568.962 790.906 574.047 785.333 579.337 782.055C584.585 785.333 589.67 790.906 592.13 788.447C594.59 785.989 589.014 780.908 585.774 775.621C589.014 770.376 594.59 765.295 592.13 762.836Z" fill="#B61A6E"/>
<path d="M687.917 762.836C685.457 760.378 680.413 765.951 675.124 769.188C669.834 765.951 664.79 760.378 662.33 762.836C659.87 765.295 665.447 770.376 668.686 775.621C665.447 780.908 659.87 785.989 662.33 788.447C664.79 790.906 669.834 785.333 675.124 782.055C680.413 785.333 685.457 790.906 687.917 788.447C690.377 785.989 684.801 780.908 681.561 775.621C684.801 770.376 690.377 765.295 687.917 762.836Z" fill="#B61A6E"/>
<path d="M783.746 762.836C781.286 760.378 776.201 765.951 770.911 769.188C765.663 765.951 760.578 760.378 758.118 762.836C755.658 765.295 761.234 770.376 764.474 775.621C761.234 780.908 755.658 785.989 758.118 788.447C760.578 790.906 765.663 785.333 770.911 782.055C776.201 785.333 781.286 790.906 783.746 788.447C786.206 785.989 780.629 780.908 777.349 775.621C780.629 770.376 786.206 765.295 783.746 762.836Z" fill="#B61A6E"/>
<path d="M879.533 762.836C877.073 760.378 872.029 765.951 866.74 769.188C861.45 765.951 856.406 760.378 853.946 762.836C851.486 765.295 857.021 770.376 860.302 775.621C857.021 780.908 851.486 785.989 853.946 788.447C856.406 790.906 861.45 785.333 866.74 782.055C872.029 785.333 877.073 790.906 879.533 788.447C881.993 785.989 876.417 780.908 873.177 775.621C876.417 770.376 881.993 765.295 879.533 762.836Z" fill="#B61A6E"/>
<path d="M496.301 858.601C493.841 856.143 488.798 861.675 483.508 864.953C478.3 861.675 473.175 856.102 470.714 858.601C468.254 861.101 473.831 866.1 477.07 871.386C473.831 876.591 468.254 881.713 470.714 884.171C473.175 886.63 478.3 881.057 483.508 877.82C488.798 881.057 493.841 886.63 496.301 884.171C498.762 881.713 493.226 876.591 489.946 871.386C493.226 866.1 498.803 861.06 496.301 858.601Z" fill="#B61A6E"/>
<path d="M592.13 858.601C589.67 856.142 584.585 861.674 579.337 864.952C574.047 861.674 568.962 856.142 566.502 858.601C564.042 861.059 569.618 866.1 572.899 871.386C569.618 876.672 564.042 881.712 566.502 884.171C568.962 886.629 574.047 881.056 579.337 877.819C584.585 881.056 589.67 886.629 592.13 884.171C594.59 881.712 589.014 876.59 585.774 871.386C589.014 866.1 594.59 861.059 592.13 858.601Z" fill="#B61A6E"/>
<path d="M687.917 858.601C685.457 856.142 680.413 861.674 675.124 864.952C669.834 861.674 664.79 856.142 662.33 858.601C659.87 861.059 665.447 866.1 668.686 871.386C665.447 876.672 659.87 881.712 662.33 884.171C664.79 886.629 669.834 881.056 675.124 877.819C680.413 881.056 685.457 886.629 687.917 884.171C690.377 881.712 684.801 876.672 681.561 871.386C684.801 866.1 690.377 861.059 687.917 858.601Z" fill="#B61A6E"/>
<path d="M783.746 858.601C781.286 856.142 776.201 861.674 770.911 864.952C765.663 861.674 760.578 856.142 758.118 858.601C755.658 861.059 761.234 866.1 764.474 871.386C761.234 876.59 755.658 881.712 758.118 884.171C760.578 886.629 765.663 881.056 770.911 877.819C776.201 881.056 781.286 886.629 783.746 884.171C786.206 881.712 780.629 876.672 777.349 871.386C780.629 866.1 786.206 861.059 783.746 858.601Z" fill="#B61A6E"/>
<path d="M879.533 858.601C877.073 856.142 872.029 861.674 866.74 864.952C861.45 861.674 856.406 856.142 853.946 858.601C851.486 861.059 857.021 866.1 860.302 871.386C857.021 876.672 851.486 881.712 853.946 884.171C856.406 886.629 861.45 881.056 866.74 877.819C872.029 881.056 877.073 886.629 879.533 884.171C881.993 881.712 876.417 876.59 873.177 871.386C876.417 866.1 881.993 861.059 879.533 858.601Z" fill="#B61A6E"/>
<path d="M26.196 480.843C23.7357 478.384 18.6921 483.957 13.4025 487.195C8.1949 483.957 3.06929 478.384 0.609004 480.843C-1.85129 483.302 3.72537 488.424 6.96475 493.628C3.72537 498.914 -1.85129 503.954 0.609004 506.413C3.06929 508.872 8.1949 503.34 13.4025 500.062C18.6921 503.34 23.7357 508.913 26.196 506.413C28.6563 503.913 23.1207 498.914 19.8403 493.628C23.1207 488.424 28.6973 483.302 26.196 480.843Z" fill="#B61A6E"/>
<path d="M122.024 480.843C119.564 478.384 114.48 483.957 109.231 487.195C103.941 483.957 98.8567 478.384 96.3964 480.843C93.9361 483.302 99.5128 488.424 102.793 493.628C99.5128 498.914 93.9361 503.954 96.3964 506.413C98.8567 508.872 103.941 503.34 109.231 500.062C114.48 503.34 119.564 508.872 122.024 506.413C124.485 503.954 118.908 498.914 115.669 493.628C118.908 488.424 124.485 483.302 122.024 480.843Z" fill="#B61A6E"/>
<path d="M217.812 480.843C215.351 478.384 210.308 483.957 205.018 487.195C199.729 483.957 194.685 478.384 192.225 480.843C189.764 483.302 195.341 488.424 198.58 493.628C195.341 498.914 189.764 503.954 192.225 506.413C194.685 508.872 199.729 503.34 205.018 500.062C210.308 503.34 215.351 508.872 217.812 506.413C220.272 503.954 214.695 498.914 211.456 493.628C214.695 488.424 220.272 483.302 217.812 480.843Z" fill="#B61A6E"/>
<path d="M313.64 480.843C311.18 478.384 306.095 483.957 300.805 487.195C295.557 483.957 290.472 478.384 288.012 480.843C285.552 483.302 291.128 488.424 294.368 493.628C291.128 498.914 285.552 503.954 288.012 506.413C290.472 508.872 295.557 503.34 300.805 500.062C306.095 503.34 311.18 508.872 313.64 506.413C316.1 503.954 310.524 498.914 307.243 493.628C310.524 488.424 316.1 483.302 313.64 480.843Z" fill="#B61A6E"/>
<path d="M409.427 480.843C406.967 478.384 401.923 483.957 396.634 487.195C391.344 483.957 386.301 478.384 383.84 480.843C381.38 483.302 386.916 488.424 390.196 493.628C386.916 498.914 381.38 503.954 383.84 506.413C386.301 508.872 391.344 503.34 396.634 500.062C401.841 503.34 406.967 508.913 409.427 506.413C411.888 503.913 406.311 498.914 403.072 493.628C406.311 488.424 411.888 483.302 409.427 480.843Z" fill="#B61A6E"/>
<path d="M26.196 576.567C23.7357 574.109 18.6921 579.682 13.4025 582.96C8.1949 579.682 3.06929 574.109 0.609004 576.567C-1.85129 579.026 3.72537 584.107 6.96475 589.393C3.72537 594.638 -1.85129 599.72 0.609004 602.178C3.06929 604.637 8.1949 599.064 13.4025 595.827C18.6921 599.064 23.7357 604.637 26.196 602.178C28.6563 599.72 23.1207 594.638 19.8403 589.393C23.1207 584.107 28.6973 579.026 26.196 576.567Z" fill="#B61A6E"/>
<path d="M122.024 576.567C119.564 574.109 114.48 579.682 109.231 582.96C103.941 579.682 98.8567 574.109 96.3964 576.567C93.9361 579.026 99.5128 584.107 102.793 589.393C99.5128 594.638 93.9361 599.72 96.3964 602.178C98.8567 604.637 103.941 599.064 109.231 595.827C114.48 599.064 119.564 604.637 122.024 602.178C124.485 599.72 118.908 594.638 115.669 589.393C118.908 584.107 124.485 579.026 122.024 576.567Z" fill="#B61A6E"/>
<path d="M217.812 576.567C215.351 574.109 210.308 579.682 205.018 582.96C199.729 579.682 194.685 574.109 192.225 576.567C189.764 579.026 195.341 584.107 198.58 589.393C195.341 594.638 189.764 599.72 192.225 602.178C194.685 604.637 199.729 599.064 205.018 595.827C210.308 599.064 215.351 604.637 217.812 602.178C220.272 599.72 214.695 594.638 211.456 589.393C214.695 584.107 220.272 579.026 217.812 576.567Z" fill="#B61A6E"/>
<path d="M313.64 576.567C311.18 574.109 306.095 579.682 300.805 582.96C295.557 579.682 290.472 574.109 288.012 576.567C285.552 579.026 291.128 584.107 294.368 589.393C291.128 594.638 285.552 599.72 288.012 602.178C290.472 604.637 295.557 599.064 300.805 595.827C306.095 599.064 311.18 604.637 313.64 602.178C316.1 599.72 310.524 594.638 307.243 589.393C310.524 584.107 316.1 579.026 313.64 576.567Z" fill="#B61A6E"/>
<path d="M409.427 576.567C406.967 574.109 401.923 579.682 396.634 582.96C391.344 579.682 386.301 574.109 383.84 576.567C381.38 579.026 386.916 584.107 390.196 589.393C386.916 594.638 381.38 599.72 383.84 602.178C386.301 604.637 391.344 599.064 396.634 595.827C401.923 599.064 406.967 604.637 409.427 602.178C411.888 599.72 406.311 594.638 403.072 589.393C406.311 584.107 411.888 579.026 409.427 576.567Z" fill="#B61A6E"/>
<path d="M26.196 672.332C23.7357 669.873 18.6921 675.446 13.4025 678.683C8.1949 675.446 3.06929 669.873 0.609004 672.332C-1.85129 674.79 3.72537 679.831 6.96475 685.117C3.72537 690.403 -1.85129 695.443 0.609004 697.902C3.06929 700.361 8.1949 694.788 13.4025 691.55C18.6921 694.788 23.7357 700.361 26.196 697.902C28.6563 695.443 23.1207 690.403 19.8403 685.117C23.1207 679.831 28.6973 674.79 26.196 672.332Z" fill="#B61A6E"/>
<path d="M122.024 672.332C119.564 669.873 114.48 675.446 109.231 678.683C103.941 675.446 98.8567 669.873 96.3964 672.332C93.9361 674.79 99.5128 679.831 102.793 685.117C99.5128 690.403 93.9361 695.443 96.3964 697.902C98.8567 700.361 103.941 694.788 109.231 691.55C114.48 694.788 119.564 700.361 122.024 697.902C124.485 695.443 118.908 690.403 115.669 685.117C118.908 679.831 124.485 674.79 122.024 672.332Z" fill="#B61A6E"/>
<path d="M217.812 672.332C215.351 669.873 210.308 675.446 205.018 678.683C199.729 675.446 194.685 669.873 192.225 672.332C189.764 674.79 195.341 679.831 198.58 685.117C195.341 690.403 189.764 695.443 192.225 697.902C194.685 700.361 199.729 694.788 205.018 691.55C210.308 694.788 215.351 700.361 217.812 697.902C220.272 695.443 214.695 690.403 211.456 685.117C214.695 679.831 220.272 674.79 217.812 672.332Z" fill="#B61A6E"/>
<path d="M313.64 672.332C311.18 669.873 306.095 675.446 300.805 678.683C295.557 675.446 290.472 669.873 288.012 672.332C285.552 674.79 291.128 679.831 294.368 685.117C291.128 690.403 285.552 695.443 288.012 697.902C290.472 700.361 295.557 694.788 300.805 691.55C306.095 694.788 311.18 700.361 313.64 697.902C316.1 695.443 310.524 690.403 307.243 685.117C310.524 679.831 316.1 674.79 313.64 672.332Z" fill="#B61A6E"/>
<path d="M409.427 672.332C406.967 669.873 401.923 675.446 396.634 678.683C391.344 675.446 386.301 669.873 383.84 672.332C381.38 674.79 386.916 679.831 390.196 685.117C386.916 690.403 381.38 695.443 383.84 697.902C386.301 700.361 391.344 694.788 396.634 691.55C401.923 694.788 406.967 700.361 409.427 697.902C411.888 695.443 406.311 690.403 403.072 685.117C406.311 679.831 411.888 674.79 409.427 672.332Z" fill="#B61A6E"/>
<path d="M26.196 768.056C23.7357 765.598 18.6921 771.171 13.4025 774.408C8.1949 771.171 3.06929 765.598 0.609004 768.056C-1.85129 770.515 3.72537 775.596 6.96475 780.841C3.72537 786.128 -1.85129 791.209 0.609004 793.667C3.06929 796.126 8.1949 790.553 13.4025 787.275C18.6921 790.553 23.7357 796.126 26.196 793.667C28.6563 791.209 23.1207 786.128 19.8403 780.841C23.1207 775.596 28.6973 770.515 26.196 768.056Z" fill="#B61A6E"/>
<path d="M122.024 768.056C119.564 765.598 114.48 771.171 109.231 774.408C103.941 771.171 98.8567 765.598 96.3964 768.056C93.9361 770.515 99.5128 775.596 102.793 780.841C99.5128 786.128 93.9361 791.209 96.3964 793.667C98.8567 796.126 103.941 790.553 109.231 787.275C114.48 790.553 119.564 796.126 122.024 793.667C124.485 791.209 118.908 786.128 115.669 780.841C118.908 775.596 124.485 770.515 122.024 768.056Z" fill="#B61A6E"/>
<path d="M217.812 768.056C215.351 765.598 210.308 771.171 205.018 774.408C199.729 771.171 194.685 765.598 192.225 768.056C189.764 770.515 195.341 775.596 198.58 780.841C195.341 786.128 189.764 791.209 192.225 793.667C194.685 796.126 199.729 790.553 205.018 787.275C210.308 790.553 215.351 796.126 217.812 793.667C220.272 791.209 214.695 786.128 211.456 780.841C214.695 775.596 220.272 770.515 217.812 768.056Z" fill="#B61A6E"/>
<path d="M313.64 768.056C311.18 765.598 306.095 771.171 300.805 774.408C295.557 771.171 290.472 765.598 288.012 768.056C285.552 770.515 291.128 775.596 294.368 780.841C291.128 786.128 285.552 791.209 288.012 793.667C290.472 796.126 295.557 790.553 300.805 787.275C306.095 790.553 311.18 796.126 313.64 793.667C316.1 791.209 310.524 786.128 307.243 780.841C310.524 775.596 316.1 770.515 313.64 768.056Z" fill="#B61A6E"/>
<path d="M409.427 768.056C406.967 765.598 401.923 771.171 396.634 774.408C391.344 771.171 386.301 765.598 383.84 768.056C381.38 770.515 386.916 775.596 390.196 780.841C386.916 786.128 381.38 791.209 383.84 793.667C386.301 796.126 391.344 790.553 396.634 787.275C401.923 790.553 406.967 796.126 409.427 793.667C411.888 791.209 406.311 786.128 403.072 780.841C406.311 775.596 411.888 770.515 409.427 768.056Z" fill="#B61A6E"/>
<path d="M26.196 863.821C23.7357 861.363 18.6921 866.895 13.4025 870.173C8.1949 866.895 3.06929 861.322 0.609004 863.821C-1.85129 866.321 3.72537 871.32 6.96475 876.606C3.72537 881.811 -1.85129 886.933 0.609004 889.391C3.06929 891.85 8.1949 886.277 13.4025 883.04C18.6921 886.277 23.7357 891.85 26.196 889.391C28.6563 886.933 23.1207 881.811 19.8403 876.606C23.1207 871.32 28.6973 866.28 26.196 863.821Z" fill="#B61A6E"/>
<path d="M122.024 863.821C119.564 861.362 114.48 866.894 109.231 870.172C103.941 866.894 98.8567 861.362 96.3964 863.821C93.9361 866.279 99.5128 871.32 102.793 876.606C99.5128 881.892 93.9361 886.932 96.3964 889.391C98.8567 891.849 103.941 886.276 109.231 883.039C114.48 886.276 119.564 891.849 122.024 889.391C124.485 886.932 118.908 881.81 115.669 876.606C118.908 871.32 124.485 866.279 122.024 863.821Z" fill="#B61A6E"/>
<path d="M217.812 863.821C215.351 861.362 210.308 866.894 205.018 870.172C199.729 866.894 194.685 861.362 192.225 863.821C189.764 866.279 195.341 871.32 198.58 876.606C195.341 881.892 189.764 886.932 192.225 889.391C194.685 891.849 199.729 886.276 205.018 883.039C210.308 886.276 215.351 891.849 217.812 889.391C220.272 886.932 214.695 881.892 211.456 876.606C214.695 871.32 220.272 866.279 217.812 863.821Z" fill="#B61A6E"/>
<path d="M313.64 863.821C311.18 861.362 306.095 866.894 300.805 870.172C295.557 866.894 290.472 861.362 288.012 863.821C285.552 866.279 291.128 871.32 294.368 876.606C291.128 881.81 285.552 886.932 288.012 889.391C290.472 891.849 295.557 886.276 300.805 883.039C306.095 886.276 311.18 891.849 313.64 889.391C316.1 886.932 310.524 881.892 307.243 876.606C310.524 871.32 316.1 866.279 313.64 863.821Z" fill="#B61A6E"/>
<path d="M409.427 863.821C406.967 861.362 401.923 866.894 396.634 870.172C391.344 866.894 386.301 861.362 383.84 863.821C381.38 866.279 386.916 871.32 390.196 876.606C386.916 881.892 381.38 886.932 383.84 889.391C386.301 891.849 391.344 886.276 396.634 883.039C401.923 886.276 406.967 891.849 409.427 889.391C411.888 886.932 406.311 881.81 403.072 876.606C406.311 871.32 411.888 866.279 409.427 863.821Z" fill="#B61A6E"/>
</svg>
