<svg width="512" height="512" viewBox="0 0 512 512" fill="none" xmlns="http://www.w3.org/2000/svg">
<path d="M71 80.5C76.2467 80.5 80.5 76.2467 80.5 71C80.5 65.7533 76.2467 61.5 71 61.5C65.7533 61.5 61.5 65.7533 61.5 71C61.5 76.2467 65.7533 80.5 71 80.5Z" fill="black"/>
<path d="M145 80.5C150.247 80.5 154.5 76.2467 154.5 71C154.5 65.7533 150.247 61.5 145 61.5C139.753 61.5 135.5 65.7533 135.5 71C135.5 76.2467 139.753 80.5 145 80.5Z" fill="black"/>
<path d="M219 80.5C224.247 80.5 228.5 76.2467 228.5 71C228.5 65.7533 224.247 61.5 219 61.5C213.753 61.5 209.5 65.7533 209.5 71C209.5 76.2467 213.753 80.5 219 80.5Z" fill="black"/>
<path d="M293 80.5C298.247 80.5 302.5 76.2467 302.5 71C302.5 65.7533 298.247 61.5 293 61.5C287.753 61.5 283.5 65.7533 283.5 71C283.5 76.2467 287.753 80.5 293 80.5Z" fill="black"/>
<path d="M367 80.5C372.247 80.5 376.5 76.2467 376.5 71C376.5 65.7533 372.247 61.5 367 61.5C361.753 61.5 357.5 65.7533 357.5 71C357.5 76.2467 361.753 80.5 367 80.5Z" fill="black"/>
<path d="M441 80.5C446.247 80.5 450.5 76.2467 450.5 71C450.5 65.7533 446.247 61.5 441 61.5C435.753 61.5 431.5 65.7533 431.5 71C431.5 76.2467 435.753 80.5 441 80.5Z" fill="black"/>
<path d="M71 154.5C76.2467 154.5 80.5 150.247 80.5 145C80.5 139.753 76.2467 135.5 71 135.5C65.7533 135.5 61.5 139.753 61.5 145C61.5 150.247 65.7533 154.5 71 154.5Z" fill="black"/>
<path d="M145 154.5C150.247 154.5 154.5 150.247 154.5 145C154.5 139.753 150.247 135.5 145 135.5C139.753 135.5 135.5 139.753 135.5 145C135.5 150.247 139.753 154.5 145 154.5Z" fill="black"/>
<path d="M219 154.5C224.247 154.5 228.5 150.247 228.5 145C228.5 139.753 224.247 135.5 219 135.5C213.753 135.5 209.5 139.753 209.5 145C209.5 150.247 213.753 154.5 219 154.5Z" fill="black"/>
<path d="M293 154.5C298.247 154.5 302.5 150.247 302.5 145C302.5 139.753 298.247 135.5 293 135.5C287.753 135.5 283.5 139.753 283.5 145C283.5 150.247 287.753 154.5 293 154.5Z" fill="black"/>
<path d="M367 154.5C372.247 154.5 376.5 150.247 376.5 145C376.5 139.753 372.247 135.5 367 135.5C361.753 135.5 357.5 139.753 357.5 145C357.5 150.247 361.753 154.5 367 154.5Z" fill="black"/>
<path d="M441 154.5C446.247 154.5 450.5 150.247 450.5 145C450.5 139.753 446.247 135.5 441 135.5C435.753 135.5 431.5 139.753 431.5 145C431.5 150.247 435.753 154.5 441 154.5Z" fill="black"/>
<path d="M71 228.5C76.2467 228.5 80.5 224.247 80.5 219C80.5 213.753 76.2467 209.5 71 209.5C65.7533 209.5 61.5 213.753 61.5 219C61.5 224.247 65.7533 228.5 71 228.5Z" fill="black"/>
<path d="M145 228.5C150.247 228.5 154.5 224.247 154.5 219C154.5 213.753 150.247 209.5 145 209.5C139.753 209.5 135.5 213.753 135.5 219C135.5 224.247 139.753 228.5 145 228.5Z" fill="black"/>
<path d="M219 228.5C224.247 228.5 228.5 224.247 228.5 219C228.5 213.753 224.247 209.5 219 209.5C213.753 209.5 209.5 213.753 209.5 219C209.5 224.247 213.753 228.5 219 228.5Z" fill="black"/>
<path d="M293 228.5C298.247 228.5 302.5 224.247 302.5 219C302.5 213.753 298.247 209.5 293 209.5C287.753 209.5 283.5 213.753 283.5 219C283.5 224.247 287.753 228.5 293 228.5Z" fill="black"/>
<path d="M367 228.5C372.247 228.5 376.5 224.247 376.5 219C376.5 213.753 372.247 209.5 367 209.5C361.753 209.5 357.5 213.753 357.5 219C357.5 224.247 361.753 228.5 367 228.5Z" fill="black"/>
<path d="M441 228.5C446.247 228.5 450.5 224.247 450.5 219C450.5 213.753 446.247 209.5 441 209.5C435.753 209.5 431.5 213.753 431.5 219C431.5 224.247 435.753 228.5 441 228.5Z" fill="black"/>
<path d="M71 302.5C76.2467 302.5 80.5 298.247 80.5 293C80.5 287.753 76.2467 283.5 71 283.5C65.7533 283.5 61.5 287.753 61.5 293C61.5 298.247 65.7533 302.5 71 302.5Z" fill="black"/>
<path d="M145 302.5C150.247 302.5 154.5 298.247 154.5 293C154.5 287.753 150.247 283.5 145 283.5C139.753 283.5 135.5 287.753 135.5 293C135.5 298.247 139.753 302.5 145 302.5Z" fill="black"/>
<path d="M219 302.5C224.247 302.5 228.5 298.247 228.5 293C228.5 287.753 224.247 283.5 219 283.5C213.753 283.5 209.5 287.753 209.5 293C209.5 298.247 213.753 302.5 219 302.5Z" fill="black"/>
<path d="M293 302.5C298.247 302.5 302.5 298.247 302.5 293C302.5 287.753 298.247 283.5 293 283.5C287.753 283.5 283.5 287.753 283.5 293C283.5 298.247 287.753 302.5 293 302.5Z" fill="black"/>
<path d="M367 302.5C372.247 302.5 376.5 298.247 376.5 293C376.5 287.753 372.247 283.5 367 283.5C361.753 283.5 357.5 287.753 357.5 293C357.5 298.247 361.753 302.5 367 302.5Z" fill="black"/>
<path d="M441 302.5C446.247 302.5 450.5 298.247 450.5 293C450.5 287.753 446.247 283.5 441 283.5C435.753 283.5 431.5 287.753 431.5 293C431.5 298.247 435.753 302.5 441 302.5Z" fill="black"/>
<path d="M71 376.5C76.2467 376.5 80.5 372.247 80.5 367C80.5 361.753 76.2467 357.5 71 357.5C65.7533 357.5 61.5 361.753 61.5 367C61.5 372.247 65.7533 376.5 71 376.5Z" fill="black"/>
<path d="M145 376.5C150.247 376.5 154.5 372.247 154.5 367C154.5 361.753 150.247 357.5 145 357.5C139.753 357.5 135.5 361.753 135.5 367C135.5 372.247 139.753 376.5 145 376.5Z" fill="black"/>
<path d="M219 376.5C224.247 376.5 228.5 372.247 228.5 367C228.5 361.753 224.247 357.5 219 357.5C213.753 357.5 209.5 361.753 209.5 367C209.5 372.247 213.753 376.5 219 376.5Z" fill="black"/>
<path d="M293 376.5C298.247 376.5 302.5 372.247 302.5 367C302.5 361.753 298.247 357.5 293 357.5C287.753 357.5 283.5 361.753 283.5 367C283.5 372.247 287.753 376.5 293 376.5Z" fill="black"/>
<path d="M367 376.5C372.247 376.5 376.5 372.247 376.5 367C376.5 361.753 372.247 357.5 367 357.5C361.753 357.5 357.5 361.753 357.5 367C357.5 372.247 361.753 376.5 367 376.5Z" fill="black"/>
<path d="M441 376.5C446.247 376.5 450.5 372.247 450.5 367C450.5 361.753 446.247 357.5 441 357.5C435.753 357.5 431.5 361.753 431.5 367C431.5 372.247 435.753 376.5 441 376.5Z" fill="black"/>
<path d="M71 450.5C76.2467 450.5 80.5 446.247 80.5 441C80.5 435.753 76.2467 431.5 71 431.5C65.7533 431.5 61.5 435.753 61.5 441C61.5 446.247 65.7533 450.5 71 450.5Z" fill="black"/>
<path d="M145 450.5C150.247 450.5 154.5 446.247 154.5 441C154.5 435.753 150.247 431.5 145 431.5C139.753 431.5 135.5 435.753 135.5 441C135.5 446.247 139.753 450.5 145 450.5Z" fill="black"/>
<path d="M219 450.5C224.247 450.5 228.5 446.247 228.5 441C228.5 435.753 224.247 431.5 219 431.5C213.753 431.5 209.5 435.753 209.5 441C209.5 446.247 213.753 450.5 219 450.5Z" fill="black"/>
<path d="M293 450.5C298.247 450.5 302.5 446.247 302.5 441C302.5 435.753 298.247 431.5 293 431.5C287.753 431.5 283.5 435.753 283.5 441C283.5 446.247 287.753 450.5 293 450.5Z" fill="black"/>
<path d="M367 450.5C372.247 450.5 376.5 446.247 376.5 441C376.5 435.753 372.247 431.5 367 431.5C361.753 431.5 357.5 435.753 357.5 441C357.5 446.247 361.753 450.5 367 450.5Z" fill="black"/>
<path d="M441 450.5C446.247 450.5 450.5 446.247 450.5 441C450.5 435.753 446.247 431.5 441 431.5C435.753 431.5 431.5 435.753 431.5 441C431.5 446.247 435.753 450.5 441 450.5Z" fill="black"/>
</svg>
