<svg width="124" height="96" viewBox="0 0 124 96" fill="none" xmlns="http://www.w3.org/2000/svg">
<path d="M17 23C17 19.6875 19.6875 17 23 17H101C104.312 17 107 19.6875 107 23C107 26.3125 104.312 29 101 29H23C19.6875 29 17 26.3125 17 23Z" fill="black"/>
<path d="M17 73C17 69.6875 19.6875 67 23 67H101C104.312 67 107 69.6875 107 73C107 76.3125 104.312 79 101 79H23C19.6875 79 17 76.3125 17 73Z" fill="black"/>
<path d="M23 42C19.6875 42 17 44.6875 17 48C17 51.3125 19.6875 54 23 54H101C104.312 54 107 51.3125 107 48C107 44.6875 104.312 42 101 42H23Z" fill="black"/>
</svg>
